SplineFontDB: 3.0
FontName: Heuristica-Regular
FullName: Heuristica Regular
FamilyName: Heuristica
Weight: Regular
Copyright: Copyright (c) 1989, 1991 Adobe Systems Incorporated.  All Rights Reserved. Utopia is either a registered trademark or trademark of Adobe Systems Incorporated in the United States and/or other countries. Used under license. The Utopia fonts are freely available; see http://tug.org/fonts/utopia.\n\nCopyright (c) 2008-2012 Andrey V. Panov (panov@canopus.iacp.dvo.ru).\n
Version: 1.0
ItalicAngle: 0
UnderlinePosition: -100
UnderlineWidth: 50
Ascent: 750
Descent: 250
LayerCount: 2
Layer: 0 0 "Back"  1
Layer: 1 0 "Fore"  0
UniqueID: 4138811
FSType: 8
OS2Version: 0
OS2_WeightWidthSlopeOnly: 0
OS2_UseTypoMetrics: 1
CreationTime: 1163929378
ModificationTime: 1329826947
PfmFamily: 17
TTFWeight: 400
TTFWidth: 5
LineGap: 0
VLineGap: 0
Panose: 2 2 6 3 5 7 5 2 2 4
OS2TypoAscent: 750
OS2TypoAOffset: 0
OS2TypoDescent: -250
OS2TypoDOffset: 0
OS2TypoLinegap: 200
OS2WinAscent: 950
OS2WinAOffset: 0
OS2WinDescent: 250
OS2WinDOffset: 0
HheadAscent: 950
HheadAOffset: 0
HheadDescent: -250
HheadDOffset: 0
OS2Vendor: 'PfEd'
Lookup: 258 0 0 "LGC kerning"  {"LGC kerning subtable" [150,15,0] } ['kern' ('cyrl' <'dflt' > 'grek' <'dflt' > 'latn' <'dflt' > ) ]
MarkAttachClasses: 1
DEI: 91125
LangName: 1033 "" "" "" "" "" "" "" "" "" "" "" "" "" "Copyright 1989, 1991 Adobe Systems Incorporated. All rights reserved.+AAoA-Utopia is either a registered trademark or trademark of Adobe Systems+AAoA-Incorporated in the United States and/or other countries. Used under+AAoA-license.+AAoACgAA-Copyright (c) 2008-2012 Andrey V. Panov (panov@canopus.iacp.dvo.ru), +AAoA-with Reserved Font Name Heuristica.+AAoACgAA-This Font Software is licensed under the SIL Open Font License, Version 1.1.+AAoA-This license is copied together with this font package in OFL.txt, +AAoA-and is also available with a FAQ at:+AAoA-http://scripts.sil.org/OFL" "http://scripts.sil.org/ofl" 

StartChar: exclam
Encoding: 33 33 1
Width: 242
Flags: W
HStem: -12 128<102 140.5> 687 20G<94 148.5>
VStem: 58 126<51 69.5 51 69.5> 66 111<568.167 702.325>
LayerCount: 2
Fore
SplineSet
66 640 m 2xd0
 62 685 67 707 121 707 c 0
 176 707 181 685 177 640 c 2
 135 209 l 1
 106 209 l 1
 66 640 l 2xd0
EndSplineSet
Refer: 14 46 S 1 0 0 1 -12 0 2
EndChar

StartChar: numbersign
Encoding: 35 35 3
Width: 530
Flags: HW
HStem: 0 21G<60 119.914 249 307.914> 232 46<23 118 183 307 371 465> 411 46<67 162 227 351 415 509> 648 20G<220.071 279 409.071 467>
VStem: 60 55<0 55> 225 54<614 668> 249 54<0 54> 414 53<615 668>
LayerCount: 2
Fore
SplineSet
11 232 m 1
 23 278 l 1
 129 278 l 1
 162 411 l 1
 55 411 l 1
 67 457 l 1
 173 457 l 1
 225 668 l 1
 279 668 l 1xfd
 227 457 l 1
 362 457 l 1
 414 668 l 1
 467 668 l 1
 415 457 l 1
 519 457 l 1
 509 411 l 1
 404 411 l 1
 371 278 l 1
 475 278 l 1
 465 232 l 1
 360 232 l 1
 303 0 l 1
 249 0 l 1xfb
 307 232 l 1
 172 232 l 1
 115 0 l 1
 60 0 l 1
 118 232 l 1
 11 232 l 1
183 278 m 1
 318 278 l 1
 351 411 l 1xf9
 216 411 l 1
 183 278 l 1
EndSplineSet
EndChar

StartChar: dollar
Encoding: 36 36 4
Width: 530
Flags: HW
HStem: 0 35<243 243> 632 35<221.5 243> 633 35<283 283> 723 20G<243 283 283 283>
VStem: 56 79<485 553.5> 243 40<-102 0 -102 0 35 298 405 632 632 632 668 743> 400 87<105.5 196.5>
LayerCount: 2
Fore
SplineSet
44 110 m 0
 44 140 70 161 90 161 c 0
 104 161 112 153 119 139 c 0
 160 54 211 36 243 35 c 1
 243 311 l 1
 104 352 56 415 56 495 c 0
 56 612 149 665 243 667 c 1xde
 243 743 l 1
 283 743 l 1
 283 668 l 1
 402 665 458 607 458 565 c 0
 458 536 428 524 412 524 c 0
 398 524 391 529 385 544 c 0
 361 603 323 630 283 633 c 1xbe
 283 390 l 1
 417 352 487 291 487 183 c 0
 487 20 322 0 283 0 c 1
 283 -102 l 1
 243 -102 l 1
 243 0 l 1
 90 4 44 77 44 110 c 0
135 522 m 0
 135 448 192 422 243 405 c 1xde
 243 632 l 1
 200 632 135 604 135 522 c 0
283 35 m 1
 332 34 400 59 400 152 c 0
 400 241 349 277 283 298 c 1
 283 35 l 1
EndSplineSet
EndChar

StartChar: percent
Encoding: 37 37 5
Width: 838
Flags: MW
HStem: -12 32<588.12 672.4> -12 366<630 630> 314 366<101 258> 314 32<165.12 249.4> 322 32<587.685 672.846> 601 32<352.287 556.682> 648 32<164.685 250.382> 680 20G<610.882 657.381>
VStem: 50 74<389.514 604.817> 291 74<389.514 599.52> 473 74<63.5144 278.817> 714 74<63.5144 278.817>
DStem2: 183 2 219 -25 0.529999 0.847998<0 706.171 784.61 826.162>
LayerCount: 2
Fore
SplineSet
50 497 m 0x17f0
 50 612 101 680 207 680 c 0
 258 680 291 666 318 646 c 0
 333 636 338 633 361 633 c 2
 530 633 l 2
 564 635 583 641 601 666 c 2
 625 700 l 1
 659 679 l 1
 219 -25 l 1
 183 2 l 1
 557 601 l 1
 352 601 l 1
 359 582 365 549 365 497 c 0
 365 382 314 314 207 314 c 0
 101 314 50 382 50 497 c 0x17f0
124 497 m 0
 124 401 155 346 207 346 c 0
 260 346 291 401 291 497 c 0
 291 601 258 648 207 648 c 0
 157 648 124 601 124 497 c 0
EndSplineSet
Refer: 235 61698 N 1 0 0 1 423 0 2
EndChar

StartChar: ampersand
Encoding: 38 38 6
Width: 706
Flags: HW
HStem: -12 49<251 301.5> -7 21G<687 687> -7 25<687 692> 645 35<263.5 310>
VStem: 46 97<176 225> 126 77<521 564.5> 360 77<519.5 575> 565 91
LayerCount: 2
Back
SplineSet
285 645 m 0x97
 242 645 203 606 203 546 c 0
 203 496 227 452 268 406 c 1
 323 444 360 491 360 548 c 0
 360 602 335 645 285 645 c 0x97
264 -12 m 0x9b
 140 -12 45 56 46 176 c 0x9b
 46 274 125 325 192 366 c 1
 160 406 126 453 126 521 c 0
 126 608 195 680 289 680 c 0
 370 680 437 630 437 542 c 0
 437 462 369 423 291 382 c 1
 348 312 411 243 501 161 c 1
 565 235 570 340 562 416 c 1
 587 430 615 436 638 433 c 1
 661 389 660 361 650 330 c 0
 628 266 587 206 527 136 c 1
 566 98 644 31 692 18 c 1x37
 687 -7 l 1
 666 -5 l 2
 605 0 548 12 500 51 c 2x57
 472 73 l 1
 406 15 339 -12 264 -12 c 0x9b
212 338 m 1
 189 318 143 275 143 196 c 0
 143 101 208 37 294 37 c 0
 359 37 401 60 445 98 c 1
 355 179 278 259 212 338 c 1
EndSplineSet
Fore
SplineSet
46 176 m 0x9b
 46 274 125 325 192 366 c 1
 160 406 126 453 126 521 c 0
 126 608 195 680 289 680 c 0
 370 680 437 630 437 542 c 0
 437 462 369 423 291 382 c 1
 348 312 411 243 501 161 c 1
 565 235 570 340 562 416 c 1
 587 430 615 436 638 433 c 1
 661 389 660 361 650 330 c 0
 628 266 587 206 527 136 c 1
 566 98 644 31 692 18 c 1x37
 687 -7 l 1
 666 -5 l 2
 605 0 548 12 500 51 c 2x57
 472 73 l 1
 406 15 339 -12 264 -12 c 0x9b
 140 -12 46 56 46 176 c 0x9b
143 196 m 0
 143 101 208 37 294 37 c 0
 359 37 401 60 445 98 c 1
 355 179 278 259 212 338 c 1
 189 318 143 275 143 196 c 0
203 546 m 0
 203 496 227 452 268 406 c 1
 323 444 360 491 360 548 c 0
 360 602 335 645 285 645 c 0x97
 242 645 203 606 203 546 c 0
EndSplineSet
EndChar

StartChar: quoteright
Encoding: 8217 8217 7
Width: 278
Flags: HMW
HStem: 722 20G<127 142>
VStem: 127 80<581 683>
LayerCount: 2
Back
SplineSet
89 472 m 1
 72 488 l 1
 103 524 127 562 127 600 c 0
 127 637 94 658 94 694 c 0
 94 721 112 742 142 742 c 0
 175 743 207 710 207 656 c 0
 207 585 139 518 89 472 c 1
EndSplineSet
Fore
SplineSet
72 488 m 1
 103 524 127 562 127 600 c 0
 127 637 94 658 94 694 c 0
 94 721 112 742 142 742 c 0
 175 742 207 710 207 656 c 0
 207 585 139 518 89 472 c 1
 72 488 l 1
EndSplineSet
EndChar

StartChar: parenleft
Encoding: 40 40 8
Width: 350
Flags: HMW
HStem: -128 25<325 325> 667 25<325 325>
VStem: 105 70<189 375>
LayerCount: 2
Fore
SplineSet
105 282 m 0
 105 468 150 685 325 692 c 1
 325 667 l 1
 262 654 175 568 175 282 c 0
 175 -6 267 -91 325 -103 c 1
 325 -128 l 1
 150 -121 105 96 105 282 c 0
EndSplineSet
EndChar

StartChar: parenright
Encoding: 41 41 9
Width: 350
Flags: HMW
HStem: -128 25<25 25> 667 25<25 25>
VStem: 175 70<189 375 189 425>
LayerCount: 2
Fore
SplineSet
25 -103 m 1
 83 -91 175 -6 175 282 c 0
 175 568 88 654 25 667 c 1
 25 692 l 1
 200 685 245 468 245 282 c 0
 245 96 200 -121 25 -128 c 1
 25 -103 l 1
EndSplineSet
EndChar

StartChar: asterisk
Encoding: 42 42 10
Width: 412
Flags: HW
HStem: 507 60 687 20G<193.5 218.5>
VStem: 180 52 194 24<489 489>
LayerCount: 2
Fore
SplineSet
57 628 m 0
 72 650 90 648 105 635 c 2
 181 571 l 2
 191 562 198 565 194 582 c 2
 175 676 l 2
 171 696 181 707 206 707 c 0xd0
 231 707 241 696 237 676 c 2
 218 582 l 2
 214 565 221 562 231 571 c 2
 308 636 l 2xd0
 322 648 342 651 356 628 c 0
 366 612 367 592 343 583 c 2
 247 545 l 2
 229 539 227 531 244 525 c 2
 340 486 l 2xe0
 362 477 367 457 353 437 c 0
 340 419 321 416 305 432 c 2
 233 501 l 2
 219 514 215 505 218 489 c 2
 237 396 l 2
 242 373 233 356 206 356 c 0
 179 356 170 373 175 396 c 2
 194 489 l 2
 197 505 193 514 179 501 c 2
 107 433 l 2xd0
 90 417 72 419 59 437 c 0
 46 457 50 477 72 486 c 2
 168 525 l 2
 185 531 183 539 165 545 c 2
 70 582 l 2xe0
 45 592 46 612 57 628 c 0
EndSplineSet
EndChar

StartChar: plus
Encoding: 43 43 11
Width: 570
Flags: MW
HStem: 0 21G<251 319 251 251> 221 58<43 251 43 251 319 527> 470 20G<251 319 319 319>
VStem: 251 68<0 221 0 221 279 490>
LayerCount: 2
Fore
SplineSet
43 221 m 1
 43 279 l 1
 251 279 l 1
 251 490 l 1
 319 490 l 1
 319 279 l 1
 527 279 l 1
 527 221 l 1
 319 221 l 1
 319 0 l 1
 251 0 l 1
 251 221 l 1
 43 221 l 1
EndSplineSet
EndChar

StartChar: comma
Encoding: 44 44 12
Width: 265
Flags: HMW
HStem: -141 282<70 125>
VStem: 109 84<11.5 15.5>
LayerCount: 2
Back
SplineSet
51 -122 m 1
 83 -87 109 -47 109 -6 c 0
 109 37 76 55 76 91 c 0
 76 117 94 141 125 141 c 0
 160 142 193 106 193 51 c 0
 193 -28 120 -94 70 -141 c 1
 51 -122 l 1
EndSplineSet
Fore
SplineSet
51 -122 m 1
 83 -87 109 -47 109 -6 c 0
 109 37 76 55 76 91 c 0
 76 117 94 141 125 141 c 0
 163 141 193 104 193 51 c 0
 193 -28 120 -94 70 -141 c 1
 51 -122 l 1
EndSplineSet
EndChar

StartChar: hyphen
Encoding: 45 45 13
Width: 392
Flags: HMW
HStem: 216 70<74 319 74 319>
VStem: 74 245<216 286 216 286>
LayerCount: 2
Fore
SplineSet
74 216 m 1
 74 286 l 1
 319 286 l 1
 319 216 l 1
 74 216 l 1
EndSplineSet
EndChar

StartChar: period
Encoding: 46 46 14
Width: 265
Flags: HMW
HStem: -12 128<114 152.5>
VStem: 70 126<51 69.5 51 69.5>
LayerCount: 2
Fore
SplineSet
70 51 m 0
 70 88 95 116 133 116 c 0
 172 116 196 88 196 51 c 0
 195 15 172 -12 133 -12 c 0
 95 -12 70 15 70 51 c 0
EndSplineSet
EndChar

StartChar: slash
Encoding: 47 47 15
Width: 460
Flags: HMW
HStem: -15 21G<92 159 92 92> 687 20G<302 369 369 369>
VStem: 92 277
LayerCount: 2
Fore
SplineSet
92 -15 m 1
 302 707 l 1
 369 707 l 1
 159 -15 l 1
 92 -15 l 1
EndSplineSet
EndChar

StartChar: zero
Encoding: 48 48 16
Width: 530
Flags: HMW
HStem: -12 35<217.5 312.5 217.5 347.5> 645 35<217.5 312.5>
VStem: 41 102<252.5 415.5 252.5 434> 387 102<252.5 415.5>
LayerCount: 2
Fore
SplineSet
41 334 m 0
 41 534 100 680 265 680 c 0
 430 680 489 534 489 334 c 0
 489 134 430 -12 265 -12 c 0
 100 -12 41 134 41 334 c 0
143 334 m 0
 143 171 170 23 265 23 c 0
 360 23 387 171 387 334 c 0
 387 497 360 645 265 645 c 0
 170 645 143 497 143 334 c 0
EndSplineSet
EndChar

StartChar: one
Encoding: 49 49 17
Width: 530
Flags: HMW
HStem: 0 32.5 660 20G<315 315>
VStem: 226 94<85 570 570 584.5>
LayerCount: 2
Fore
SplineSet
109 0 m 1
 109 29 l 1
 193 36 l 2
 204 37 212 40 217 47 c 0
 223 54 226 66 226 85 c 2
 226 570 l 2
 226 599 219 607 202 609 c 2
 109 620 l 1
 109 645 l 1
 315 680 l 1
 320 674 l 1
 320 85 l 2
 320 46 332 38 353 36 c 2
 437 29 l 1
 437 0 l 1
 109 0 l 1
EndSplineSet
EndChar

StartChar: two
Encoding: 50 50 18
Width: 530
Flags: HMW
HStem: 0 76<120 376 376 396 120 451> 645 35<223 292.5>
VStem: 353 105<453.5 543.5>
LayerCount: 2
Fore
SplineSet
27 10 m 1
 46 88 89 156 212 263 c 0
 299 340 353 400 353 507 c 0
 353 580 331 645 254 645 c 0
 192 645 153 590 137 522 c 0
 133 505 126 495 108 495 c 0
 91 495 53 511 53 545 c 0
 53 597 124 680 261 680 c 0
 366 680 458 632 458 493 c 0
 458 381 384 336 288 266 c 0
 195 199 136 128 120 76 c 1
 376 76 l 2
 416 76 436 83 457 137 c 1
 485 132 l 1
 451 0 l 1
 37 0 l 1
 27 10 l 1
EndSplineSet
EndChar

StartChar: three
Encoding: 51 51 19
Width: 530
Flags: MW
HStem: -12 35<175.985 305.924> 338 56<130.24 232.765> 645 35<188.686 298.502>
VStem: 27 83<84.7559 144.508> 53 74<523.897 581.733> 341 103<444.05 602.903> 368 105<94.1901 277.186>
LayerCount: 2
Fore
SplineSet
27 102 m 0xf2
 27 138 62 157 80 157 c 0
 94 157 104 148 110 129 c 0
 129 73 172 23 238 23 c 0
 309 23 368 65 368 184 c 0xf2
 368 271 320 348 235 348 c 0
 187 348 160 338 148 338 c 0
 135 338 130 349 130 366 c 0
 130 384 135 394 148 394 c 0
 160 394 187 384 235 384 c 0
 320 384 341 459 341 519 c 0
 341 575 322 645 243 645 c 0
 187 645 149 601 127 533 c 0
 123 520 115 513 102 513 c 0
 88 513 53 530 53 561 c 0
 53 604 118 680 250 680 c 0
 357 680 444 631 444 520 c 0xec
 444 421 357 381 303 372 c 1
 303 368 l 1
 358 363 473 323 473 189 c 0
 473 61 382 -12 237 -12 c 0
 96 -12 27 59 27 102 c 0xf2
EndSplineSet
EndChar

StartChar: four
Encoding: 52 52 20
Width: 530
Flags: MW
HStem: 0 32 179 47<91 300 91 300 390 493> 648 20G<317 390 390 390>
VStem: 300 90<77 179 226 571 571 571>
DStem2: 19 200 91 226 0.537109 0.843513<60.6032 462.797>
LayerCount: 2
Fore
SplineSet
19 200 m 1
 111 356 223 530 317 668 c 1
 390 668 l 1
 390 226 l 1
 493 226 l 1
 493 179 l 1
 390 179 l 1
 390 77 l 2
 390 43 397 37 420 34 c 2
 465 29 l 1
 465 0 l 1
 201 0 l 1
 201 29 l 1
 265 35 l 2
 289 37 300 43 300 77 c 2
 300 179 l 1
 28 179 l 1
 19 200 l 1
91 226 m 1
 300 226 l 1
 300 571 l 1
 298 571 l 1
 221 450 151 335 91 226 c 1
EndSplineSet
EndChar

StartChar: five
Encoding: 53 53 21
Width: 530
Flags: W
HStem: -12 35<187.439 307.053> 383 44<177.354 311.692> 592 76<149.138 426>
VStem: 40 81<85.3312 142.537> 376 104<109.868 309.362>
LayerCount: 2
Fore
SplineSet
40 102 m 0
 40 135 73 155 93 155 c 0
 107 155 116 146 121 131 c 0
 141 74 177 23 247 23 c 0
 334 23 376 101 376 204 c 0
 376 336 306 383 242 383 c 0
 188 383 147 360 105 312 c 1
 81 324 l 1
 101 659 l 1
 111 668 l 1
 445 668 l 1
 450 660 l 1
 426 592 l 1
 177 592 l 2
 158 592 151 588 148 563 c 2
 125 376 l 1
 127 374 l 1
 159 403 218 427 273 427 c 0
 392 427 480 355 480 215 c 0
 480 88 405 -12 240 -12 c 0
 110 -12 40 56 40 102 c 0
EndSplineSet
EndChar

StartChar: six
Encoding: 54 54 22
Width: 530
Flags: HMW
HStem: -12 35<230.5 316 230.5 346> 371 51 645 35<260.5 320>
VStem: 44 99<336 336 336 381.5> 399 100<146.5 256.5>
LayerCount: 2
Back
SplineSet
44 309 m 0
 44 454 78 550 123 602 c 0
 165 650 221 680 300 680 c 0
 420 680 469 613 469 573 c 0
 469 545 438 528 416 528 c 0
 401 528 393 537 390 549 c 0
 375 606 343 645 297 645 c 0
 207 645 144 556 143 336 c 1
 145 336 l 1
 172 369 232 424 308 422 c 0
 412 424 499 349 499 214 c 0
 499 78 420 -12 272 -12 c 0
 122 -12 44 93 44 309 c 0
145 236 m 0
 145 116 187 23 274 23 c 0
 358 23 399 94 399 199 c 0
 399 314 337 371 274 371 c 0
 190 371 145 297 145 236 c 0
EndSplineSet
Fore
SplineSet
44 309 m 0
 44 558.085 141.035 680 300 680 c 0
 420 680 469 613 469 573 c 0
 469 545 438 528 416 528 c 0
 401 528 393 537 390 549 c 0
 375 606 343 645 297 645 c 0
 207 645 144 556 143 336 c 1
 145 336 l 1
 172 369 229 422 308 422 c 0
 415 422 499 349 499 214 c 0
 499 78 420 -12 272 -12 c 0
 122 -12 44 93 44 309 c 0
145 236 m 0
 145 116 187 23 274 23 c 0
 358 23 399 94 399 199 c 0
 399 314 337 371 274 371 c 0
 190 371 145 297 145 236 c 0
EndSplineSet
EndChar

StartChar: seven
Encoding: 55 55 23
Width: 530
Flags: HW
HStem: -12 21G<205.5 235.5> 592 76<126.5 149 149 419> 657 11<72 497>
VStem: 41 456<528 657>
LayerCount: 2
Fore
SplineSet
41 528 m 1
 72 668 l 1xd0
 488 668 l 1
 497 657 l 1xb0
 462 531 409 469 345 357 c 0
 292 264 265 158 270 26 c 0
 271 -3 250 -12 221 -12 c 0
 190 -12 167 -4 167 29 c 0
 167 147 224 259 310 382 c 0
 391 498 409 556 419 592 c 1
 149 592 l 2
 104 592 91 577 78 549 c 2
 68 528 l 1
 41 528 l 1
EndSplineSet
EndChar

StartChar: eight
Encoding: 56 56 24
Width: 530
Flags: W
HStem: -12 35<202.233 327.767> 338 36<212.031 317.969> 645 35<208.551 321.449>
VStem: 42 100<88.0281 272.05> 64 97<427.983 593.353> 369 97<426.655 593.353> 388 100<88.0281 272.05>
LayerCount: 2
Back
SplineSet
42 182 m 0xf2
 42 284 107 342 174 358 c 1
 174 361 l 1
 114 377 64 428 64 510 c 0
 64 618 151 680 265 680 c 0
 381 680 466 619 466 510 c 0xec
 466 428 417 377 356 361 c 1
 356 358 l 1
 424 342 488 284 488 182 c 0
 488 81 427 -12 265 -12 c 0
 102 -12 42 81 42 182 c 0xf2
142 179 m 0
 142 91 182 23 265 23 c 0
 350 23 388 91 388 179 c 0
 388 270 345 338 265 338 c 0xf2
 186 338 142 270 142 179 c 0
161 512 m 0
 161 444 193 374 265 374 c 0xec
 338 374 369 444 369 512 c 0
 367 589 333 645 265 645 c 0
 197 645 161 589 161 512 c 0
EndSplineSet
Fore
SplineSet
42 182 m 0xf2
 42 284 107 342 174 358 c 1
 174 361 l 1
 114 377 64 428 64 510 c 0
 64 618 150 680 265 680 c 0
 380 680 466 618 466 510 c 0xec
 466 428 417 377 356 361 c 1
 356 358 l 1
 424 342 488 284 488 182 c 0
 488 81 427 -12 265 -12 c 0
 103 -12 42 81 42 182 c 0xf2
142 179 m 0xf2
 142 91 181 23 265 23 c 0
 349 23 388 91 388 179 c 0
 388 270 345 338 265 338 c 0
 185 338 142 270 142 179 c 0xf2
161 512 m 0xec
 161 444 193 374 265 374 c 0
 337 374 369 444 369 512 c 0
 369 589 333 645 265 645 c 0
 197 645 161 589 161 512 c 0xec
EndSplineSet
EndChar

StartChar: nine
Encoding: 57 57 25
Width: 530
Flags: HMW
HStem: -12 35<205 270.5> 268 53<220 260> 645 35<216 288 192 295>
VStem: 36 100<437 526> 379 98<320.5 352>
LayerCount: 2
Fore
SplineSet
36 457 m 0
 36 595 128 680 256 680 c 0
 320 680 375 658 413 613 c 0
 452 566 477 485 477 361 c 0
 477 216 452 128 411 71 c 0
 373 18 311 -12 230 -12 c 0
 109 -12 56 49 56 93 c 0
 56 124 84 144 103 144 c 0
 120 144 127 136 131 123 c 0
 146 76 171 23 239 23 c 0
 303 23 338 73 356 139 c 0
 374 208 379 289 379 352 c 1
 377 352 l 1
 343 303 291 268 229 268 c 0
 126 268 36 332 36 457 c 0
136 485 m 0
 136 389 181 321 259 321 c 0
 312 321 351 353 367 400 c 0
 373 416 374 436 374 453 c 0
 374 550 335 645 255 645 c 0
 177 645 136 577 136 485 c 0
EndSplineSet
EndChar

StartChar: colon
Encoding: 58 58 26
Width: 265
Flags: HMW
HStem: -12 128<114 152.5> 362 128<114 152.5>
VStem: 70 126<51 69.5 51 69.5 426 444>
LayerCount: 2
Back
SplineSet
133 362 m 0
 95 362 70 389 70 426 c 0
 70 462 95 490 133 490 c 0
 172 490 196 462 196 426 c 0
 195 389 172 362 133 362 c 0
EndSplineSet
Refer: 14 46 S 1 0 0 1 0 0 2
Fore
Refer: 14 46 N 1 0 0 1 0 374 2
Refer: 14 46 N 1 0 0 1 0 0 3
EndChar

StartChar: semicolon
Encoding: 59 59 27
Width: 265
Flags: W
HStem: -141 282<70 125> 362 128<114 152.5>
VStem: 70 126<425 443.5 425 443.5> 109 84<11.5 15.5>
LayerCount: 2
Back
SplineSet
133 362 m 0xc0
 95 362 70 389 70 426 c 0
 70 462 95 490 133 490 c 0
 172 490 196 462 196 426 c 0
 195 389 172 362 133 362 c 0xc0
EndSplineSet
Refer: 12 44 N 1 0 0 1 0 0 2
Fore
Refer: 14 46 N 1 0 0 1 0 374 2
Refer: 12 44 N 1 0 0 1 0 0 3
EndChar

StartChar: less
Encoding: 60 60 28
Width: 570
Flags: HMW
HStem: 479 20G<524 524>
VStem: 46 59<250 250 250 290 250 290>
LayerCount: 2
Fore
SplineSet
46 210 m 1
 46 290 l 1
 524 499 l 1
 524 430 l 1
 105 250 l 1
 524 70 l 1
 524 1 l 1
 46 210 l 1
EndSplineSet
EndChar

StartChar: greater
Encoding: 62 62 30
Width: 570
Flags: HMW
HStem: 479 20G<46 46>
VStem: 465 59<250 250>
LayerCount: 2
Fore
SplineSet
46 1 m 1
 46 70 l 1
 465 250 l 1
 46 430 l 1
 46 499 l 1
 524 290 l 1
 524 210 l 1
 46 1 l 1
EndSplineSet
EndChar

StartChar: question
Encoding: 63 63 31
Width: 389
Flags: W
HStem: -12 125<142.527 237.473> 199 44<170 284.219> 672 35<154.518 235.047>
VStem: 29 85<551.4 631.814> 90 97<263.561 358.992> 128 124<1.58984 99.3264> 260 99<498.946 646.937>
LayerCount: 2
Back
SplineSet
197 199 m 0xfc
 143 199 90 233 90 296 c 0
 90 341 111 367 171 413 c 0
 216 447 260 508 260 571 c 0
 260 629 242 672 196 672 c 0
 156 672 128 640 114 565 c 0
 111 548 97 541 82 541 c 0
 65 541 29 554 29 591 c 0
 29 624 69 705 201 707 c 0
 291 707 357 664 359 571 c 0
 357 490 297 455 263 431 c 0
 213 396 187 360 187 316 c 0
 187 261 234 243 255 243 c 0
 267 243 278 245 285 247 c 1
 293 227 l 1
 266 205 228 199 197 199 c 0xfc
190 -12 m 0xe8
 153 -12 128 14 128 50 c 0
 128 86 153 113 190 113 c 0
 228 113 252 86 252 50 c 0
 251 14 228 -12 190 -12 c 0xe8
EndSplineSet
Fore
SplineSet
29 591 m 0xf2
 29 624 69 707 201 707 c 0
 291 707 359 662 359 571 c 0
 359 492 297 455 263 431 c 0
 213 396 187 360 187 316 c 0
 187 261 234 243 255 243 c 0
 267 243 278 245 285 247 c 1
 293 227 l 1
 266 205 228 199 197 199 c 0
 143 199 90 233 90 296 c 0xea
 90 341 111 367 171 413 c 0
 216 447 260 508 260 571 c 0
 260 629 242 672 196 672 c 0
 156 672 128 640 114 565 c 0
 111 548 97 541 82 541 c 0
 65 541 29 554 29 591 c 0xf2
128 50 m 0xe6
 128 87 154 113 190 113 c 0
 226 113 252 87 252 50 c 0
 252 14 226 -12 190 -12 c 0
 154 -12 128 14 128 50 c 0xe6
EndSplineSet
EndChar

StartChar: at
Encoding: 64 64 32
Width: 793
Flags: HMW
HStem: -15 39<303.5 418> 172 38<553 588.5> 504 29<423.5 486> 666 41<350.5 522>
VStem: 46 78<245.5 398.5 245.5 430> 223 82<253.5 292> 460 69 705 50<357.5 409>
LayerCount: 2
Back
SplineSet
46 303 m 0
 46 557 243 707 449 707 c 0
 639 707 755 576 755 414 c 0
 755 277 647 172 530 172 c 0
 470 172 440 203 474 309 c 1
 472 310 l 1
 444 260 365 170 289 172 c 0
 259 173 223 190 223 255 c 0
 223 329 297 533 475 533 c 0
 498 533 511 530 530 520 c 1
 534 528 l 1
 599 528 l 1
 533 270 l 2
 521 222 539 210 567 210 c 0
 634 210 705 306 705 409 c 0
 708 573 593 666 451 666 c 0
 250 666 124 490 124 307 c 0
 124 184 190 24 415 24 c 0
 473 24 539 36 584 55 c 1
 592 30 l 1
 530 -4 449 -15 387 -15 c 0
 220 -15 46 87 46 303 c 0
305 270 m 0
 305 237 317 219 339 219 c 0
 410 219 504 397 523 490 c 1
 508 500 496 504 476 504 c 0
 371 504 305 331 305 270 c 0
EndSplineSet
Fore
SplineSet
46 303 m 0
 46 557 243 707 449 707 c 0
 639 707 755 576 755 414 c 0
 755 277 647 172 530 172 c 0
 487 172 460 188 460 235 c 0
 460 254 464 279 474 309 c 1
 472 310 l 1
 444 260 368 172 289 172 c 0
 259 172 223 190 223 255 c 0
 223 329 297 533 475 533 c 0
 498 533 511 530 530 520 c 1
 534 528 l 1
 599 528 l 1
 533 270 l 2
 530 260 529 251 529 244 c 0
 529 217 545 210 567 210 c 0
 634 210 705 306 705 409 c 0
 705 576 593 666 451 666 c 0
 250 666 124 490 124 307 c 0
 124 184 190 24 415 24 c 0
 473 24 539 36 584 55 c 1
 592 30 l 1
 530 -4 449 -15 387 -15 c 0
 220 -15 46 87 46 303 c 0
305 270 m 0
 305 237 317 219 339 219 c 0
 410 219 504 397 523 490 c 1
 508 500 496 504 476 504 c 0
 371 504 305 331 305 270 c 0
EndSplineSet
EndChar

StartChar: A
Encoding: 65 65 33
Width: 635
Flags: MW
HStem: 0 29<-29 32.0391 394 394 589.26 650> 267 38<188 387> 672 20G<269.905 358.031>
DStem2: 64 98 175 267 0.314023 0.949415<-37.8471 108.35 316.84 397.704> 351 692 288 591 0.331674 -0.943394<74.3873 377.034 416.863 653.414>
LayerCount: 2
Fore
SplineSet
-29 0 m 1
 -29 29 l 1
 34 32 43 44 64 98 c 0
 99 189 141 309 172 396 c 2
 277 692 l 1
 351 692 l 1
 563 89 l 2
 581 37 592 34 650 29 c 1
 650 0 l 1
 394 0 l 1
 394 29 l 1
 439 33 l 2
 471 36 476 47 466 76 c 2
 399 267 l 1
 175 267 l 1
 152 196 131 134 114 74 c 0
 106 47 109 37 139 34 c 2
 191 29 l 1
 191 0 l 1
 -29 0 l 1
188 305 m 1
 387 305 l 1
 288 591 l 1
 285 591 l 1
 255 503 220 405 188 305 c 1
EndSplineSet
EndChar

StartChar: B
Encoding: 66 66 34
Width: 646
Flags: W
HStem: 0 35<35 120.879 239.491 410.949> 355 35<224 386.218> 657 35<35 120.879 227.988 391.601>
VStem: 125 99<48.1836 355 390 652.518> 458 105<458.071 602.93> 488 107<99.5217 275.531>
CounterMasks: 1 e0
LayerCount: 2
Back
SplineSet
345 0 m 2x75
 35 0 l 1x75
 35 29 l 1
 123 35 125 37 125 93 c 2
 125 599 l 2
 125 655 123 657 35 663 c 1xad
 35 692 l 1
 324 692 l 2
 402 693 462 682 501 656 c 0
 541 629 563 588 563 533 c 0x76
 563 456 508 398 414 379 c 1
 414 377 l 1
 511 364 595 312 595 194 c 0
 595 55 497 0 345 0 c 2x75
224 355 m 1
 224 112 l 2
 224 50 240 35 320 35 c 0
 406 35 488 67 488 187 c 0
 488 293 420 355 296 355 c 2
 224 355 l 1
224 607 m 2
 224 390 l 1
 291 390 l 2
 395 390 458 429 458 527 c 0x76
 458 630 377 658 305 657 c 0
 227 656 224 650 224 607 c 2
EndSplineSet
Fore
SplineSet
35 0 m 1xf4
 35 29 l 1
 123 35 125 37 125 93 c 2
 125 599 l 2
 125 655 123 657 35 663 c 1
 35 692 l 1
 324 692 l 2
 404 692 462 682 501 656 c 0
 541 629 563 588 563 533 c 0xf8
 563 456 508 398 414 379 c 1
 414 377 l 1
 511 364 595 312 595 194 c 0
 595 55 497 0 345 0 c 2
 35 0 l 1xf4
224 112 m 2
 224 50 240 35 320 35 c 0
 406 35 488 67 488 187 c 0xf4
 488 293 420 355 296 355 c 2
 224 355 l 1
 224 112 l 2
224 390 m 1
 291 390 l 2
 395 390 458 429 458 527 c 0xf8
 458 630 378 657 305 657 c 0
 227 657 224 650 224 607 c 2
 224 390 l 1
EndSplineSet
EndChar

StartChar: C
Encoding: 67 67 35
Width: 684
Flags: W
HStem: -15 35<315.695 500.647> 672 35<318.479 504.757>
VStem: 48 112<199.435 480.675> 603 30<512 566.281> 619 30<157.92 200>
LayerCount: 2
Back
SplineSet
633 668 m 1
 633 512 l 1
 603 512 l 1
 584 630 513 672 411 672 c 0
 225 673 160 508 160 344 c 0
 160 223 203 20 409 20 c 0
 540 20 591 96 619 200 c 1
 649 200 l 1
 635 33 l 1
 587 7 495 -15 415 -15 c 0
 303 -15 205 8 143 70 c 0
 83 130 48 224 48 341 c 0
 48 454 82 540 139 604 c 0
 199 671 298 707 421 707 c 0xb8
 512 707 588 689 633 668 c 1
EndSplineSet
Fore
SplineSet
48 341 m 0xe8
 48 454 82 540 139 604 c 0
 199 671 298 707 421 707 c 0
 512 707 588 689 633 668 c 1
 633 512 l 1
 603 512 l 1xf0
 584 630 513 672 411 672 c 0
 225 672 160 508 160 344 c 0
 160 223 203 20 409 20 c 0
 540 20 591 96 619 200 c 1
 649 200 l 1
 635 33 l 1
 587 7 495 -15 415 -15 c 0
 303 -15 205 8 143 70 c 0
 83 130 48 224 48 341 c 0xe8
EndSplineSet
EndChar

StartChar: D
Encoding: 68 68 36
Width: 779
Flags: HW
HStem: 0 35<35 120.879 241.989 450.888> 657 35<35 120.879 231.618 451.297>
VStem: 125 99<49.2201 649.378> 619 112<213.227 492.624>
LayerCount: 2
Back
SplineSet
224 600 m 2x6c
 224 125 l 2
 224 46 241 35 328 35 c 0
 496 35 619 102 619 354 c 0
 619 523 555 653 340 657 c 0
 233 657 224 652 224 600 c 2x6c
35 692 m 1
 367 692 l 2
 487 691 576 666 641 605 c 0
 702 546 731 459 731 358 c 0
 731 208 675 115 601 64 c 0
 527 13 436 0 347 0 c 2
 35 0 l 1x6c
 35 29 l 1
 123 35 125 37 125 93 c 2
 125 599 l 2
 125 655 123 657 35 663 c 1x9c
 35 692 l 1
EndSplineSet
Fore
SplineSet
35 0 m 1
 35 29 l 1
 123 35 125 37 125 93 c 2
 125 599 l 2
 125 655 123 657 35 663 c 1
 35 692 l 1
 367 692 l 2
 658 692 731 522 731 358 c 0
 731 179 654 0 347 0 c 2
 35 0 l 1
224 125 m 2
 224 46 241 35 328 35 c 0
 496 35 619 102 619 354 c 0
 619 523 552 657 340 657 c 0
 233 657 224 652 224 600 c 2
 224 125 l 2
EndSplineSet
EndChar

StartChar: E
Encoding: 69 69 37
Width: 606
Flags: W
HStem: 0 35<35 120.879 237.523 476.804> 341 38<224 440.277> 657 35<35 120.879 225.281 460.85>
VStem: 125 99<46.7871 341 379 654.336> 462 30<254 312.477 407.313 465> 510 30<528 595.165> 547 30<119.031 173>
LayerCount: 2
Fore
SplineSet
35 0 m 1
 35 29 l 1
 123 35 125 37 125 93 c 2
 125 599 l 2
 125 655 123 657 35 663 c 1
 35 692 l 1
 540 692 l 1
 540 528 l 1
 510 528 l 1
 496 632 473 657 359 657 c 2
 261 657 l 2
 229 657 224 653 224 621 c 2
 224 379 l 1
 364 379 l 2
 449 379 453 403 462 465 c 1
 492 465 l 1
 492 254 l 1
 462 254 l 1
 453 317 449 341 364 341 c 2
 224 341 l 1
 224 120 l 2
 224 71 228 54 249 45 c 0
 270 37 306 35 353 35 c 0
 479 35 524 51 547 173 c 1
 577 173 l 1
 565 0 l 1
 35 0 l 1
EndSplineSet
EndChar

StartChar: F
Encoding: 70 70 38
Width: 580
Flags: W
HStem: 0 29<35 114.046 237.135 330> 327 38<224 440.277> 657 35<35 120.879 224.981 463.464>
VStem: 125 99<38.8129 327 365 654.343> 462 30<239 298.268 393.732 453> 513 30<532 597.609>
LayerCount: 2
Fore
SplineSet
35 0 m 1
 35 29 l 1
 123 35 125 37 125 93 c 2
 125 599 l 2
 125 655 123 657 35 663 c 1
 35 692 l 1
 543 692 l 1
 543 532 l 1
 513 532 l 1
 499 634 476 657 360 657 c 2
 261 657 l 2
 228 657 224 654 224 621 c 2
 224 365 l 1
 364 365 l 2
 449 365 453 389 462 453 c 1
 492 453 l 1
 492 239 l 1
 462 239 l 1
 453 303 449 327 364 327 c 2
 224 327 l 1
 224 93 l 2
 224 37 227 35 330 29 c 1
 330 0 l 1
 35 0 l 1
EndSplineSet
EndChar

StartChar: G
Encoding: 71 71 39
Width: 734
Flags: W
HStem: -15 35<329.965 526.481> 286 29<449 538.537 665.665 725> 672 35<321.887 513.205>
VStem: 48 112<204.37 480.113> 555 99<40.9005 273.702> 615 30<509 561.748>
LayerCount: 2
Fore
SplineSet
48 333 m 0xf8
 48 437 72 517 123 584 c 0
 180 658 280 707 430 707 c 0
 510 707 596 690 645 666 c 1
 645 509 l 1
 615 509 l 1xf4
 594 622 530 672 420 672 c 0
 223 672 160 507 160 349 c 0
 160 224 203 20 433 20 c 0
 467 20 495 25 521 35 c 0
 542 43 555 54 555 89 c 2
 555 224 l 2
 555 273 550 279 449 286 c 1
 449 315 l 1
 725 315 l 1
 725 286 l 1
 659 279 654 274 654 224 c 2
 654 27 l 1
 591 7 494 -15 424 -15 c 0
 336 -15 248 -4 172 49 c 0
 99 101 48 204 48 333 c 0xf8
EndSplineSet
EndChar

StartChar: H
Encoding: 72 72 40
Width: 798
Flags: HMW
HStem: 0 29<35 314 35 35> 341 38<224 574 224 574> 663 29<35 314 35 314>
VStem: 125 99<93 341 379 599> 574 99<93 341 341 341 379 599>
CounterMasks: 1 e0
LayerCount: 2
Fore
SplineSet
35 0 m 1
 35 29 l 1
 123 35 125 37 125 93 c 2
 125 599 l 2
 125 655 123 657 35 663 c 1
 35 692 l 1
 314 692 l 1
 314 663 l 1
 227 657 224 655 224 599 c 2
 224 379 l 1
 574 379 l 1
 574 599 l 2
 574 655 572 657 484 663 c 1
 484 692 l 1
 763 692 l 1
 763 663 l 1
 676 657 673 655 673 599 c 2
 673 93 l 2
 673 37 676 35 763 29 c 1
 763 0 l 1
 484 0 l 1
 484 29 l 1
 572 35 574 37 574 93 c 2
 574 341 l 1
 224 341 l 1
 224 93 l 2
 224 37 227 35 314 29 c 1
 314 0 l 1
 35 0 l 1
EndSplineSet
EndChar

StartChar: I
Encoding: 73 73 41
Width: 349
Flags: HMW
HStem: 0 29<35 314 35 35> 663 29<35 314 35 314>
VStem: 125 99<93 599>
LayerCount: 2
Fore
SplineSet
35 0 m 1
 35 29 l 1
 123 35 125 37 125 93 c 2
 125 599 l 2
 125 655 123 657 35 663 c 1
 35 692 l 1
 314 692 l 1
 314 663 l 1
 227 657 224 655 224 599 c 2
 224 93 l 2
 224 37 227 35 314 29 c 1
 314 0 l 1
 35 0 l 1
EndSplineSet
EndChar

StartChar: J
Encoding: 74 74 42
Width: 350
Flags: HMW
HStem: 663 29<44 323 44 323>
VStem: 134 99<137 143 143 599>
LayerCount: 2
Fore
SplineSet
0 -89 m 1
 35 -80 71 -63 93 -37 c 0
 117 -8 134 40 134 137 c 2
 134 599 l 2
 134 655 132 657 44 663 c 1
 44 692 l 1
 323 692 l 1
 323 663 l 1
 236 657 233 655 233 599 c 2
 233 143 l 2
 233 41 221 -42 131 -83 c 0
 92 -101 44 -112 5 -114 c 1
 0 -89 l 1
EndSplineSet
EndChar

StartChar: K
Encoding: 75 75 43
Width: 658
Flags: HW
HStem: -5 24<667 667> 0 29<35 314 35 35> 663 29<35 314 35 314>
VStem: 125 99<93 357 363 599> 483 188
LayerCount: 2
Fore
SplineSet
35 0 m 1x78
 35 29 l 1x78
 123 35 125 37 125 93 c 2
 125 599 l 2
 125 655 123 657 35 663 c 1
 35 692 l 1
 314 692 l 1
 314 663 l 1
 227 657 224 655 224 599 c 2
 224 363 l 1
 296 437 409 555 467 620 c 0
 489 646 487 658 466 660 c 2
 428 663 l 1
 428 692 l 1
 671 692 l 1
 671 663 l 1
 586 658 566 647 514 601 c 0
 453 548 376 472 310 399 c 1
 378 297 462 196 551 101 c 0
 594 56 626 28 667 19 c 1
 667 -5 l 1xb8
 604 -2 l 2
 542 0 489 18 431 84 c 0
 353 172 284 266 227 353 c 1
 226 357 l 1
 224 357 l 1
 224 93 l 2
 224 37 227 35 314 29 c 1
 314 0 l 1
 35 0 l 1x78
EndSplineSet
EndChar

StartChar: L
Encoding: 76 76 44
Width: 568
Flags: W
HStem: 0 35<35 120.879 237.523 466.358> 663 29<35 114.046 235.999 320>
VStem: 125 99<46.7871 653.779> 536 30<121.378 179>
LayerCount: 2
Fore
SplineSet
35 0 m 1
 35 29 l 1
 123 35 125 37 125 93 c 2
 125 599 l 2
 125 655 123 657 35 663 c 1
 35 692 l 1
 320 692 l 1
 320 663 l 1
 227 657 224 655 224 599 c 2
 224 120 l 2
 224 71 228 54 249 45 c 0
 270 37 306 35 356 35 c 0
 461 35 516 48 536 179 c 1
 566 179 l 1
 554 0 l 1
 35 0 l 1
EndSplineSet
EndChar

StartChar: M
Encoding: 77 77 45
Width: 944
Flags: W
HStem: 0 29<34 271 34 34> 663 29<33 236>
VStem: 123 46<203 599 599 600> 720 99<93 599>
DStem2: 236 692 171 600 0.401799 -0.915728<58.13 582.506> 473 159 456 12 0.405706 0.914004<0 502.068>
LayerCount: 2
Fore
SplineSet
34 0 m 1
 34 29 l 1
 86 33 110 37 116 79 c 0
 121 112 123 150 123 203 c 2
 123 599 l 2
 123 655 121 657 33 663 c 1
 33 692 l 1
 236 692 l 1
 272 603 314 515 353 426 c 2
 471 159 l 1
 473 159 l 1
 593 427 l 2
 633 515 674 603 708 692 c 1
 909 692 l 1
 909 663 l 1
 822 657 819 655 819 599 c 2
 819 93 l 2
 819 37 822 35 909 29 c 1
 909 0 l 1
 630 0 l 1
 630 29 l 1
 718 35 720 37 720 93 c 2
 720 600 l 1
 717 600 l 1
 456 12 l 1
 429 12 l 1
 171 600 l 1
 169 600 l 1
 169 203 l 2
 169 150 171 112 176 79 c 0
 182 37 206 34 271 29 c 1
 271 0 l 1
 34 0 l 1
EndSplineSet
EndChar

StartChar: N
Encoding: 78 78 46
Width: 780
Flags: HW
HStem: 0 29<35 272 35 35> 663 29<34 226>
VStem: 124 46<203 599 599 602> 618 46<138 489 0 515.5>
LayerCount: 2
Back
SplineSet
34 663 m 1
 34 692 l 1
 226 692 l 1
 355 508 485 324 616 140 c 1
 618 138 l 1
 618 489 l 2
 618 542 616 580 611 613 c 0
 605 655 581 658 516 663 c 1
 516 692 l 1
 753 692 l 1
 753 663 l 1
 701 659 677 655 671 613 c 0
 666 580 664 542 664 489 c 2
 664 0 l 1
 598 0 l 1
 457 201 315 401 172 602 c 1
 170 602 l 1
 170 203 l 2
 170 150 172 112 177 79 c 0
 183 37 207 34 272 29 c 1
 272 0 l 1
 35 0 l 1
 35 29 l 1
 87 33 111 37 117 79 c 0
 122 112 124 150 124 203 c 2
 124 599 l 2
 124 655 122 657 34 663 c 1
EndSplineSet
Fore
SplineSet
35 0 m 1
 35 29 l 1
 87 33 111 37 117 79 c 0
 122 112 124 150 124 203 c 2
 124 599 l 2
 124 655 122 657 34 663 c 1
 34 692 l 1
 226 692 l 1
 355 508 485 324 616 140 c 1
 618 138 l 1
 618 489 l 2
 618 542 616 580 611 613 c 0
 605 655 581 658 516 663 c 1
 516 692 l 1
 753 692 l 1
 753 663 l 1
 701 659 677 655 671 613 c 0
 666 580 664 542 664 489 c 2
 664 0 l 1
 598 0 l 1
 457 201 315 401 172 602 c 1
 170 602 l 1
 170 203 l 2
 170 150 172 112 177 79 c 0
 183 37 207 34 272 29 c 1
 272 0 l 1
 35 0 l 1
EndSplineSet
EndChar

StartChar: O
Encoding: 79 79 47
Width: 762
Flags: W
HStem: -15 35<294.647 467.353> 672 35<294.647 467.353>
VStem: 48 112<198.553 493.447> 602 112<198.553 493.447>
LayerCount: 2
Back
SplineSet
381 672 m 0
 203 672 162 493 160 346 c 0
 162 199 203 20 381 20 c 0
 559 20 600 199 602 346 c 0
 600 493 559 672 381 672 c 0
381 707 m 0
 492 707 573 673 629 610 c 0
 684 550 714 459 714 346 c 0
 714 234 684 142 629 82 c 0
 573 19 492 -15 381 -15 c 0
 271 -15 189 19 133 82 c 0
 79 142 48 234 48 346 c 0
 48 459 79 550 133 610 c 0
 189 673 271 707 381 707 c 0
EndSplineSet
Fore
SplineSet
48 346 m 0
 48 458 79 550 133 610 c 0
 189 673 271 707 381 707 c 0
 491 707 573 673 629 610 c 0
 683 550 714 458 714 346 c 0
 714 234 683 142 629 82 c 0
 573 19 491 -15 381 -15 c 0
 271 -15 189 19 133 82 c 0
 79 142 48 234 48 346 c 0
160 346 m 0
 160 199 203 20 381 20 c 0
 559 20 602 199 602 346 c 0
 602 493 559 672 381 672 c 0
 203 672 160 493 160 346 c 0
EndSplineSet
EndChar

StartChar: P
Encoding: 80 80 48
Width: 600
Flags: W
HStem: 0 29<35 114.046 237.135 330> 284 35<227.266 381.756> 657 35<35 120.879 228.034 383.654>
VStem: 125 99<38.8129 284 322.203 651.911> 466 108<402.107 582.642>
LayerCount: 2
Fore
SplineSet
35 0 m 1
 35 29 l 1
 123 35 125 37 125 93 c 2
 125 599 l 2
 125 655 123 657 35 663 c 1
 35 692 l 1
 314 692 l 2
 384 692 448 682 496 652 c 0
 541 624 574 572 574 496 c 0
 574 371 486 317 409 297 c 0
 372 288 327 284 281 284 c 2
 224 284 l 1
 224 93 l 2
 224 37 227 35 330 29 c 1
 330 0 l 1
 35 0 l 1
224 358 m 2
 224 321 239 319 298 319 c 0
 384 319 466 364 466 489 c 0
 466 598 403 657 300 657 c 0
 235 657 224 648 224 620 c 2
 224 358 l 2
EndSplineSet
EndChar

StartChar: Q
Encoding: 81 81 49
Width: 762
Flags: MW
HStem: -193 34<540 652> -13 33<342 381> 672 35<326 436.5 326 470>
VStem: 48 112<346 346> 602 112<346 346>
LayerCount: 2
Back
SplineSet
48 346 m 0
 48 459 79 550 133 610 c 0
 189 673 271 707 381 707 c 0
 492 707 573 673 629 610 c 0
 684 550 714 459 714 346 c 0
 714 234 684 142 629 82 c 0
 587 35 532 4 460 -8 c 1
 471 -28 492 -57 518 -85 c 0
 574 -146 623 -159 648 -159 c 0
 656 -159 664 -159 674 -158 c 1
 677 -174 l 1
 656 -187 628 -193 593 -193 c 0
 487 -193 394 -120 342 -13 c 1
 252 -7 182 26 133 82 c 0
 79 142 48 234 48 346 c 0
160 346 m 0
 162 199 203 20 381 20 c 0
 559 20 600 199 602 346 c 0
 600 493 559 672 381 672 c 0
 203 672 162 493 160 346 c 0
EndSplineSet
Fore
SplineSet
48 346 m 0
 48 459 79 550 133 610 c 0
 189 673 271 707 381 707 c 0
 492 707 573 673 629 610 c 0
 684 550 714 459 714 346 c 0
 714 234 684 142 629 82 c 0
 587 35 532 4 460 -8 c 1
 471 -28 492 -57 518 -85 c 0
 574 -146 623 -159 648 -159 c 0
 656 -159 664 -159 674 -158 c 1
 677 -174 l 1
 656 -187 628 -193 593 -193 c 0
 487 -193 394 -120 342 -13 c 1
 252 -7 182 26 133 82 c 0
 79 142 48 234 48 346 c 0
160 346 m 0
 160 199 203 20 381 20 c 0
 559 20 602 199 602 346 c 0
 602 493 559 672 381 672 c 0
 203 672 160 493 160 346 c 0
EndSplineSet
EndChar

StartChar: R
Encoding: 82 82 50
Width: 644
Flags: HW
HStem: 0 29<35 314 35 35> 326 35<224 293 224 303> 657 35<264 327 327 334> 663 29<35 327>
VStem: 125 99<93 326 361 599 599 607> 455 107<473.5 569 473.5 571>
LayerCount: 2
Back
SplineSet
35 0 m 1
 35 29 l 1
 123 35 125 37 125 93 c 2
 125 599 l 2
 125 655 123 657 35 663 c 1xdc
 35 692 l 1
 327 692 l 2
 502 692 562 617 562 521 c 0
 562 426 493 363 399 345 c 1
 399 343 l 1
 505 317 523 250 535 161 c 0
 544 93 560 37 638 29 c 1
 638 0 l 1
 557 0 l 2
 498 0 460 22 445 86 c 0
 434 132 423 211 416 239 c 0
 399 307 353 326 293 326 c 2xec
 224 326 l 1
 224 93 l 2
 224 37 212 35 299 29 c 1
 299 0 l 1
 35 0 l 1
224 361 m 1
 303 361 l 2
 400 361 455 407 455 512 c 0
 455 630 371 657 297 657 c 0
 231 657 224 649 224 607 c 2xec
 224 361 l 1
EndSplineSet
Fore
SplineSet
35 0 m 1xec
 35 29 l 1
 123 35 125 37 125 93 c 2
 125 599 l 2
 125 655 123 657 35 663 c 1
 35 692 l 1xdc
 327 692 l 2
 502 692 562 617 562 521 c 0
 562 426 493 363 399 345 c 1
 399 343 l 1
 505 317 523 250 535 161 c 0
 544 93 560 37 638 29 c 1
 638 0 l 1
 557 0 l 2
 498 0 460 22 445 86 c 0
 434 132 423 211 416 239 c 0
 399 307 353 326 293 326 c 2
 224 326 l 1
 224 93 l 2
 224 50 224 49 227 45 c 0
 234 33 257 33 299 29 c 1
 299 0 l 1
 35 0 l 1xec
224 361 m 1
 303 361 l 2
 400 361 455 407 455 512 c 0
 455 630 371 657 297 657 c 0xec
 231 657 224 649 224 607 c 2
 224 361 l 1
EndSplineSet
EndChar

StartChar: S
Encoding: 83 83 51
Width: 541
Flags: W
HStem: -15 35<191.986 338.928> 672 35<209.555 354.586>
VStem: 50 32<155.486 205> 61 91<485.243 604.211> 407 97<96.3613 225.41> 430 31<522 580.848>
LayerCount: 2
Fore
SplineSet
50 205 m 1xe8
 82 205 l 1
 107 93 169 20 263 20 c 0
 352 20 407 72 407 158 c 0xe8
 407 247 312 293 268 310 c 2
 250 317 l 2
 145 354 61 409 61 514 c 0
 61 646 169 707 291 707 c 0
 359 707 427 690 461 663 c 1
 461 522 l 1
 430 522 l 1
 414 623 366 672 280 672 c 0
 196 672 152 618 152 545 c 0xd4
 152 485 208 442 275 417 c 2
 307 405 l 2
 424 362 504 306 504 188 c 0
 504 86 434 -15 257 -15 c 0
 187 -15 104 4 60 45 c 1
 50 205 l 1xe8
EndSplineSet
EndChar

StartChar: T
Encoding: 84 84 52
Width: 621
Flags: W
HStem: 0 29<151 247.41 373.59 470> 657 35<98.6473 261 360 522.353>
VStem: 22 30<526 598.769> 261 99<39.4351 657> 569 30<526 598.769>
CounterMasks: 1 38
LayerCount: 2
Fore
SplineSet
22 526 m 1
 22 692 l 1
 599 692 l 1
 599 526 l 1
 569 526 l 1
 557 635 536 657 419 657 c 2
 360 657 l 1
 360 93 l 2
 360 37 363 35 470 29 c 1
 470 0 l 1
 151 0 l 1
 151 29 l 1
 258 35 261 37 261 93 c 2
 261 657 l 1
 202 657 l 2
 85 657 64 635 52 526 c 1
 22 526 l 1
EndSplineSet
EndChar

StartChar: U
Encoding: 85 85 53
Width: 791
Flags: HMW
HStem: -15 35<366.5 424 366.5 444.5> 663 29<29 308 29 308>
VStem: 119 99<253 275 275 599> 573 99<275 599>
LayerCount: 2
Back
SplineSet
29 663 m 1
 29 692 l 1
 308 692 l 1
 308 663 l 1
 221 657 218 655 218 599 c 2
 218 275 l 2
 218 180 233 120 263 80 c 0
 294 40 338 20 395 20 c 0
 453 20 497 40 528 80 c 0
 558 120 573 180 573 275 c 2
 573 599 l 2
 573 655 571 657 483 663 c 1
 483 692 l 1
 762 692 l 1
 762 663 l 1
 675 657 672 655 672 599 c 2
 672 255 l 2
 672 195 662 142 645 107 c 0
 599 8 494 -15 395 -15 c 0
 297 -15 192 9 146 107 c 0
 129 141 120 194 119 253 c 2
 119 599 l 2
 119 655 117 657 29 663 c 1
EndSplineSet
Fore
SplineSet
29 663 m 1
 29 692 l 1
 308 692 l 1
 308 663 l 1
 221 657 218 655 218 599 c 2
 218 275 l 2
 218 180 233 120 263 80 c 0
 294 40 338 20 395 20 c 0
 453 20 497 40 528 80 c 0
 558 120 573 180 573 275 c 2
 573 599 l 2
 573 655 571 657 483 663 c 1
 483 692 l 1
 762 692 l 1
 762 663 l 1
 675 657 672 655 672 599 c 2
 672 255 l 2
 672 195 662 142 645 107 c 0
 599 8 494 -15 395 -15 c 0
 297 -15 192 9 146 107 c 0
 129 141 119 194 119 253 c 2
 119 599 l 2
 119 655 117 657 29 663 c 1
EndSplineSet
EndChar

StartChar: V
Encoding: 86 86 54
Width: 634
Flags: W
HStem: 0 21G<279.938 365.42> 663 29<-18 43.9893 188 240 457 512 615.557 678>
DStem2: 169 622 70 604 0.338112 -0.941106<-29.2588 543.044> 352 108 358 0 0.347845 0.937552<0 513.762>
LayerCount: 2
Fore
SplineSet
-18 663 m 1
 -18 692 l 1
 240 692 l 1
 240 663 l 1
 188 658 l 2
 164 656 161 647 169 622 c 0
 195 542 226 454 257 367 c 2
 350 110 l 1
 352 108 l 1
 456 395 l 2
 492 495 523 583 534 627 c 0
 539 646 538 656 512 658 c 2
 457 663 l 1
 457 692 l 1
 678 692 l 1
 678 663 l 1
 624 660 612 658 591 611 c 0
 567 558 527 456 486 345 c 2
 358 0 l 1
 287 0 l 1
 174 320 l 2
 139 420 102 520 70 604 c 0
 50 657 38 661 -18 663 c 1
EndSplineSet
EndChar

StartChar: W
Encoding: 87 87 55
Width: 940
Flags: MW
HStem: 0 21G<230.671 318.668 613.5 720.602> 663 29<-13 48.4222 188 238 748 810 913.546 977>
DStem2: 167 617 72 598 0.264482 -0.964391<-33.8376 515.272> 305 120 313 0 0.272656 0.962112<0 462.545> 533 674 472 554 0.29178 -0.956486<96.9797 579.204> 705 120 715 0 0.246646 0.969106<0 459.972>
LayerCount: 2
Fore
SplineSet
-13 663 m 1
 -13 692 l 1
 238 692 l 1
 238 663 l 1
 188 658 l 2
 164 656 159 650 167 617 c 0
 207 460 251 292 303 120 c 1
 305 120 l 1
 458 674 l 1
 533 674 l 1
 588 490 645 305 702 120 c 1
 705 120 l 1
 779 406 l 2
 804 500 826 582 832 619 c 0
 836 640 834 654 810 657 c 2
 748 663 l 1
 748 692 l 1
 977 692 l 1
 977 663 l 1
 915 659 904 654 884 596 c 0
 870 558 847 470 815 357 c 2
 715 0 l 1
 639 0 l 1
 588 179 533 363 472 554 c 1
 470 554 l 1
 313 0 l 1
 236 0 l 1
 151 319 l 2
 124 419 95 519 72 598 c 0
 55 657 46 660 -13 663 c 1
EndSplineSet
EndChar

StartChar: X
Encoding: 88 88 56
Width: 624
Flags: MW
HStem: -190 20 0 29<-19 48.4272 156 220 373 428 582.926 657> 663 29<-2 66.1707 208 256 398 446 551.045 619>
VStem: 650 28<-190 -122.049>
DStem2: 88 83 290 305 0.567844 0.823136<92.5293 297.441 419.129 603.437> 324 428 267 345 0.539808 -0.841788<-258.179 0 36.8283 46.7187 86.2661 390.982>
LayerCount: 2
Back
SplineSet
424 0 m 9
 423 35 l 1
 665 35 l 1
 678 -190 l 1
 650 -190 l 1
 626 -40 607 0 424 0 c 9
-19 0 m 1
 -19 29 l 1
 45 35 54 38 88 83 c 0
 129 138 209 261 267 345 c 1
 107 600 l 2
 73 654 61 661 -2 663 c 1
 -2 692 l 1
 256 692 l 1
 256 663 l 1
 208 658 l 2
 189 656 187 644 199 624 c 2
 324 428 l 1
 326 428 l 1
 374 497 418 564 455 626 c 0
 467 646 467 657 446 659 c 2
 398 663 l 1
 398 692 l 1
 619 692 l 1
 619 663 l 1
 560 660 547 655 504 602 c 0
 461 549 403 470 348 389 c 1
 544 86 l 2
 573 40 585 34 657 29 c 1
 657 0 l 1
 373 0 l 1
 373 29 l 1
 428 35 l 2
 447 37 456 45 444 64 c 2
 292 305 l 1
 290 305 l 1
 237 223 188 142 145 63 c 0
 135 47 141 38 156 36 c 2
 220 29 l 1
 220 0 l 1
 -19 0 l 1
EndSplineSet
Fore
SplineSet
-19 0 m 1
 -19 29 l 1
 45 35 54 38 88 83 c 0
 129 138 209 261 267 345 c 1
 107 600 l 2
 73 654 61 661 -2 663 c 1
 -2 692 l 1
 256 692 l 1
 256 663 l 1
 208 658 l 2
 189 656 187 644 199 624 c 2
 324 428 l 1
 326 428 l 1
 374 497 418 564 455 626 c 0
 467 646 467 657 446 659 c 2
 398 663 l 1
 398 692 l 1
 619 692 l 1
 619 663 l 1
 560 660 547 655 504 602 c 0
 461 549 403 470 348 389 c 1
 544 86 l 2
 573 40 585 34 657 29 c 1
 657 0 l 1
 373 0 l 1
 373 29 l 1
 428 35 l 2
 447 37 456 45 444 64 c 2
 292 305 l 1
 290 305 l 1
 237 223 188 142 145 63 c 0
 135 47 141 38 156 36 c 2
 220 29 l 1
 220 0 l 1
 -19 0 l 1
EndSplineSet
EndChar

StartChar: Y
Encoding: 89 89 57
Width: 588
Flags: HMW
HStem: 0 29<150 461 150 150> 663 29<-12 247 -12 247>
VStem: -12 185 256 99<93 242 242 246> 483 149
DStem2: 331 325 77 613 0.464113 -0.885776<-258.388 0>
LayerCount: 2
Fore
SplineSet
-12 663 m 5
 -12 692 l 5
 247 692 l 5
 247 663 l 5
 188 657 l 6
 173 655 169 645 177 627 c 4
 221 531 273 430 331 325 c 5
 333 325 l 5
 386 429 454 566 479 626 c 4
 487 645 485 656 467 658 c 6
 413 663 l 5
 413 692 l 5
 632 692 l 5
 632 663 l 5
 565 660 559 652 525 597 c 4
 494 547 419 407 368 305 c 4
 358 285 355 270 355 246 c 6
 355 93 l 2
 355 38 358 35 461 29 c 1
 461 0 l 1
 150 0 l 1
 150 29 l 1
 253 35 256 38 256 93 c 2
 256 242 l 6
 256 262 252 279 241 300 c 4
 192 399 133 510 77 613 c 4
 55 655 41 661 -12 663 c 5
EndSplineSet
EndChar

StartChar: Z
Encoding: 90 90 58
Width: 610
Flags: HMW
HStem: 0 35<141 343 343 420> 657 35<208.5 277 277 456> 679 13<71 588>
VStem: 71 32<520 692>
DStem2: 9 13 141 35 0.570205 0.821503<93.3401 783.929>
LayerCount: 2
Fore
SplineSet
9 13 m 1xb0
 160 228 310 443 456 657 c 1
 277 657 l 2xd0
 140 657 115 635 103 520 c 1
 71 520 l 1
 71 692 l 1
 582 692 l 1
 588 679 l 1
 437 464 287 250 141 35 c 1
 343 35 l 2
 497 35 544 53 562 178 c 1
 594 178 l 1
 584 0 l 1
 14 0 l 1
 9 13 l 1xb0
EndSplineSet
EndChar

StartChar: bracketleft
Encoding: 91 91 59
Width: 330
Flags: HMW
HStem: -128 27<133 292> 665 27<133 292>
VStem: 133 63<-69.5 -46 -46 610>
LayerCount: 2
Fore
SplineSet
133 -128 m 1
 133 692 l 1
 292 692 l 1
 292 665 l 1
 202 661 196 657 196 610 c 2
 196 -46 l 2
 196 -93 202 -97 292 -101 c 1
 292 -128 l 1
 133 -128 l 1
EndSplineSet
EndChar

StartChar: backslash
Encoding: 92 92 60
Width: 460
Flags: HMW
HStem: -15 21G<302 302 302 369> 687 20G<91 158 158 158>
VStem: 91 278
LayerCount: 2
Fore
SplineSet
91 707 m 1
 158 707 l 1
 369 -15 l 1
 302 -15 l 1
 91 707 l 1
EndSplineSet
EndChar

StartChar: bracketright
Encoding: 93 93 61
Width: 330
Flags: HMW
HStem: -128 27<38 197 38 38> 665 27<38 197>
VStem: 134 63<-46 610 610 633.5>
LayerCount: 2
Fore
SplineSet
38 -101 m 1
 128 -97 134 -93 134 -46 c 2
 134 610 l 2
 134 657 128 661 38 665 c 1
 38 692 l 1
 197 692 l 1
 197 -128 l 1
 38 -128 l 1
 38 -101 l 1
EndSplineSet
EndChar

StartChar: asciicircum
Encoding: 94 94 62
Width: 570
Flags: HW
HStem: 599 69<287 287> 648 20G<252 323 323 323>
VStem: 56 458<228 228>
LayerCount: 2
Fore
SplineSet
56 228 m 1
 252 668 l 1
 323 668 l 1
 514 228 l 1x60
 443 228 l 1
 287 599 l 1xa0
 127 228 l 1
 56 228 l 1
EndSplineSet
EndChar

StartChar: underscore
Encoding: 95 95 63
Width: 500
Flags: HMW
HStem: -125 50<0 500 0 500>
VStem: 0 500<-125 -75 -125 -75>
LayerCount: 2
Fore
SplineSet
0 -75 m 1
 500 -75 l 1
 500 -125 l 1
 0 -125 l 1
 0 -75 l 1
EndSplineSet
EndChar

StartChar: quoteleft
Encoding: 8216 8216 64
Width: 278
Flags: HMW
HStem: 478 270<137 190>
VStem: 72 80<537 639>
LayerCount: 2
Back
SplineSet
190 748 m 1
 207 732 l 1
 176 696 152 658 152 620 c 0
 152 583 185 562 185 526 c 0
 185 499 167 478 137 478 c 0
 104 477 72 510 72 564 c 0
 72 635 140 702 190 748 c 1
EndSplineSet
Fore
SplineSet
72 564 m 0
 72 635 140 702 190 748 c 1
 207 732 l 1
 176 696 152 658 152 620 c 0
 152 583 185 562 185 526 c 0
 185 499 167 478 137 478 c 0
 104 478 72 510 72 564 c 0
EndSplineSet
EndChar

StartChar: a
Encoding: 97 97 65
Width: 523
Flags: HMW
HStem: -12 53<146 261.5> 467 35<238 277.5>
VStem: 49 101<114.5 153.5> 343 90<143 284 284 284 325 367 367 369>
LayerCount: 2
Back
SplineSet
49 130 m 0
 49 177 70 227 142 249 c 0
 221 274 318 299 343 325 c 1
 343 367 l 2
 343 447 297 467 258 467 c 0
 218 467 177 443 155 369 c 0
 150 352 144 341 123 341 c 0
 104 341 67 356 67 388 c 0
 67 443 156 502 269 502 c 0
 420 502 433 427 433 369 c 2
 433 127 l 2
 433 64 450 45 468 41 c 0
 483 37 505 39 519 42 c 1
 525 18 l 1
 487 -1 444 -12 407 -12 c 0
 372 -12 356 11 342 48 c 1
 310 27 255 -10 193 -12 c 0
 99 -12 49 55 49 130 c 0
150 144 m 0
 150 85 180 41 242 41 c 0
 281 41 343 62 343 143 c 2
 343 284 l 1
 321 270 268 251 228 236 c 0
 172 215 150 191 150 144 c 0
EndSplineSet
Fore
SplineSet
49 130 m 0
 49 177 70 227 142 249 c 0
 221 274 318 299 343 325 c 1
 343 367 l 2
 343 447 297 467 258 467 c 0
 218 467 177 443 155 369 c 0
 150 352 144 341 123 341 c 0
 104 341 67 356 67 388 c 0
 67 443 156 502 269 502 c 0
 420 502 433 427 433 369 c 2
 433 127 l 2
 433 64 450 45 468 41 c 0
 483 37 505 39 519 42 c 1
 525 18 l 1
 487 -1 444 -12 407 -12 c 0
 372 -12 356 11 342 48 c 1
 310 27 251 -12 193 -12 c 0
 99 -12 49 55 49 130 c 0
150 144 m 0
 150 85 180 41 242 41 c 0
 281 41 343 62 343 143 c 2
 343 284 l 1
 321 270 268 251 228 236 c 0
 172 215 150 191 150 144 c 0
EndSplineSet
EndChar

StartChar: b
Encoding: 98 98 66
Width: 598
Flags: W
HStem: -12 35<237.49 367.599> 448 54<267.077 380.208> 692 25<20 58> 722 20G<51.4 184> 722 20G<51.4 184>
VStem: 90 94<70.5311 396.719 431 686.329> 445 104<127.73 372.238>
LayerCount: 2
Fore
SplineSet
20 692 m 1xf6
 20 717 l 1
 177 742 l 1
 184 736 l 1
 184 431 l 1
 221 453 280 502 356 502 c 0
 536 502 549 318 549 256 c 0
 549 52 433 -12 300 -12 c 0
 225 -12 183 7 148 27 c 1
 108 -12 l 1
 90 -4 l 1
 90 642 l 2
 90 680 84 685 58 688 c 2
 20 692 l 1xf6
184 163 m 2
 184 139 185 118 191 100 c 0
 209 50 248 23 301 23 c 0
 400 23 445 103 445 250 c 0
 445 424 357 448 316 448 c 0
 260 448 218 426 194 378 c 0
 186 362 184 346 184 321 c 2
 184 163 l 2
EndSplineSet
EndChar

StartChar: c
Encoding: 99 99 67
Width: 496
Flags: HMW
HStem: -12 52<240.5 316> 467 35<246.5 304>
VStem: 49 104<211 306.5>
LayerCount: 2
Fore
SplineSet
49 240 m 0
 49 373 110 502 292 502 c 0
 400 502 466 451 466 405 c 0
 466 367 427 354 407 354 c 0
 388 354 382 364 376 380 c 0
 356 434 327 467 281 467 c 0
 212 467 153 407 153 258 c 0
 153 164 181 40 300 40 c 0
 373 40 413 76 444 146 c 1
 473 132 l 1
 445 25 351 -12 281 -12 c 0
 131 -12 49 73 49 240 c 0
EndSplineSet
EndChar

StartChar: d
Encoding: 100 100 68
Width: 598
Flags: W
HStem: -12 54<223.317 342.912> 0 29<516.325 583> 467 35<235.578 365.633> 692 25<344 382> 722 20G<375.4 508> 722 20G<375.4 508>
VStem: 49 104<127.962 357.262> 414 94<35.6418 56 88.0459 425.039 478 686.329>
LayerCount: 2
Fore
SplineSet
49 235 m 0xb3
 49 322 75 388 118 433 c 0
 160 476 221 502 303 502 c 0
 349 502 386 493 414 478 c 1
 414 642 l 2
 414 680 408 685 382 688 c 2
 344 692 l 1
 344 717 l 1
 501 742 l 1
 508 736 l 1
 508 87 l 2
 508 36 512 34 583 29 c 1
 583 0 l 1
 421 0 l 1x7b
 413 7 l 1
 413 56 l 1
 359 12 312 -12 258 -12 c 0
 126 -12 49 87 49 235 c 0xb3
153 247 m 0
 153 132 199 42 291 42 c 0xb3
 343 42 387 62 407 114 c 0
 413 131 414 148 414 170 c 2
 414 346 l 2
 414 373 413 387 405 404 c 0
 387 445 349 467 302 467 c 0
 200 467 153 377 153 247 c 0
EndSplineSet
EndChar

StartChar: e
Encoding: 101 101 69
Width: 514
Flags: W
HStem: -12 51<223.856 377.18> 263 38<154 375.625> 467 35<217.391 328.674>
VStem: 49 104<124.423 263 301 368.002> 377 104<284.5 403.397>
CounterMasks: 1 e0
LayerCount: 2
Back
SplineSet
49 241 m 0
 49 391 123 502 279 502 c 0
 462 502 481 360 481 301 c 0
 481 268 462 263 441 263 c 2
 153 263 l 1
 151 159 176 39 300 39 c 0
 379 39 417 87 445 145 c 1
 475 129 l 1
 448 50 391 -11 280 -12 c 0
 117 -14 49 83 49 241 c 0
154 301 m 1
 343 301 l 2
 371 301 377 314 377 333 c 0
 377 372 366 467 273 467 c 0
 169 467 154 342 154 301 c 1
EndSplineSet
Fore
SplineSet
49 241 m 0
 49 391 123 502 279 502 c 0
 462 502 481 360 481 301 c 0
 481 268 462 263 441 263 c 2
 153 263 l 1
 151 159 176 39 300 39 c 0
 379 39 417 87 445 145 c 1
 475 129 l 1
 448 50 391 -12 280 -12 c 0
 117 -12 49 83 49 241 c 0
154 301 m 1
 343 301 l 2
 371 301 377 314 377 333 c 0
 377 372 366 467 273 467 c 0
 169 467 154 342 154 301 c 1
EndSplineSet
EndChar

StartChar: f
Encoding: 102 102 70
Width: 319
Flags: HMW
HStem: 0 29<32 296 32 32> 450 40<30 107 30 107 201 323> 707 35<239.5 255.5>
VStem: 107 94<87 450>
LayerCount: 2
Fore
SplineSet
30 450 m 1
 30 490 l 1
 107 490 l 1
 107 525 l 2
 107 591 117 644 140 679 c 0
 165 717 212 742 267 742 c 0
 347 742 389 702 389 669 c 0
 389 639 360 622 340 622 c 0
 325 622 318 629 313 639 c 0
 288 697 266 707 245 707 c 0
 229 707 194 697 197 602 c 2
 201 490 l 1
 323 490 l 1
 323 450 l 1
 201 450 l 1
 201 86 l 2
 201 35 205 33 296 29 c 1
 296 0 l 1
 32 0 l 1
 32 29 l 1
 104 34 107 36 107 87 c 2
 107 450 l 1
 30 450 l 1
EndSplineSet
EndChar

StartChar: g
Encoding: 103 103 71
Width: 520
Flags: HW
HStem: -242 35<238.5 288> 7 75<247 315> 171 35<248.5 287 230 301.5> 467 35<233.5 283 183.5 284.5>
VStem: 42 95<-127 -74 -127 -60> 53 102<292 371> 69 83<76.5 139.5> 360 96<292 355 273.5 382.5> 424 84<-95 -51.5>
CounterMasks: 1 f0
LayerCount: 2
Fore
SplineSet
42 -96 m 0xf880
 42 -24 114 0 157 14 c 1
 157 16 l 1
 109 21 69 59 69 94 c 0
 69 133 107 162 161 183 c 1
 161 185 l 1
 115 197 53 240 53 334 c 0xf5
 53 408 107 502 260 502 c 0
 306 502 361 490 389 471 c 1
 517 512 l 1
 525 503 l 1
 505 440 l 1
 426 428 l 1
 443 411 456 376 456 334 c 0
 456 213 349 171 254 171 c 0
 243 171 222 172 203 174 c 1
 190 170 152 154 152 125 c 0
 152 106 163 82 235 82 c 2xf3
 315 82 l 2
 422 82 508 44 508 -64 c 0
 508 -126 475 -173 429 -201 c 0
 381 -230 318 -242 258 -242 c 0
 142 -242 42 -197 42 -96 c 0xf880
137 -91 m 0
 137 -163 196 -207 281 -207 c 0xf880
 352 -207 424 -169 424 -89 c 0
 424 -14 359 7 271 7 c 0
 223 7 190 1 168 -16 c 0
 147 -32 137 -57 137 -91 c 0
155 334 m 0
 155 250 202 206 258 206 c 0
 316 206 360 250 360 334 c 0
 360 431 309 467 260 467 c 0xf5
 207 467 155 433 155 334 c 0
EndSplineSet
EndChar

StartChar: h
Encoding: 104 104 72
Width: 607
Flags: HMW
HStem: 0 29<21 264 21 21> 448 54<332.5 352> 722 20G<181 181>
VStem: 95 94<87 321> 423 94<87 323 323 343>
LayerCount: 2
Back
SplineSet
21 0 m 1
 21 29 l 1
 91 34 96 38 95 87 c 2
 95 642 l 2
 95 678 89 683 63 687 c 2
 25 692 l 1
 25 717 l 1
 181 742 l 1
 188 736 l 5
 188 426 l 5
 251 468 296 502 369 502 c 4
 462 502 517 444 517 343 c 6
 517 87 l 6
 517 38 523 34 592 29 c 5
 592 0 l 5
 348 0 l 5
 348 29 l 5
 418 34 423 38 423 87 c 6
 423 323 l 6
 423 410 386 448 318 448 c 4
 265 448 219 415 198 375 c 4
 190 360 189 346 189 321 c 6
 189 87 l 6
 189 38 195 34 264 29 c 5
 264 0 l 5
 21 0 l 1
EndSplineSet
Fore
SplineSet
21 0 m 1
 21 29 l 1
 91 34 95 38 95 87 c 2
 95 642 l 2
 95 678 89 683 63 687 c 2
 25 692 l 1
 25 717 l 1
 181 742 l 1
 188 736 l 1
 188 426 l 1
 251 468 296 502 369 502 c 0
 462 502 517 444 517 343 c 2
 517 87 l 2
 517 38 523 34 592 29 c 1
 592 0 l 1
 348 0 l 1
 348 29 l 1
 418 34 423 38 423 87 c 2
 423 323 l 2
 423 410 386 448 318 448 c 0
 265 448 219 415 198 375 c 0
 190 360 189 346 189 321 c 2
 189 87 l 2
 189 38 195 34 264 29 c 1
 264 0 l 1
 21 0 l 1
EndSplineSet
EndChar

StartChar: i
Encoding: 105 105 73
Width: 291
Flags: W
HStem: 0 29<32 99.0117 209.325 276> 452 25<37 75> 482 20<68.4 201> 593 122<105.183 200.817>
VStem: 92 122<606.183 701.817> 107 94<35.6418 444.937>
LayerCount: 2
Back
SplineSet
92 653 m 0xf8
 92 689 117 715 153 715 c 0
 190 715 214 689 214 653 c 0
 213 618 190 593 153 593 c 0
 117 593 92 618 92 653 c 0xf8
EndSplineSet
Refer: 144 305 N 1 0 0 1 0 0 2
Fore
Refer: 546 -1 S 1 0 0 1 0 0 2
Refer: 144 305 N 1 0 0 1 0 0 3
EndChar

StartChar: j
Encoding: 106 106 74
Width: 280
Flags: W
HStem: -242 24<-31 5.58278> 452 25<36 74> 482 20<67.4 200> 593 122<105.183 200.817>
VStem: 92 122<606.183 701.817> 106 94<-129.337 444.814>
LayerCount: 2
Back
SplineSet
92 653 m 0xf8
 92 689 117 715 153 715 c 0
 190 715 214 689 214 653 c 0
 213 618 190 593 153 593 c 0
 117 593 92 618 92 653 c 0xf8
EndSplineSet
Fore
Refer: 546 -1 N 1 0 0 1 0 0 2
Refer: 227 567 N 1 0 0 1 0 0 3
EndChar

StartChar: k
Encoding: 107 107 75
Width: 524
Flags: W
HStem: 0 29<20 87.0117 197.325 264 492.772 538> 254 14<189 194.72> 462 28<442.173 508> 692 25<25 63> 722 20G<56.4 189> 722 20G<56.4 189>
VStem: 95 94<35.6418 254 268 686.329>
LayerCount: 2
Fore
SplineSet
20 0 m 1xfa
 20 29 l 1
 92 34 95 36 95 87 c 2
 95 642 l 2
 95 680 89 685 63 688 c 2
 25 692 l 1
 25 717 l 1
 182 742 l 1
 189 736 l 1
 189 268 l 1
 191 268 l 1
 214 302 313 426 342 461 c 0
 362 485 371 490 405 490 c 2
 508 490 l 1
 508 462 l 1
 450 456 425 444 391 419 c 0
 357 394 325 365 277 310 c 0
 267 299 269 294 274 287 c 0
 312 233 390 138 452 77 c 0
 483 46 508 31 538 23 c 1
 538 -5 l 1
 463 -2 l 2
 431 0 392 12 355 49 c 0
 303 102 232 189 191 254 c 1
 189 254 l 1
 189 87 l 2
 189 36 193 34 264 29 c 1
 264 0 l 1
 20 0 l 1xfa
EndSplineSet
EndChar

StartChar: l
Encoding: 108 108 76
Width: 279
Flags: HMW
HStem: 0 29<20 264 20 20> 722 20G<182 182>
VStem: 95 94<87 642 642 661>
LayerCount: 2
Fore
SplineSet
20 0 m 1
 20 29 l 1
 92 34 95 36 95 87 c 2
 95 642 l 2
 95 680 89 685 63 688 c 2
 25 692 l 1
 25 717 l 1
 182 742 l 1
 189 736 l 1
 189 87 l 2
 189 36 193 34 264 29 c 1
 264 0 l 1
 20 0 l 1
EndSplineSet
EndChar

StartChar: m
Encoding: 109 109 77
Width: 923
Flags: MW
HStem: 0 29<32 276 32 32> 448 54<337.5 370>
VStem: 107 94<87 321> 423 94<87 321> 739 94<87 323 323 343>
CounterMasks: 1 38
LayerCount: 2
Back
SplineSet
32 0 m 1
 32 29 l 1
 104 34 107 36 107 87 c 2
 107 402 l 2
 107 438 101 443 75 447 c 2
 37 452 l 1
 37 477 l 1
 192 502 l 1
 201 426 l 1
 236 452 299 502 376 502 c 0
 446 502 484 472 508 425 c 1
 543 447 602 502 684 502 c 0
 779 502 833 444 833 343 c 2
 833 87 l 2
 833 36 837 34 908 29 c 1
 908 0 l 1
 664 0 l 1
 664 29 l 1
 736 34 739 36 739 87 c 2
 739 323 l 2
 739 410 701 450 638 448 c 0
 582 448 539 416 524 376 c 0
 518 360 517 346 517 321 c 2
 517 87 l 2
 517 36 521 34 592 29 c 1
 592 0 l 1
 348 0 l 1
 348 29 l 1
 420 34 423 36 423 87 c 2
 423 323 l 2
 423 385 413 448 327 448 c 0
 272 448 228 414 209 374 c 0
 202 360 201 346 201 321 c 2
 201 87 l 2
 201 36 205 34 276 29 c 1
 276 0 l 1
 32 0 l 1
EndSplineSet
Fore
SplineSet
32 0 m 1
 32 29 l 1
 104 34 107 36 107 87 c 2
 107 402 l 2
 107 438 101 443 75 447 c 2
 37 452 l 1
 37 477 l 1
 192 502 l 1
 201 426 l 1
 236 452 299 502 376 502 c 0
 446 502 484 472 508 425 c 1
 543 447 602 502 684 502 c 0
 779 502 833 444 833 343 c 2
 833 87 l 2
 833 36 837 34 908 29 c 1
 908 0 l 1
 664 0 l 1
 664 29 l 1
 736 34 739 36 739 87 c 2
 739 323 l 2
 739 412 701 448 638 448 c 0
 582 448 539 416 524 376 c 0
 518 360 517 346 517 321 c 2
 517 87 l 2
 517 36 521 34 592 29 c 1
 592 0 l 1
 348 0 l 1
 348 29 l 1
 420 34 423 36 423 87 c 2
 423 323 l 2
 423 385 413 448 327 448 c 0
 272 448 228 414 209 374 c 0
 202 360 201 346 201 321 c 2
 201 87 l 2
 201 36 205 34 276 29 c 1
 276 0 l 1
 32 0 l 1
EndSplineSet
EndChar

StartChar: n
Encoding: 110 110 78
Width: 619
Flags: HMW
HStem: 0 29<32 276 32 32> 448 54<345 364>
VStem: 107 94<87 321> 435 94<87 323 323 343>
LayerCount: 2
Fore
SplineSet
32 0 m 1
 32 29 l 1
 104 34 107 36 107 87 c 2
 107 402 l 6
 107 438 101 443 75 447 c 6
 37 452 l 5
 37 477 l 5
 186 502 l 5
 200 426 l 5
 262 466 308 502 382 502 c 0
 474 502 529 444 529 343 c 2
 529 87 l 2
 529 36 533 34 604 29 c 1
 604 0 l 1
 360 0 l 1
 360 29 l 1
 432 34 435 36 435 87 c 2
 435 323 l 2
 435 410 398 448 330 448 c 0
 277 448 232 415 211 376 c 0
 203 360 201 346 201 321 c 2
 201 87 l 2
 201 36 205 34 276 29 c 1
 276 0 l 1
 32 0 l 1
EndSplineSet
EndChar

StartChar: o
Encoding: 111 111 79
Width: 577
Flags: W
HStem: -12 35<225.854 352.146> 467 35<225.854 352.146>
VStem: 49 104<118.85 371.15> 425 104<118.85 371.15>
LayerCount: 2
Back
SplineSet
288 502 m 0
 450 502 528 407 528 245 c 0
 528 83 450 -12 288 -12 c 0
 128 -12 49 83 49 245 c 0
 49 407 128 502 288 502 c 0
153 245 m 0
 153 107 197 23 288 23 c 0
 381 23 424 107 424 245 c 0
 424 383 381 467 288 467 c 0
 197 467 153 383 153 245 c 0
EndSplineSet
Fore
SplineSet
49 245 m 0
 49 407 128 502 289 502 c 0
 450 502 529 407 529 245 c 0
 529 83 450 -12 289 -12 c 0
 128 -12 49 83 49 245 c 0
153 245 m 0
 153 107 197 23 289 23 c 0
 381 23 425 107 425 245 c 0
 425 383 381 467 289 467 c 0
 197 467 153 383 153 245 c 0
EndSplineSet
EndChar

StartChar: p
Encoding: 112 112 80
Width: 608
Flags: HMW
HStem: -230 29<25 284 25 25> -12 35<285 359 283 375.5> 448 54<327.5 346>
VStem: 100 94<-143 11 145.5 157 157 321> 455 104<176.5 291.5 153 336>
LayerCount: 2
Fore
SplineSet
25 -201 m 1
 95 -196 100 -194 100 -143 c 2
 100 402 l 2
 100 438 94 443 68 447 c 2
 30 452 l 1
 30 477 l 1
 181 502 l 1
 194 428 l 1
 233 453 291 502 364 502 c 0
 546 502 559 327 559 256 c 0
 559 50 443 -12 308 -12 c 0
 262 -12 215 -1 194 11 c 1
 194 -143 l 2
 194 -194 200 -196 284 -201 c 1
 284 -230 l 1
 25 -230 l 1
 25 -201 l 1
194 157 m 2
 194 134 195 114 201 96 c 0
 217 50 257 23 309 23 c 0
 409 23 455 103 455 250 c 0
 455 422 366 448 326 448 c 0
 273 448 230 424 207 378 c 0
 198 360 194 346 194 321 c 2
 194 157 l 2
EndSplineSet
EndChar

StartChar: q
Encoding: 113 113 81
Width: 591
Flags: HMW
HStem: -230 29<334 583 334 334> -12 54<245.5 285> 467 35<266 324>
VStem: 49 104<189.5 278> 414 94<-143 53 53 53 171 340 340 352>
LayerCount: 2
Fore
SplineSet
49 233 m 0
 49 323 75 388 119 433 c 0
 163 478 226 502 306 502 c 0
 349 502 400 492 438 471 c 1
 481 502 l 1
 508 502 l 1
 508 -143 l 2
 508 -194 514 -196 583 -201 c 1
 583 -230 l 1
 334 -230 l 1
 334 -201 l 1
 409 -196 414 -194 414 -143 c 2
 414 53 l 1
 362 15 313 -12 257 -12 c 0
 136 -12 49 73 49 233 c 0
153 246 m 0
 153 133 196 42 295 42 c 0
 350 42 388 63 407 116 c 0
 413 132 414 149 414 171 c 2
 414 340 l 2
 414 364 412 382 406 398 c 0
 387 449 350 467 298 467 c 0
 196 467 153 369 153 246 c 0
EndSplineSet
EndChar

StartChar: r
Encoding: 114 114 82
Width: 389
Flags: W
HStem: 0 29<32 98.338 211.86 296> 424 78<246.5 355.665> 452 25<37 75>
VStem: 107 94<37.6307 402.859>
LayerCount: 2
Fore
SplineSet
32 0 m 1xd0
 32 29 l 1
 102 34 107 36 107 87 c 2
 107 402 l 2
 107 438 101 443 75 447 c 2
 37 452 l 1
 37 477 l 1xb0
 189 502 l 1
 201 422 l 1
 267 480 297 502 333 502 c 0
 372 502 386 475 386 453 c 0
 386 422 364 397 340 397 c 0
 335 397 327 398 320 402 c 0
 291 418 274 424 258 424 c 0
 235 424 201 398 201 321 c 2
 201 87 l 2
 201 36 207 34 296 29 c 1
 296 0 l 1
 32 0 l 1xd0
EndSplineSet
EndChar

StartChar: s
Encoding: 115 115 83
Width: 436
Flags: W
HStem: -12 35<155.752 280.449> 467 35<167.581 284.926>
VStem: 47 29<122.147 167> 56 80<337.653 432.415> 315 85<60.7761 163.376> 338 29<351 402.46>
LayerCount: 2
Back
SplineSet
47 167 m 1
 76 167 l 1
 96 82 141 23 222 23 c 0
 275 23 315 55 315 106 c 0xf0
 315 174 252 197 207 211 c 0
 124 236 57 273 56 356 c 0
 57 451 130 502 238 502 c 0
 283 502 334 492 367 468 c 1
 367 351 l 1xe8
 338 351 l 1xe8
 331 412 297 467 226 467 c 0
 176 467 137 438 136 386 c 0
 136 330 202 309 243 296 c 0
 346 264 400 224 400 136 c 0
 400 51 332 -12 213 -12 c 0
 154 -12 93 4 57 36 c 1
 47 167 l 1
EndSplineSet
Fore
SplineSet
47 167 m 1xe8
 76 167 l 1
 96 82 141 23 222 23 c 0
 275 23 315 55 315 106 c 0xe8
 315 174 252 197 207 211 c 0
 124 236 56 273 56 356 c 0
 56 451 130 502 238 502 c 0
 283 502 334 492 367 468 c 1
 367 351 l 1
 338 351 l 1
 331 412 297 467 226 467 c 0
 176 467 136 438 136 386 c 0xd4
 136 330 202 309 243 296 c 0
 346 264 400 224 400 136 c 0
 400 51 332 -12 213 -12 c 0
 154 -12 93 4 57 36 c 1
 47 167 l 1xe8
EndSplineSet
EndChar

StartChar: t
Encoding: 116 116 84
Width: 344
Flags: HMW
HStem: -12 52<196.5 275.5> 450 40<31 103 31 107 197 326>
VStem: 103 94<102 140 140 450>
LayerCount: 2
Fore
SplineSet
31 450 m 1
 31 490 l 1
 107 490 l 1
 168 616 l 1
 197 616 l 1
 197 490 l 1
 326 490 l 1
 326 450 l 1
 197 450 l 1
 197 140 l 2
 197 64 229 40 263 40 c 0
 288 40 310 43 334 53 c 1
 342 32 l 1
 313 14 265 -12 214 -12 c 0
 179 -12 103 0 103 102 c 2
 103 450 l 1
 31 450 l 1
EndSplineSet
EndChar

StartChar: u
Encoding: 117 117 85
Width: 606
Flags: W
HStem: -12 54<226.736 331.63> 0 29<524.999 591> 452 25<26 64 352 390> 482 20G<57.4 190 383.4 516>
VStem: 96 94<81.4534 444.937> 422 94<94.8488 444.937>
LayerCount: 2
Fore
SplineSet
26 452 m 5xbc
 26 477 l 5
 183 502 l 5
 190 496 l 5
 190 156 l 2
 190 78 233 42 291 42 c 0xbc
 343 42 391 71 414 117 c 0
 419 127 422 149 422 177 c 2
 422 402 l 2
 422 438 416 443 390 447 c 2
 352 452 l 1
 352 477 l 1
 509 502 l 1
 516 496 l 1
 516 87 l 2
 516 36 522 34 591 29 c 1
 591 0 l 1
 431 0 l 1x7c
 421 60 l 1
 392 46 323 -12 238 -12 c 0
 164 -12 96 23 96 138 c 2
 96 402 l 6
 96 438 90 443 64 447 c 6
 26 452 l 5xbc
EndSplineSet
EndChar

StartChar: v
Encoding: 118 118 86
Width: 504
Flags: W
HStem: 0 21G<216.87 303.355> 461 29<1 53.7394 180 225 339 388 475.072 529>
DStem2: 223 258 147 216 0.343193 -0.939265<-201.864 178.731> 286 90 296 0 0.345166 0.938542<0 378.364>
LayerCount: 2
Fore
SplineSet
1 461 m 1
 1 490 l 1
 225 490 l 1
 225 461 l 1
 180 456 l 2
 161 454 157 446 164 427 c 0
 183 373 203 315 223 258 c 2
 284 90 l 1
 286 90 l 1
 353 275 l 2
 376 339 395 397 403 429 c 0
 407 443 404 454 388 456 c 2
 339 461 l 1
 339 490 l 1
 529 490 l 1
 529 461 l 1
 483 459 472 453 457 418 c 0
 443 386 414 320 385 242 c 2
 296 0 l 1
 224 0 l 1
 147 216 l 2
 122 285 99 350 72 416 c 0
 57 453 48 457 1 461 c 1
EndSplineSet
EndChar

StartChar: w
Encoding: 119 119 87
Width: 768
Flags: W
HStem: 0 21G<171 274.194 492 609> 461 29<-2 49.4219 174 209 595 652 736.635 792>
DStem2: 257 89 268 0 0.285765 0.9583<0 316.687> 449 478 389 381 0.30593 -0.952054<73.9934 408.59>
LayerCount: 2
Fore
SplineSet
-2 461 m 1
 -2 490 l 1
 209 490 l 1
 209 461 l 1
 174 458 l 2
 156 456 150 447 156 428 c 0
 188 320 219 204 255 89 c 1
 257 89 l 1
 373 478 l 1
 449 478 l 1
 490 348 531 219 574 89 c 1
 576 89 l 1
 607 202 653 364 666 423 c 0
 670 441 669 454 652 456 c 2
 595 461 l 1
 595 490 l 1
 792 490 l 1
 792 461 l 1
 742 458 731 454 714 403 c 0
 689 325 630 147 588 0 c 1
 512 0 l 1
 472 127 431 254 389 381 c 1
 386 381 l 1
 268 0 l 1
 192 0 l 1
 150 151 106 286 64 418 c 0
 52 456 39 459 -2 461 c 1
EndSplineSet
EndChar

StartChar: x
Encoding: 120 120 88
Width: 486
Flags: W
HStem: 0 29<1 62.8126 274 274 446.408 509> 461 29<8 62.2588 187 217 297 297 420.154 483>
DStem2: 210 237 232 201 0.559545 0.8288<-179.963 -17.5268 88.5007 251.104> 262 308 210 237 0.557862 -0.829934<-166.633 0 73.1828 259.082>
LayerCount: 2
Fore
SplineSet
1 0 m 1
 1 29 l 1
 45 32 67 37 93 72 c 0
 134 126 173 183 210 237 c 1
 167 301 124 366 82 424 c 0
 58 457 48 459 8 461 c 1
 8 490 l 1
 217 490 l 1
 217 461 l 1
 187 458 l 2
 172 456 170 445 178 433 c 2
 262 308 l 1
 263 308 l 1
 293 354 320 396 343 434 c 0
 350 445 352 455 336 457 c 2
 297 461 l 1
 297 490 l 1
 483 490 l 1
 483 461 l 1
 435 459 422 455 396 423 c 0
 357 376 318 326 285 276 c 1
 329 206 376 136 422 70 c 0
 447 34 464 31 509 29 c 1
 509 0 l 1
 274 0 l 1
 274 29 l 1
 316 34 l 2
 331 36 334 45 323 62 c 2
 234 201 l 1
 232 201 l 1
 198 149 166 101 144 58 c 0
 138 47 137 36 151 34 c 2
 193 29 l 1
 193 0 l 1
 1 0 l 1
EndSplineSet
EndChar

StartChar: y
Encoding: 121 121 89
Width: 506
Flags: W
HStem: -242 73<106 190.03> 461 29<-5 49.0363 336 336 476.287 528>
DStem2: 212 -127 269 -82 0.334408 0.942429<-47.0154 87.1091 231.868 431.241> 289 91 228 7 0.344666 -0.938725<-381.537 0>
LayerCount: 2
Fore
SplineSet
-5 461 m 1
 -5 490 l 1
 224 490 l 1
 224 461 l 1
 181 457 l 2
 158 455 160 444 166 426 c 0
 203 321 243 212 289 91 c 1
 291 91 l 1
 335 211 387 362 402 422 c 0
 407 442 405 454 388 456 c 2
 336 461 l 1
 336 490 l 1
 528 490 l 1
 528 461 l 1
 478 458 472 450 454 410 c 0
 423 340 331 96 269 -82 c 0
 218 -230 167 -242 127 -242 c 0
 85 -242 57 -214 57 -190 c 0
 57 -161 82 -134 101 -134 c 0
 113 -134 121 -139 131 -148 c 0
 149 -166 158 -169 168 -169 c 0
 179 -169 197 -160 212 -127 c 0
 227 -95 236 -65 236 -42 c 0
 236 -25 234 -10 228 7 c 0
 204 76 121 289 71 409 c 0
 53 453 43 459 -5 461 c 1
EndSplineSet
EndChar

StartChar: z
Encoding: 122 122 90
Width: 480
Flags: W
HStem: 0 35<141 373.801> 455 35<135.592 334>
VStem: 61 31<342 403.889> 431 31<97.8497 153>
DStem2: 19 15 141 35 0.582112 0.813109<87.2798 541.133>
LayerCount: 2
Fore
SplineSet
19 15 m 1
 126 162 231 308 334 455 c 1
 234 455 l 2
 126 455 105 434 92 342 c 1
 61 342 l 1
 61 490 l 1
 445 490 l 1
 453 476 l 1
 347 329 242 182 141 35 c 1
 270 35 l 2
 381 35 415 59 431 153 c 1
 462 153 l 1
 452 0 l 1
 27 0 l 1
 19 15 l 1
EndSplineSet
EndChar

StartChar: braceleft
Encoding: 123 123 91
Width: 340
Flags: W
HStem: -128 27<209.5 298 272 298> 267 12 267 30<79 119> 665 27<272 298>
VStem: 79 56<279 285 279 297 279 297> 152 66 165 67
LayerCount: 2
Fore
SplineSet
79 267 m 1xbc
 79 297 l 1
 152 295 172 342 165 411 c 2xb2
 155 505 l 2
 146 588 147 692 272 692 c 2
 298 692 l 1
 298 665 l 1
 215 661 211 606 218 539 c 2xb4
 226 462 l 2
 234 382 253 309 135 285 c 1
 135 279 l 1
 253 255 234 182 226 102 c 2xd2
 218 25 l 2
 211 -42 215 -97 298 -101 c 1
 298 -128 l 1
 272 -128 l 2xb4
 147 -128 146 -24 155 59 c 2
 165 153 l 2xb2
 173 224 159 267 79 267 c 1xbc
EndSplineSet
EndChar

StartChar: bar
Encoding: 124 124 92
Width: 228
Flags: MW
HStem: -250 1000<80 148 80 148>
VStem: 80 68<-250 750 -250 750>
LayerCount: 2
Fore
SplineSet
80 -250 m 1
 80 750 l 1
 148 750 l 1
 148 -250 l 1
 80 -250 l 1
EndSplineSet
EndChar

StartChar: braceright
Encoding: 125 125 93
Width: 340
Flags: HW
HStem: -128 27<42 68 42 42> 267 30<222.5 261> 665 27<42 68>
VStem: 108 67 122 66 205 56<279 285 285 285>
LayerCount: 2
Fore
SplineSet
42 -101 m 1
 125 -97 129 -42 122 25 c 2xe8
 114 102 l 2
 106 182 87 255 205 279 c 1
 205 285 l 1
 87 309 106 382 114 462 c 2xf0
 122 539 l 2
 129 606 125 661 42 665 c 1
 42 692 l 1
 68 692 l 2xe8
 193 692 194 588 185 505 c 2
 175 411 l 2xf0
 167 340 184 297 261 297 c 1xec
 261 267 l 1
 184 267 167 224 175 153 c 2xf0
 185 59 l 2
 194 -24 193 -128 68 -128 c 2
 42 -128 l 1
 42 -101 l 1
EndSplineSet
EndChar

StartChar: asciitilde
Encoding: 126 126 94
Width: 570
Flags: HW
HStem: 191 69<368 397 368 405.5> 237 69<173 205>
VStem: 73 424<200 292>
LayerCount: 2
Fore
SplineSet
73 200 m 1
 97 250 130 306 203 306 c 0x60
 233 306 265 295 296 283 c 0
 327 272 356 260 380 260 c 0
 414 260 428 274 457 317 c 1xe0
 497 292 l 1
 469 231 434 191 377 191 c 0xa0
 348 191 314 203 282 214 c 0
 250 226 218 237 192 237 c 0
 154 237 135 216 114 175 c 1
 73 200 l 1
EndSplineSet
EndChar

StartChar: exclamdown
Encoding: 161 161 95
Width: 242
Flags: HW
HStem: 374 128<101.5 140>
VStem: 58 126<420.5 439> 65 111<-150 -150>
LayerCount: 2
Fore
SplineSet
58 439 m 0
 59 475 82 502 121 502 c 0xc0
 159 502 184 475 184 439 c 0
 184 402 159 374 121 374 c 0
 82 374 58 402 58 439 c 0
65 -150 m 2
 107 281 l 1
 136 281 l 1
 176 -150 l 2
 180 -195 175 -217 121 -217 c 0xe0
 66 -217 61 -195 65 -150 c 2
EndSplineSet
EndChar

StartChar: cent
Encoding: 162 162 96
Width: 530
Flags: HMW
HStem: -10 21G<261 301 261 261> 87 50<189 301 301 301> 564 35<261 261> 655 20G<261 301 301 301>
VStem: 37 98<301 435> 261 40<-10 87 -10 87 140 564 599 675>
LayerCount: 2
Fore
SplineSet
37 346 m 0
 37 524 140 592 261 599 c 1
 261 675 l 1
 301 675 l 1
 301 599 l 1
 443 598 480 532 480 500 c 0
 480 470 453 453 428 453 c 0
 414 453 406 459 398 477 c 0
 364 554 326 562 301 564 c 1
 301 137 l 1
 366 136 417 154 461 231 c 1
 487 215 l 1
 452 127 378 88 301 87 c 1
 301 -10 l 1
 261 -10 l 1
 261 87 l 1
 117 87 37 175 37 346 c 0
135 356 m 0
 135 246 167 160 261 140 c 1
 261 564 l 1
 225 561 135 550 135 356 c 0
EndSplineSet
EndChar

StartChar: sterling
Encoding: 163 163 97
Width: 530
Flags: HW
HStem: 0 76<182 407 407 427.5 182 460> 291 38<53 155 53 172 53 155 282 282 282 418> 645 35<247.5 301.5>
VStem: 96 86<504.5 553.5> 206 86<147 233>
LayerCount: 2
Fore
SplineSet
27 5 m 1
 45 45 l 1
 120 70 206 109 206 185 c 0
 206 214 201 243 172 291 c 1xf8
 53 291 l 1
 53 329 l 1
 155 329 l 1
 130 374 96 435 96 498 c 0
 96 609 180 680 289 680 c 0
 395 680 454 623 454 572 c 0
 454 544 427 530 410 530 c 0
 391 530 385 535 381 548 c 0
 363 608 326 645 277 645 c 0
 218 645 182 600 182 540 c 0
 182 469 224 401 266 329 c 1xf0
 418 329 l 1
 418 291 l 1
 282 291 l 1
 292 252 288 272 292 233 c 0xf8
 292 170 260 123 182 80 c 1
 182 76 l 1
 407 76 l 2
 448 76 462 104 483 134 c 1
 510 125 l 1
 460 0 l 1
 31 0 l 1
 27 5 l 1
EndSplineSet
EndChar

StartChar: fraction
Encoding: 8260 8260 98
Width: 150
Flags: HW
HStem: 0 21G<-158 -158> 651 20G<308 308> 675 20G<270 270>
VStem: -158 466
LayerCount: 2
Fore
SplineSet
-158 0 m 1
 270 695 l 1xb0
 308 671 l 1xd0
 -122 -27 l 1
 -158 0 l 1
EndSplineSet
EndChar

StartChar: yen
Encoding: 165 165 99
Width: 530
Flags: HMW
HStem: 0 29<117 398 117 117> 187 38<42 212 42 212 303 473> 310 38<42 188 42 202 42 188 323 473> 637 31
VStem: -2 157 212 91<87 187 225 254 254 255> 397 128
LayerCount: 2
Fore
SplineSet
-2 639 m 1
 -2 668 l 1
 217 668 l 1
 217 639 l 1
 170 635 l 2
 154 633 152 622 158 610 c 2
 281 348 l 1
 321 440 367 535 393 601 c 0
 400 620 401 631 383 633 c 2
 328 639 l 1
 328 668 l 1
 525 668 l 1
 525 639 l 1
 497 635 l 2
 470 631 461 622 441 589 c 0
 427 566 380 476 323 348 c 1
 473 348 l 1
 473 310 l 1
 309 310 l 1
 305 301 303 286 303 255 c 2
 303 225 l 1
 473 225 l 1
 473 187 l 1
 303 187 l 1
 303 87 l 2
 303 38 307 34 398 29 c 1
 398 0 l 1
 117 0 l 1
 117 29 l 1
 209 34 212 38 212 87 c 2
 212 187 l 1
 42 187 l 1
 42 225 l 1
 212 225 l 1
 212 254 l 2
 212 279 209 297 202 310 c 1
 42 310 l 1
 42 348 l 1
 188 348 l 1
 67 598 l 2
 54 625 42 634 24 636 c 2
 -2 639 l 1
EndSplineSet
EndChar

StartChar: florin
Encoding: 402 402 100
Width: 530
Flags: HMW
HStem: -135 35<103 121.5 103 123> 366 38<104 206 104 213 310 442> 656 35<382.5 408>
VStem: -2 524
LayerCount: 2
Fore
SplineSet
-2 -75 m 0
 -1 -49 21 -32 38 -32 c 0
 49 -32 57 -39 61 -48 c 0
 80 -86 95 -100 111 -100 c 0
 132 -100 148 -84 157 -12 c 2
 206 366 l 1
 104 366 l 1
 104 404 l 1
 213 404 l 1
 220 447 l 2
 230 509 245 563 271 607 c 0
 302 659 350 691 413 691 c 0
 480 691 522 656 522 619 c 0
 521 597 500 579 477 579 c 0
 466 579 457 585 453 594 c 0
 433 644 418 656 398 656 c 0
 367 656 346 625 328 516 c 2
 310 404 l 1
 442 404 l 1
 442 366 l 1
 304 366 l 1
 276 184 l 2
 262 91 245 14 226 -33 c 0
 198 -102 148 -135 98 -135 c 0
 46 -135 -2 -111 -2 -75 c 0
EndSplineSet
EndChar

StartChar: section
Encoding: 167 167 101
Width: 554
Flags: HMW
HStem: -115 37<269.5 308.5 269.5 317> 672 35<254.5 293.5>
VStem: 46 52<385.5 413.5> 456 51<202 225>
LayerCount: 2
Fore
SplineSet
46 380 m 0
 46 447 81 512 133 562 c 1
 137 622 179 707 303 707 c 0
 374 707 438 675 438 633 c 0
 438 605 414 593 395 593 c 0
 383 593 375 598 368 609 c 0
 338 661 308 672 279 672 c 0
 230 672 200 634 200 596 c 0
 200 569 202 530 331 462 c 0
 447 401 507 341 507 236 c 0
 507 168 480 106 437 51 c 1
 439 -35 374 -115 260 -115 c 0
 176 -115 107 -74 106 -33 c 0
 106 -6 126 13 153 13 c 0
 164 13 174 4 180 -6 c 0
 216 -67 251 -78 288 -78 c 0
 329 -78 367 -44 367 7 c 0
 367 54 347 100 216 166 c 0
 79 235 46 302 46 380 c 0
98 417 m 0
 98 354 147 295 248 242 c 0
 346 191 399 150 423 99 c 1
 443 114 456 147 456 188 c 0
 456 262 395 332 315 376 c 0
 236 422 168 455 145 517 c 1
 117 497 98 458 98 417 c 0
EndSplineSet
EndChar

StartChar: currency
Encoding: 164 164 102
Width: 530
Flags: HMW
HStem: 109 53<242.5 287.5> 506 53<242.5 287.5 242.5 308.5>
VStem: 43 72<309.5 358.5> 415 72<309.5 358.5 309.5 383>
LayerCount: 2
Fore
SplineSet
42 101 m 0
 17 121 19 142 50 166 c 2
 89 196 l 1
 53 242 43 285 43 334 c 0
 43 383 53 426 89 472 c 1
 50 502 l 2
 19 526 17 547 42 567 c 0
 66 587 85 580 104 552 c 2
 131 513 l 1
 168 548 220 559 265 559 c 0
 310 559 362 548 399 513 c 1
 426 552 l 2
 445 580 464 587 488 567 c 0
 513 547 511 526 480 502 c 2
 441 472 l 1
 477 426 487 383 487 334 c 0
 487 285 477 242 441 196 c 1
 480 166 l 2
 511 142 513 121 488 101 c 0
 464 81 445 88 426 116 c 2
 399 155 l 1
 362 120 310 109 265 109 c 0
 220 109 168 120 131 155 c 1
 104 116 l 2
 85 88 66 81 42 101 c 0
115 334 m 0
 115 236 178 162 265 162 c 0
 352 162 415 236 415 334 c 0
 415 432 352 506 265 506 c 0
 178 506 115 432 115 334 c 0
EndSplineSet
EndChar

StartChar: quotesingle
Encoding: 39 39 103
Width: 278
Flags: HMW
HStem: 722 20G<120.5 157.5>
VStem: 93 92
LayerCount: 2
Fore
SplineSet
94 689 m 2
 89 725 102 742 139 742 c 0
 176 742 189 725 184 689 c 2
 149 464 l 1
 129 464 l 1
 94 689 l 2
EndSplineSet
EndChar

StartChar: guilsinglleft
Encoding: 8249 8249 106
Width: 257
Flags: MW
HStem: 41 394<196 196>
VStem: 41 92<203.078 273.312>
LayerCount: 2
Back
SplineSet
46 223 m 2
 39 232 39 246 46 254 c 2
 196 435 l 1
 216 418 l 1
 137 255 l 2
 131 245 131 233 137 221 c 2
 216 57 l 1
 196 41 l 1
 46 223 l 2
EndSplineSet
Fore
SplineSet
46 223 m 2
 42 228 41 233 41 239 c 0
 41 244 42 250 46 254 c 2
 196 435 l 1
 216 418 l 1
 137 255 l 2
 134 250 133 244 133 239 c 0
 133 233 134 227 137 221 c 2
 216 57 l 1
 196 41 l 1
 46 223 l 2
EndSplineSet
EndChar

StartChar: guilsinglright
Encoding: 8250 8250 107
Width: 257
Flags: MW
HStem: 41 394<61 61>
VStem: 124 92<203.078 273.312>
LayerCount: 2
Back
SplineSet
41 57 m 1
 120 221 l 2
 126 233 126 245 120 255 c 2
 41 418 l 1
 61 435 l 1
 211 254 l 2
 218 246 218 232 211 223 c 2
 61 41 l 1
 41 57 l 1
EndSplineSet
Fore
SplineSet
41 57 m 1
 120 221 l 2
 123 227 124 233 124 239 c 0
 124 244 123 250 120 255 c 2
 41 418 l 1
 61 435 l 1
 211 254 l 2
 214 250 216 244 216 239 c 0
 216 233 214 228 211 223 c 2
 61 41 l 1
 41 57 l 1
EndSplineSet
EndChar

StartChar: fi
Encoding: 64257 64257 108
Width: 610
Flags: MW
HStem: 0 29<32 99.0117 209.41 286 351 418.012 528.325 595> 450 40<30 107 201 422.126> 482 20G<503.5 520> 707 35<258.396 379.247>
VStem: 107 94<35.8118 450 490 620.364> 426 94<35.6418 449.145>
LayerCount: 2
Fore
SplineSet
30 450 m 1xdc
 30 490 l 1
 107 490 l 1
 107 508 l 2
 107 576 125 633 161 674 c 0
 198 716 259 742 334 742 c 0
 448 742 510 694 510 650 c 0
 510 618 477 604 455 604 c 0
 438 604 431 612 427 622 c 0
 408 676 372 707 323 707 c 0
 268 707 201 683 201 536 c 2
 201 490 l 1
 347 490 l 2xdc
 427 490 487 499 520 502 c 1xbc
 520 87 l 2
 520 36 524 34 595 29 c 1
 595 0 l 1
 351 0 l 1
 351 29 l 1
 423 34 426 36 426 87 c 2
 426 404 l 2
 426 439 420 450 394 450 c 2
 201 450 l 1
 201 86 l 2
 201 35 205 33 286 29 c 1
 286 0 l 1
 32 0 l 1
 32 29 l 1
 104 34 107 36 107 87 c 2
 107 450 l 1
 30 450 l 1xdc
EndSplineSet
LCarets2: 1 0 
EndChar

StartChar: fl
Encoding: 64258 64258 109
Width: 610
Flags: HMW
HStem: 0 29<32 296 32 32> 450 40<30 107 30 107 201 323> 707 35<290 343>
VStem: 107 94<87 450 490 511 511 523> 426 94<87 630 630 630>
LayerCount: 2
Fore
SplineSet
30 450 m 1
 30 490 l 1
 107 490 l 1
 107 511 l 2
 107 589 126 644 161 680 c 0
 198 719 254 742 325 742 c 0
 379 742 422 730 450 714 c 1
 513 742 l 1
 520 736 l 1
 520 87 l 2
 520 36 524 34 595 29 c 1
 595 0 l 1
 351 0 l 1
 351 29 l 1
 423 34 426 36 426 87 c 2
 426 630 l 1
 411 682 366 707 320 707 c 0
 260 707 201 679 201 523 c 2
 201 490 l 1
 323 490 l 1
 323 450 l 1
 201 450 l 1
 201 86 l 2
 201 35 205 33 296 29 c 1
 296 0 l 1
 32 0 l 1
 32 29 l 1
 104 34 107 36 107 87 c 2
 107 450 l 1
 30 450 l 1
EndSplineSet
LCarets2: 1 0 
EndChar

StartChar: endash
Encoding: 8211 8211 110
Width: 500
Flags: HMW
HStem: 221 58<0 500 0 500>
VStem: 0 500<221 279 221 279>
LayerCount: 2
Fore
SplineSet
0 221 m 1
 0 279 l 1
 500 279 l 1
 500 221 l 1
 0 221 l 1
EndSplineSet
EndChar

StartChar: dagger
Encoding: 8224 8224 111
Width: 504
Flags: HMW
HStem: 428 70<64 85.5 418.5 440>
VStem: 206 92<297.5 339.5>
LayerCount: 2
Fore
SplineSet
45 463 m 0
 45 492 56 498 72 498 c 0
 99 498 149 485 233 479 c 1
 218 586 204 655 204 681 c 0
 204 702 213 717 252 717 c 0
 291 717 300 702 300 681 c 0
 300 655 286 586 271 479 c 1
 355 485 405 498 432 498 c 0
 448 498 459 492 459 463 c 0
 459 434 448 428 432 428 c 0
 405 428 355 441 271 447 c 1
 283 405 298 363 298 316 c 0
 298 279 277 112 266 -125 c 1
 238 -125 l 1
 228 112 206 279 206 316 c 0
 206 363 221 405 233 447 c 1
 149 441 99 428 72 428 c 0
 56 428 45 434 45 463 c 0
EndSplineSet
EndChar

StartChar: daggerdbl
Encoding: 8225 8225 112
Width: 488
Flags: HW
HStem: 113 66<64 84 404 424> 444 66<64 84 404 424> 473 20G
VStem: 198 92<-95 -69 667 693> 201 86<309 347.5>
LayerCount: 2
Fore
SplineSet
45 146 m 0
 45 173 56 179 72 179 c 0
 96 179 165 164 223 162 c 1
 211 266 201 291 201 327 c 0
 201 368 211 398 223 461 c 1
 165 459 96 444 72 444 c 0
 56 444 45 450 45 477 c 0
 45 504 56 510 72 510 c 0xc8
 96 510 165 495 223 493 c 1
 214 582 198 652 198 682 c 0
 198 704 211 719 244 717 c 0xb8
 277 719 290 704 290 682 c 0
 290 652 274 582 265 493 c 1xb0
 323 495 392 510 416 510 c 0
 432 510 443 504 443 477 c 0
 443 450 432 444 416 444 c 0
 392 444 323 459 265 461 c 1
 277 398 287 368 287 327 c 0
 287 291 277 266 265 162 c 1xc8
 323 164 392 179 416 179 c 0
 432 179 443 173 443 146 c 0
 443 119 432 113 416 113 c 0
 392 113 323 128 265 130 c 1
 274 22 290 -54 290 -84 c 0
 290 -106 277 -121 244 -119 c 0
 211 -121 198 -106 198 -84 c 0
 198 -54 214 22 223 130 c 1xb0
 165 128 96 113 72 113 c 0
 56 113 45 119 45 146 c 0
EndSplineSet
EndChar

StartChar: paragraph
Encoding: 182 182 114
Width: 555
Flags: HMW
HStem: -101 30.5 661.5 30.5
VStem: 64 227<404 531> 363 71<-26 620 -101 692>
LayerCount: 2
Fore
SplineSet
64 466 m 0
 64 596 146 692 279 692 c 2
 291 692 l 1
 291 250 l 1
 275 250 l 2
 152 250 64 342 64 466 c 0
262 -75 m 1
 336 -66 l 2
 356 -63 363 -55 363 -26 c 2
 363 692 l 1
 529 692 l 1
 529 666 l 1
 461 657 l 2
 442 654 434 649 434 620 c 2
 434 -101 l 1
 262 -101 l 1
 262 -75 l 1
EndSplineSet
EndChar

StartChar: bullet
Encoding: 8226 8226 115
Width: 409
Flags: HMW
HStem: 192 320<161.5 248>
VStem: 45 319<308 395.5>
LayerCount: 2
Fore
SplineSet
45 352 m 0
 45 439 118 512 205 512 c 0
 291 512 364 439 364 352 c 0
 364 264 291 192 205 192 c 0
 118 192 45 264 45 352 c 0
EndSplineSet
EndChar

StartChar: questiondown
Encoding: 191 191 122
Width: 389
Flags: HW
HStem: -217 35<170 188> 247 44<128 219> 377 125<180.5 218>
VStem: 30 99<-81 -81> 137 124<422 440 422 458> 202 97<171.5 201.5>
LayerCount: 2
Fore
SplineSet
30 -81 m 0
 32 0 92 35 126 59 c 0
 176 94 202 130 202 174 c 0
 202 229 155 247 134 247 c 0
 122 247 111 245 104 243 c 1
 96 263 l 1
 123 285 161 291 192 291 c 0
 246 291 299 257 299 194 c 0
 299 149 278 123 218 77 c 0
 173 43 129 -18 129 -81 c 0
 129 -139 147 -182 193 -182 c 0
 233 -182 261 -150 275 -75 c 0
 278 -58 292 -51 307 -51 c 0
 324 -51 360 -64 360 -101 c 0
 360 -134 320 -215 188 -217 c 0xfc
 98 -217 32 -174 30 -81 c 0
137 440 m 0
 137 476 162 502 199 502 c 0xe8
 237 502 260 476 261 440 c 0
 261 404 237 377 199 377 c 0
 162 377 137 404 137 440 c 0
EndSplineSet
EndChar

StartChar: grave
Encoding: 96 96 123
Width: 400
Flags: W
HStem: 542 181
VStem: 49 222
LayerCount: 2
Fore
SplineSet
49 680 m 0
 49 700 73 723 88 723 c 0
 105 723 122 713 152 682 c 2
 271 562 l 1
 256 542 l 1
 105 626 l 2
 75 642 49 659 49 680 c 0
EndSplineSet
EndChar

StartChar: acute
Encoding: 180 180 124
Width: 400
Flags: W
HStem: 542 181
VStem: 129 222
LayerCount: 2
Fore
SplineSet
129 562 m 1
 248 682 l 2
 278 713 295 723 312 723 c 0
 327 723 351 700 351 680 c 0
 351 659 325 642 295 626 c 2
 144 542 l 1
 129 562 l 1
EndSplineSet
EndChar

StartChar: circumflex
Encoding: 710 710 125
Width: 400
Flags: MW
HStem: 541 20 633 87<167.201 232.898>
VStem: 47 306
LayerCount: 2
Fore
SplineSet
47 562 m 1
 164 695 l 2
 177 709 188 720 200 720 c 0
 212 720 224 708 236 695 c 2
 353 562 l 1
 334 541 l 1
 231 618 l 2
 220 626 209 633 200 633 c 0
 192 633 180 626 169 618 c 2
 66 541 l 1
 47 562 l 1
EndSplineSet
EndChar

StartChar: tilde
Encoding: 732 732 126
Width: 400
Flags: W
HStem: 576 60<205.299 327.945> 614 60<74.8165 202.035>
LayerCount: 2
Fore
SplineSet
22 576 m 1x80
 42 616 70 674 134 674 c 0x40
 158 674 186 665 213 655 c 0
 241 646 268 636 289 636 c 0
 317 636 329 647 357 682 c 1
 377 671 l 1
 363 643 349 619 333 602 c 0
 316 586 298 576 273 576 c 0x80
 251 576 222 586 193 595 c 0
 164 605 135 614 113 614 c 0x40
 80 614 63 598 41 563 c 1
 22 576 l 1x80
EndSplineSet
EndChar

StartChar: macron
Encoding: 175 175 127
Width: 400
Flags: HMW
HStem: 597 59<56 344 56 344>
VStem: 56 288<597 656 597 656>
LayerCount: 2
Fore
SplineSet
56 597 m 1
 56 656 l 1
 344 656 l 1
 344 597 l 1
 56 597 l 1
EndSplineSet
EndChar

StartChar: breve
Encoding: 728 728 128
Width: 400
Flags: HMW
HStem: 568 65<153.5 246.5 153.5 262.5> 684 20G<63 87 87 87 313 337 337 337>
VStem: 63 24<672.5 704> 313 24<672.5 704>
LayerCount: 2
Fore
SplineSet
63 704 m 1
 87 704 l 1
 89 683 107 633 200 633 c 0
 293 633 311 683 313 704 c 1
 337 704 l 1
 337 641 325 568 200 568 c 0
 75 568 63 641 63 704 c 1
EndSplineSet
EndChar

StartChar: dotaccent
Encoding: 729 729 129
Width: 400
Flags: HMW
HStem: 570 113<180.5 219.5>
VStem: 140 120<612.5 641.5>
LayerCount: 2
Fore
SplineSet
140 627 m 0
 140 656 161 683 200 683 c 0
 239 683 260 656 260 627 c 0
 260 598 239 570 200 570 c 0
 161 570 140 598 140 627 c 0
EndSplineSet
EndChar

StartChar: dieresis
Encoding: 168 168 130
Width: 400
Flags: HMW
HStem: 570 113<76.5 115.5 284.5 324>
VStem: 36 120<612.5 641.5> 244 120<612.5 641.5>
LayerCount: 2
Back
SplineSet
304 570 m 0
 265 570 244 598 244 627 c 0
 244 656 265 683 304 683 c 0
 344 683 364 656 364 627 c 0
 364 598 344 570 304 570 c 0
EndSplineSet
Refer: 129 729 S 1 0 0 1 -104 0 2
Fore
Refer: 129 729 N 1 0 0 1 104 0 2
Refer: 129 729 N 1 0 0 1 -104 0 2
EndChar

StartChar: ring
Encoding: 730 730 131
Width: 400
Flags: HMW
HStem: 550 33<186 214 186 227> 719 33<186 214>
VStem: 92 58<625 677 625 688.5> 250 58<625 677>
LayerCount: 2
Fore
SplineSet
92 651 m 0
 92 726 146 752 200 752 c 0
 254 752 308 726 308 651 c 0
 308 576 254 550 200 550 c 0
 146 550 92 576 92 651 c 0
150 651 m 0
 150 599 172 583 200 583 c 0
 228 583 250 599 250 651 c 0
 250 703 228 719 200 719 c 0
 172 719 150 703 150 651 c 0
EndSplineSet
EndChar

StartChar: cedilla
Encoding: 184 184 132
Width: 400
Flags: HMW
HStem: -230 29<163 222.5>
VStem: 251 78<-165.5 -120.5>
LayerCount: 2
Fore
SplineSet
163 -201 m 1
 212 -201 251 -186 251 -145 c 0
 251 -96 207 -92 189 -91 c 1
 185 -84 l 1
 231 0 l 1
 272 0 l 1
 240 -55 l 1
 277 -60 329 -78 329 -142 c 0
 329 -219 238 -230 207 -230 c 0
 189 -230 177 -229 163 -227 c 1
 163 -201 l 1
EndSplineSet
EndChar

StartChar: hungarumlaut
Encoding: 733 733 133
Width: 400
Flags: W
HStem: 546 204
VStem: 101 279
LayerCount: 2
Fore
SplineSet
101 559 m 1
 147 703 l 2
 156 730 165 750 188 750 c 0
 215 750 238 733 238 712 c 0
 238 696 226 675 207 650 c 2
 125 546 l 1
 101 559 l 1
243 559 m 1
 289 703 l 2
 298 730 307 750 330 750 c 0
 357 750 380 733 380 712 c 0
 380 696 368 675 349 650 c 2
 267 546 l 1
 243 559 l 1
EndSplineSet
EndChar

StartChar: ogonek
Encoding: 731 731 134
Width: 400
Flags: HW
HStem: -230 44 -195 9
VStem: 103 69<-132 -114.5>
LayerCount: 2
Fore
SplineSet
103 -139 m 0
 103 -90 145 -32 205 0 c 1xa0
 248 0 l 1
 200 -40 172 -82 172 -132 c 0
 174 -186 234 -199 287 -174 c 1xa0
 295 -195 l 1x60
 280 -208 264 -217 248 -223 c 0
 232 -228 217 -230 202 -230 c 0
 112 -230 103 -170 103 -139 c 0
EndSplineSet
EndChar

StartChar: caron
Encoding: 711 711 135
Width: 400
Flags: MW
HStem: 541 87<196 204.5 196 206> 679 20G<47 47 353 353> 700 20G<47.9048 92.7533 307.247 352.095>
VStem: 47 306<699 699>
LayerCount: 2
Fore
SplineSet
47 699 m 1
 66 720 l 1
 169 643 l 2
 180 635 192 628 200 628 c 0
 209 628 220 635 231 643 c 2
 334 720 l 1
 353 699 l 1
 236 566 l 2
 224 553 212 541 200 541 c 0
 188 541 177 552 164 566 c 2
 47 699 l 1
EndSplineSet
EndChar

StartChar: emdash
Encoding: 8212 8212 136
Width: 1000
Flags: HMW
HStem: 221 58<0 1000 0 1000>
VStem: 0 1000<221 279 221 279>
LayerCount: 2
Fore
SplineSet
0 221 m 1
 0 279 l 1
 1000 279 l 1
 1000 221 l 1
 0 221 l 1
EndSplineSet
EndChar

StartChar: AE
Encoding: 198 198 137
Width: 876
Flags: HW
HStem: 0 29<-63 168 -63 -63> 0 35<597 685 597 835> 341 38<244 397 244 397 225 397 494 634> 652 40<391 397 391 391> 657 35<314 314 515 531 531 629>
VStem: -63 147 397 97<103 125 125 341 379 621> 732 30<254 465 254 465> 780 30<528 692>
LayerCount: 2
Fore
SplineSet
-63 0 m 1x6f
 -63 29 l 1
 -9 34 5 38 28 77 c 0
 83 170 128 261 203 398 c 2
 326 623 l 2
 339 647 334 656 314 657 c 2
 239 663 l 1
 239 692 l 1xaf
 810 692 l 1
 810 528 l 1
 780 528 l 1x6b80
 766 632 743 657 629 657 c 2
 531 657 l 2
 499 657 494 651 494 621 c 2
 494 379 l 1
 634 379 l 2
 719 379 723 403 732 465 c 1
 762 465 l 1
 762 254 l 1
 732 254 l 1
 723 317 719 341 634 341 c 2
 494 341 l 1
 494 125 l 2
 494 81 500 58 521 48 c 0
 542 38 571 35 623 35 c 0
 747 35 794 51 817 173 c 1
 847 173 l 1
 835 0 l 1
 307 0 l 1x6b
 307 29 l 1
 394 35 397 37 397 95 c 2xab
 397 341 l 1
 225 341 l 1
 135 168 97 90 87 64 c 0
 80 47 85 38 102 36 c 2
 168 29 l 1
 168 0 l 1
 -63 0 l 1x6f
244 379 m 1
 397 379 l 1x6b
 397 652 l 1
 391 652 l 1x73
 329 538 266 419 244 379 c 1
EndSplineSet
EndChar

StartChar: ordfeminine
Encoding: 170 170 138
Width: 390
Flags: HW
HStem: 265 35 266 36 284 18<329 364> 562 28<176.5 198>
VStem: 40 79<345 371.5> 235 69<366 444 444 444 471 509 509 510>
LayerCount: 2
Fore
SplineSet
40 355 m 0
 40 388 55 410 119 432 c 0
 158 446 196 458 235 471 c 1
 235 509 l 2
 235 549 209 562 187 562 c 0
 166 562 139 551 125 511 c 0
 121 499 112 485 97 485 c 0
 80 485 53 498 53 517 c 0
 53 554 116 590 192 590 c 0
 296 590 304 545 304 510 c 2
 304 356 l 2
 304 317 317 305 329 302 c 0
 339 300 352 301 361 302 c 1x5c
 364 284 l 1x3c
 352 279 338 274 324 271 c 0
 310 268 295 266 281 266 c 0x5c
 255 266 243 280 235 304 c 1
 215 292 180 265 138 265 c 0
 72 265 40 307 40 355 c 0
119 362 m 0
 119 328 138 301 178 300 c 0
 201 302 235 317 235 366 c 2x9c
 235 444 l 1
 219 440 200 434 172 423 c 0
 136 410 119 393 119 362 c 0
EndSplineSet
EndChar

StartChar: Lslash
Encoding: 321 321 139
Width: 574
Flags: HW
HStem: 0 29<41 560 41 41> 0 35<337 414.5 337 560> 476 20G<358 358> 663 29<41 326 41 326>
VStem: 131 99<95.5 120 120 290 290 290 336 355 401 599>
LayerCount: 2
Fore
SplineSet
36 220 m 1
 36 266 l 1
 131 336 l 1
 131 599 l 2
 131 655 129 657 41 663 c 1
 41 692 l 1
 326 692 l 1
 326 663 l 1
 233 657 230 655 230 599 c 2
 230 401 l 1
 358 496 l 1
 358 450 l 1x78
 230 355 l 1
 230 120 l 2
 230 71 234 54 255 45 c 0
 276 37 312 35 362 35 c 0
 467 35 522 48 542 179 c 1
 572 179 l 1
 560 0 l 1
 41 0 l 1x78
 41 29 l 1
 129 35 131 37 131 93 c 2xb8
 131 290 l 1
 36 220 l 1
EndSplineSet
EndChar

StartChar: Oslash
Encoding: 216 216 140
Width: 762
Flags: HMW
HStem: -15 35<348.5 436.5> 672 35<326 413.5>
VStem: 48 112<346 346> 602 112<346 346>
LayerCount: 2
Fore
SplineSet
48 346 m 0
 48 459 79 550 133 610 c 0
 189 673 271 707 381 707 c 0
 452 707 511 693 559 665 c 1
 605 739 l 1
 639 718 l 1
 592 644 l 1
 606 634 618 622 629 610 c 0
 684 550 714 459 714 346 c 0
 714 234 684 142 629 82 c 0
 573 19 492 -15 381 -15 c 0
 310 -15 251 -1 202 28 c 1
 151 -53 l 1
 119 -29 l 1
 168 49 l 1
 156 58 144 70 133 82 c 0
 79 142 48 234 48 346 c 0
160 346 m 0
 161 268 173 182 211 117 c 1
 525 612 l 1
 492 649 446 672 381 672 c 0
 203 672 162 493 160 346 c 0
236 82 m 1
 269 44 316 20 381 20 c 0
 559 20 600 199 602 346 c 0
 601 425 589 513 550 577 c 1
 236 82 l 1
EndSplineSet
EndChar

StartChar: OE
Encoding: 338 338 141
Width: 1025
Flags: HW
HStem: 0 35<407.5 448 448 470 746 834> 341 38<643 783 643 783> 657 35<453 466 664 680 680 778>
VStem: 48 112<273.5 414> 544 99<103 125 125 341 379 605 605 621> 881 30<254 465 254 465> 929 30<528 692>
LayerCount: 2
Fore
SplineSet
48 341 m 0
 48 487 111 585 188 633 c 0
 275 687 372 692 453 692 c 2
 959 692 l 1
 959 528 l 1
 929 528 l 1xfe
 915 632 892 657 778 657 c 2
 680 657 l 2
 648 657 643 649 643 621 c 2
 643 379 l 1
 783 379 l 2
 868 379 872 403 881 465 c 1
 911 465 l 1
 911 254 l 1
 881 254 l 1
 872 317 868 341 783 341 c 2
 643 341 l 1
 643 125 l 2
 643 81 649 58 670 48 c 0
 691 38 720 35 772 35 c 0
 896 35 943 51 966 173 c 1
 996 173 l 1
 984 0 l 1
 448 0 l 2
 367 0 270 4 188 56 c 0
 109 106 48 200 48 341 c 0
160 346 m 0
 160 201 217 35 428 35 c 0
 512 35 544 45 544 88 c 2
 544 605 l 2
 544 648 502 657 430 657 c 0
 217 657 160 500 160 346 c 0
EndSplineSet
EndChar

StartChar: ordmasculine
Encoding: 186 186 142
Width: 398
Flags: HMW
HStem: 265 28<170 227 170 253.5> 562 28<170 227>
VStem: 35 83<427 427> 280 83<427 427>
LayerCount: 2
Fore
SplineSet
35 427 m 0
 35 530 89 590 198 590 c 0
 309 590 363 530 363 427 c 0
 363 325 309 265 198 265 c 0
 89 265 35 325 35 427 c 0
118 427 m 0
 120 345 142 293 198 293 c 0
 256 293 278 345 280 427 c 0
 278 510 256 562 198 562 c 0
 142 562 120 510 118 427 c 0
EndSplineSet
EndChar

StartChar: ae
Encoding: 230 230 143
Width: 797
Flags: HMW
HStem: -12 51 263 38<437 626 626 640 437 724 436 626> 467 35<238 278 529 602.5>
VStem: 49 101<114.5 153.5> 343 93<263 263 263 284 263 284 263 369> 660 104<323.5 330.5 284.5 352.5>
LayerCount: 2
Fore
SplineSet
49 130 m 0
 49 177 70 227 142 249 c 0
 221 274 318 299 343 325 c 1
 343 369 l 2
 343 447 297 467 259 467 c 0
 217 467 176 443 154 369 c 0
 149 352 143 341 124 341 c 0
 103 341 66 356 66 388 c 0
 66 443 155 502 270 502 c 0
 344 502 387 477 409 440 c 1
 447 481 496 502 562 502 c 0
 745 502 764 360 764 301 c 0
 764 268 745 263 724 263 c 2
 436 263 l 1
 434 159 459 39 583 39 c 0
 662 39 700 87 728 145 c 1
 758 129 l 1
 731 50 674 -11 563 -12 c 0
 468 -13 410 20 378 75 c 1
 341 48 l 2
 312 27 257 -10 195 -12 c 0
 99 -12 49 55 49 130 c 0
150 144 m 0
 150 85 180 41 242 41 c 0
 281 41 343 64 343 143 c 2
 343 284 l 1
 321 270 268 251 228 236 c 0
 172 215 150 191 150 144 c 0
437 301 m 1
 626 301 l 2
 654 301 660 314 660 333 c 0
 660 372 649 467 556 467 c 0
 453 467 437 342 437 301 c 1
EndSplineSet
EndChar

StartChar: dotlessi
Encoding: 305 305 144
Width: 291
Flags: W
HStem: 0 29<32 99.0117 209.325 276> 452 25<37 75> 482 20G<68.4 201>
VStem: 107 94<35.6418 444.937>
LayerCount: 2
Fore
SplineSet
32 0 m 1
 32 29 l 1
 104 34 107 36 107 87 c 2
 107 402 l 2
 107 438 101 443 75 447 c 2
 37 452 l 1
 37 477 l 1
 194 502 l 1
 201 496 l 1
 201 87 l 2
 201 36 205 34 276 29 c 1
 276 0 l 1
 32 0 l 1
EndSplineSet
EndChar

StartChar: lslash
Encoding: 322 322 145
Width: 294
Flags: HMW
HStem: 0 29<26 270 26 26> 722 20G<188 188>
VStem: 101 94<87 326 326 326 376 395 445 642 642 661>
LayerCount: 2
Fore
SplineSet
14 253 m 1
 14 303 l 1
 101 376 l 1
 101 642 l 2
 101 680 95 685 69 688 c 2
 31 692 l 1
 31 717 l 1
 188 742 l 1
 195 736 l 1
 195 445 l 1
 293 528 l 1
 293 478 l 1
 195 395 l 1
 195 87 l 2
 195 36 199 34 270 29 c 1
 270 0 l 1
 26 0 l 1
 26 29 l 1
 98 34 101 36 101 87 c 2
 101 326 l 1
 14 253 l 1
EndSplineSet
EndChar

StartChar: oslash
Encoding: 248 248 146
Width: 577
Flags: HMW
HStem: -12 35<268.5 337 268.5 369> 467 35<241 307>
VStem: 49 99<216 245 216 326> 429 99<176 277>
LayerCount: 2
Fore
SplineSet
49 245 m 0
 49 407 128 502 288 502 c 0
 334 502 374 494 407 479 c 1
 440 532 l 1
 472 511 l 1
 440 460 l 1
 499 418 528 344 528 245 c 0
 528 83 450 -12 288 -12 c 0
 238 -12 196 -3 163 16 c 1
 127 -41 l 1
 96 -18 l 1
 130 37 l 1
 75 80 49 151 49 245 c 0
148 245 m 0
 148 187 156 138 172 104 c 1
 377 431 l 1
 355 455 326 467 288 467 c 0
 194 467 146 383 148 245 c 0
194 66 m 1
 218 37 249 23 288 23 c 0
 386 23 429 107 429 245 c 0
 429 309 420 361 401 397 c 1
 194 66 l 1
EndSplineSet
EndChar

StartChar: oe
Encoding: 339 339 147
Width: 882
Flags: HW
HStem: -12 35<242.5 328> -12 51 263 38<522 711 711 725 522 809 521 711> 467 35<242.5 331 208 334.5 605 687.5>
VStem: 49 104<176 314 176 326> 424 97<263 263 263 314> 745 104<323.5 330.5 284.5 352.5>
LayerCount: 2
Fore
SplineSet
49 245 m 0
 49 407 128 502 288 502 c 0
 374 502 438 471 474 422 c 1
 507 464 563 502 647 502 c 0
 830 502 849 360 849 301 c 0
 849 268 830 263 809 263 c 2
 521 263 l 1
 519 159 544 39 668 39 c 0x7e
 747 39 785 87 813 145 c 1
 843 129 l 1
 816 50 759 -11 648 -12 c 0
 559 -13 503 17 470 66 c 1
 431 16 368 -12 288 -12 c 0
 128 -12 49 83 49 245 c 0
153 245 m 0xbe
 153 107 197 23 288 23 c 0
 381 23 424 107 424 245 c 0
 424 383 381 467 288 467 c 0
 197 467 153 383 153 245 c 0xbe
522 301 m 1
 711 301 l 2
 739 301 745 314 745 333 c 0
 745 372 734 467 641 467 c 0
 537 467 522 342 522 301 c 1
EndSplineSet
EndChar

StartChar: germandbls
Encoding: 223 223 148
Width: 601
Flags: HW
HStem: -12 35<413 440 413 462> 0 29<22 266 22 22> 707 35<290.5 349.5>
VStem: 97 94<87 448> 290 81<387.5 413> 429 86<574.5 608 572.5 621.5> 492 81<86 126>
LayerCount: 2
Fore
SplineSet
22 0 m 1
 22 29 l 1
 94 34 97 36 97 87 c 2
 97 455 l 2
 97 555 110 626 153 674 c 0
 189 716 245 742 322 742 c 0
 495 742 515 628 515 588 c 0x7c
 515 557 505 529 488 507 c 1
 416 497 371 464 371 410 c 0
 371 365 398 337 472 287 c 0
 521 254 573 204 573 128 c 0
 573 44 510 -12 414 -12 c 0
 340 -12 288 19 288 53 c 0
 288 73 306 91 325 91 c 0
 336 91 344 84 348 76 c 0
 372 33 400 23 426 23 c 0
 454 23 492 44 492 96 c 0xba
 492 156 458 192 400 230 c 0
 343 268 290 311 290 379 c 0
 290 447 331 493 407 514 c 1
 423 531 429 563 429 586 c 0x7c
 429 657 381 707 318 707 c 0
 263 707 231 677 212 629 c 0
 193 582 191 517 191 448 c 2x7a
 191 87 l 2
 191 36 195 34 266 29 c 1
 266 0 l 1
 22 0 l 1
EndSplineSet
EndChar

StartChar: onesuperior
Encoding: 185 185 149
Width: 380
Flags: HW
HStem: 634 15 865 12G<198 198> 867 12G<194 194>
VStem: 149 49<666 836 836 840>
LayerCount: 2
Back
SplineSet
85 272 m 1
 85 289 l 1
 141 294 l 2
 148 295 154 296 157 300 c 0
 161 304 163 312 163 323 c 2
 163 614 l 2
 163 631 158 636 147 637 c 2
 85 644 l 1
 85 659 l 1
 222 680 l 1
 225 676 l 1
 225 323 l 2
 225 300 233 295 247 294 c 2
 303 289 l 1
 303 272 l 1
 85 272 l 1
EndSplineSet
Fore
SplineSet
81 272 m 1
 81 294 l 1
 136 299 l 2
 149 300 157 306 157 325 c 2
 157 608 l 2
 157 623 153 630 142 632 c 2
 81 640 l 1
 81 659 l 1
 224 680 l 1
 231 676 l 1xd0
 231 325 l 2
 231 306 239 300 253 299 c 2
 307 294 l 1
 307 272 l 1xb0
 81 272 l 1
EndSplineSet
EndChar

StartChar: minus
Encoding: 8722 8722 150
Width: 570
Flags: MW
HStem: 221 58<43 527 43 527>
VStem: 43 484<221 279 221 279>
LayerCount: 2
Fore
SplineSet
43 221 m 1
 43 279 l 1
 527 279 l 1
 527 221 l 1
 43 221 l 1
EndSplineSet
EndChar

StartChar: degree
Encoding: 176 176 151
Width: 350
Flags: HW
HStem: 404 48<121.829 228.171> 632 48<121.829 228.171>
VStem: 37 56<481.837 602.163> 257 56<481.837 602.163>
LayerCount: 2
Back
SplineSet
313 542 m 0
 313 466 250 404 175 404 c 0
 99 404 37 466 37 542 c 0
 36 617 99 680 175 680 c 0
 250 680 313 617 313 542 c 0
174 632 m 0
 131 632 92 593 93 542 c 0
 93 490 131 452 175 452 c 0
 218 452 257 490 257 542 c 0
 257 593 218 632 174 632 c 0
EndSplineSet
Fore
SplineSet
37 542 m 0
 37 617 100 680 175 680 c 0
 250 680 313 617 313 542 c 0
 313 467 250 404 175 404 c 0
 100 404 37 467 37 542 c 0
93 542 m 0
 93 491 131 452 175 452 c 0
 219 452 257 491 257 542 c 0
 257 593 219 632 175 632 c 0
 131 632 93 593 93 542 c 0
EndSplineSet
EndChar

StartChar: logicalnot
Encoding: 172 172 158
Width: 570
Flags: HMW
HStem: 331 58<43 459 43 527>
VStem: 459 68<102 331 331 331>
LayerCount: 2
Fore
SplineSet
43 331 m 1
 43 389 l 1
 527 389 l 1
 527 102 l 1
 459 102 l 1
 459 331 l 1
 43 331 l 1
EndSplineSet
EndChar

StartChar: icircumflex
Encoding: 238 238 166
Width: 291
Flags: HW
HStem: 0 29<32 276 32 32> 476 20G<201 201> 482 20G<194 194> 633 87<147 155.5>
VStem: 107 94<87 402 402 420>
LayerCount: 2
Fore
SplineSet
-3 562 m 1
 115 695 l 2
 128 709 139 720 151 720 c 0
 163 720 175 708 187 695 c 2
 304 562 l 1
 285 541 l 1
 182 618 l 2
 171 626 160 633 151 633 c 0
 143 633 131 626 120 618 c 2
 17 541 l 1
 -3 562 l 1
EndSplineSet
Refer: 144 305 S 1 0 0 1 0 0 3
EndChar

StartChar: brokenbar
Encoding: 166 166 167
Width: 228
Flags: HMW
HStem: 655 20G<80 148 148 148>
VStem: 80 68<-175 175 -175 175 325 675>
LayerCount: 2
Fore
SplineSet
80 -175 m 1
 80 175 l 1
 148 175 l 1
 148 -175 l 1
 80 -175 l 1
80 325 m 1
 80 675 l 1
 148 675 l 1
 148 325 l 1
 80 325 l 1
EndSplineSet
EndChar

StartChar: thorn
Encoding: 254 254 168
Width: 606
Flags: HW
HStem: -230 29<23 282 23 23> -12 35<283 357 281 373.5> 448 54<325.5 344> 670 27 677 20G<28 28>
VStem: 98 94<-143 11 145.5 157 157 321 430 622 622 641> 453 104<176.5 291.5 153 336>
LayerCount: 2
Fore
SplineSet
23 -201 m 1
 93 -196 98 -192 98 -143 c 2
 98 622 l 2
 98 660 92 665 66 668 c 2
 28 672 l 1xf6
 28 697 l 1
 185 722 l 1
 192 716 l 1
 192 430 l 1
 231 453 289 502 362 502 c 0
 544 502 557 327 557 256 c 0
 557 50 441 -12 306 -12 c 0
 260 -12 213 -1 192 11 c 1
 192 -143 l 2
 192 -192 198 -196 282 -201 c 1
 282 -230 l 1
 23 -230 l 1
 23 -201 l 1
192 157 m 2
 192 134 193 114 199 96 c 0
 215 50 255 23 307 23 c 0
 407 23 453 103 453 250 c 0
 453 422 364 448 324 448 c 0
 271 448 228 424 205 378 c 0
 196 360 192 346 192 321 c 2xee
 192 157 l 2
EndSplineSet
EndChar

StartChar: Aring
Encoding: 197 197 169
Width: 627
Flags: HMW
HStem: 0 29<-32 188 -32 -32> 267 38<185 384 185 396 172 384> 672 20G<298 326> 828 33<298 326>
VStem: -32 139 204 58<734 786 734 797.5> 362 58<734 786> 468 179
LayerCount: 2
Back
SplineSet
204 760 m 0
 204 835 258 861 312 861 c 0
 366 861 420 835 420 760 c 0
 420 685 366 659 312 659 c 0
 258 659 204 685 204 760 c 0
262 760 m 0
 262 708 284 692 312 692 c 0
 340 692 362 708 362 760 c 0
 362 812 340 828 312 828 c 0
 284 828 262 812 262 760 c 0
EndSplineSet
Fore
SplineSet
-32 0 m 1
 -32 29 l 1
 31 32 40 44 61 98 c 0
 96 189 138 309 169 396 c 2
 266 667 l 1
 231 678 204 707 204 760 c 0
 204 835 258 861 312 861 c 0
 366 861 420 835 420 760 c 0
 420 706 392 677 356 666 c 1
 560 89 l 2
 578 37 589 34 647 29 c 1
 647 0 l 1
 391 0 l 1
 391 29 l 1
 436 33 l 2
 468 36 473 47 463 76 c 2
 396 267 l 1
 172 267 l 1
 149 196 128 134 111 74 c 0
 103 47 106 37 136 34 c 2
 188 29 l 1
 188 0 l 1
 -32 0 l 1
185 305 m 1
 384 305 l 1
 285 591 l 1
 282 591 l 1
 252 503 217 405 185 305 c 1
262 760 m 0
 262 708 284 692 312 692 c 0
 340 692 362 708 362 760 c 0
 362 812 340 828 312 828 c 0
 284 828 262 812 262 760 c 0
EndSplineSet
EndChar

StartChar: trademark
Encoding: 8482 8482 172
Width: 1100
Flags: HW
HStem: 277 23<128 344 128 128> 637 55<554 558 554 554 912 916 912 912> 665 27<128.5 165 165 197 275 309 275 275> 669 23<465 465 1048 1048>
VStem: 45 21<591 692> 197 78<339 665> 405 21<591 692> 521 33<405 630 630 637> 916 76<339 630>
LayerCount: 2
Fore
SplineSet
45 591 m 1
 45 692 l 1
 426 692 l 1
 426 591 l 1
 405 591 l 1
 394 654 379 665 309 665 c 2
 275 665 l 1xaf80
 275 339 l 2
 275 308 278 304 344 300 c 1
 344 277 l 1
 128 277 l 1
 128 300 l 1
 193 304 197 308 197 339 c 2
 197 665 l 1
 165 665 l 2
 92 665 77 654 66 591 c 1
 45 591 l 1
461 277 m 1
 461 300 l 1
 497 303 515 307 518 331 c 0
 520 351 521 373 521 405 c 2
 521 630 l 2
 521 661 518 664 465 669 c 1x9f80
 465 692 l 1
 617 692 l 1
 639 639 665 586 690 532 c 2
 757 390 l 1
 759 390 l 1
 826 533 l 2
 851 586 877 639 899 692 c 1
 1048 692 l 1xaf80
 1048 669 l 1
 995 664 992 661 992 630 c 2x9f80
 992 339 l 2
 992 308 995 304 1048 300 c 1
 1048 277 l 1
 860 277 l 1
 860 300 l 1
 913 304 916 308 916 339 c 2
 916 637 l 1
 912 637 l 1
 745 288 l 1
 724 288 l 1
 558 637 l 1
 554 637 l 1xcf80
 554 405 l 2
 554 373 556 351 558 331 c 0
 561 307 578 304 628 300 c 1
 628 277 l 1
 461 277 l 1
EndSplineSet
EndChar

StartChar: registered
Encoding: 174 174 173
Width: 818
Flags: HW
HStem: -15 45<325 493 325 509.5> 159 15<553 597> 159 22 334 28<360 394 360 398> 512 28<384.5 424> 662 45<325 493>
VStem: 45 64<257.5 434.5 257.5 446> 295 65<211 334 362 486 486 491> 484 70<418.5 468.5> 709 64<257.5 434.5>
LayerCount: 2
Fore
SplineSet
45 346 m 0
 45 546 208 707 409 707 c 0
 610 707 773 546 773 346 c 0
 773 146 610 -15 409 -15 c 0
 208 -15 45 146 45 346 c 0
109 346 m 0
 109 169 241 30 409 30 c 0
 577 30 709 169 709 346 c 0
 709 523 577 662 409 662 c 0
 241 662 109 523 109 346 c 0
244 159 m 1
 244 179 l 1
 275 183 l 2
 292 185 295 194 295 211 c 2xbfc0
 295 486 l 2
 295 505 292 513 275 516 c 2
 244 520 l 1
 244 540 l 1
 424 540 l 2
 521 540 554 500 554 446 c 0
 554 391 513 360 457 351 c 1
 457 349 l 1
 517 334 527 297 535 253 c 0
 540 224 549 206 562 191 c 0
 570 183 583 178 597 174 c 1
 597 159 l 1
 553 159 l 2
 510 159 490 174 480 202 c 0xdfc0
 466 242 463 285 454 304 c 0
 444 325 425 334 394 334 c 2
 360 334 l 1
 360 211 l 2
 360 194 364 185 382 183 c 2
 412 179 l 1
 412 159 l 1xbfc0
 244 159 l 1
360 362 m 1
 398 362 l 2
 449 362 484 383 484 438 c 0
 484 499 443 512 405 512 c 0
 364 512 360 506 360 491 c 2
 360 362 l 1
EndSplineSet
EndChar

StartChar: eth
Encoding: 240 240 184
Width: 577
Flags: HW
HStem: -12 35<237.5 338.5 237.5 366> 467 35<237.5 301.5 210.5 342> 479 20G<346 346> 657 20G<446 446> 722 20G<160 160>
VStem: 49 104<178 312 178 325> 424 104<178 311 165 319.5>
LayerCount: 2
Fore
SplineSet
49 245 m 0
 49 405 129 502 292 502 c 0xde
 311 502 327 499 344 496 c 1
 346 499 l 1
 324 529 296 561 262 594 c 1
 132 535 l 1
 107 571 l 1xbe
 229 625 l 1
 197 654 158 685 117 716 c 1
 117 725 l 1
 160 742 l 1
 207 714 253 682 290 652 c 1
 421 713 l 1
 446 677 l 1
 327 623 l 1
 365 592 398 560 422 531 c 0
 496 442 528 367 528 255 c 0
 528 75 445 -12 287 -12 c 0
 129 -12 49 85 49 245 c 0
153 245 m 0xde
 153 111 188 23 287 23 c 0
 390 23 424 111 424 245 c 0
 424 394 397 467 287 467 c 0
 188 467 153 379 153 245 c 0xde
EndSplineSet
EndChar

StartChar: ccedilla
Encoding: 231 231 188
Width: 496
Flags: HMW
HStem: -230 29<199 258.5> -10 50<261 261 302 302> 467 35<246.5 303.5>
VStem: 49 104<211 306.5> 287 78<-165.5 -120.5>
LayerCount: 2
Fore
SplineSet
49 240 m 0
 49 373 110 502 292 502 c 0
 400 502 466 451 466 405 c 0
 466 367 427 354 406 354 c 0
 387 354 381 364 375 380 c 0
 355 434 326 467 281 467 c 0
 212 467 153 407 153 258 c 0
 153 164 181 40 300 40 c 0
 373 40 413 76 444 146 c 1
 473 132 l 1
 448 36 369 -4 302 -10 c 1
 276 -55 l 1
 313 -60 365 -78 365 -142 c 0
 365 -219 274 -230 243 -230 c 0
 225 -230 213 -229 199 -227 c 1
 199 -201 l 1
 248 -201 287 -186 287 -145 c 0
 287 -96 243 -92 225 -91 c 1
 221 -84 l 1
 261 -10 l 1
 124 -4 49 81 49 240 c 0
EndSplineSet
EndChar

StartChar: multiply
Encoding: 215 215 189
Width: 570
Flags: HMW
HStem: 22 456<104 104 104 465>
VStem: 63 444<66 66 66 432>
LayerCount: 2
Fore
SplineSet
63 66 m 1
 242 250 l 1
 63 432 l 1
 104 478 l 1
 285 294 l 1
 465 478 l 1
 507 432 l 1
 328 250 l 1
 507 66 l 1
 465 22 l 1
 285 206 l 1
 104 22 l 1
 63 66 l 1
EndSplineSet
EndChar

StartChar: divide
Encoding: 247 247 190
Width: 570
Flags: HMW
HStem: 26 118<268 301> 221 58<43 527 43 527> 356 118<268 301>
VStem: 225 117<69 101.5 399 431.5>
LayerCount: 2
Fore
SplineSet
225 86 m 0
 225 117 251 144 285 144 c 0
 317 144 342 117 342 86 c 0
 342 52 317 26 285 26 c 0
 251 26 225 52 225 86 c 0
225 416 m 0
 225 447 251 474 285 474 c 0
 317 474 342 447 342 416 c 0
 342 382 317 356 285 356 c 0
 251 356 225 382 225 416 c 0
EndSplineSet
Refer: 150 8722 S 1 0 0 1 0 0 3
EndChar

StartChar: twosuperior
Encoding: 178 178 191
Width: 380
Flags: HMW
HStem: 272 59<107 269 269 285 107 321> 652 28<174.5 208.5>
VStem: 245 86<562.5 602>
LayerCount: 2
Back
SplineSet
38 278 m 1
 51 325 79 366 161 430 c 0
 219 476 255 512 255 576 c 0
 255 620 240 659 189 659 c 0
 148 659 122 626 111 585 c 0
 108 575 104 569 92 569 c 0
 81 569 55 579 55 599 c 0
 55 630 103 680 194 680 c 0
 264 680 325 651 325 568 c 0
 325 501 276 474 212 432 c 0
 150 392 111 349 100 318 c 1
 271 318 l 2
 298 318 311 322 325 354 c 1
 343 351 l 1
 321 272 l 1
 45 272 l 1
 38 278 l 1
EndSplineSet
Fore
SplineSet
32 282 m 1
 39 330 76 384 165 445 c 0
 232 491 245 543 245 582 c 0
 245 622 227 652 190 652 c 0
 159 652 133 630 121 572 c 0
 118 556 112 548 95 548 c 0
 74 548 50 563 50 584 c 0
 50 629 99 680 193 680 c 0
 278 680 331 644 331 571 c 0
 331 508 287 472 198 423 c 0
 138 390 116 355 107 331 c 1
 269 331 l 2
 301 331 312 341 325 366 c 1
 348 361 l 1
 321 272 l 1
 41 272 l 1
 32 282 l 1
EndSplineSet
EndChar

StartChar: idieresis
Encoding: 239 239 197
Width: 291
Flags: HW
HStem: 0 29<32 99.0117 209.325 276> 452 25<37 75> 482 20<68.4 201> 570 113<-6.78589 90.1926 201.807 298.516>
VStem: -19 121<582.923 670.461> 107 94<35.6418 444.937> 190 120<582.053 671.308>
LayerCount: 2
Fore
SplineSet
-19 627 m 0xf8
 -19 656 3 683 42 683 c 0
 81 683 102 656 102 627 c 0
 102 598 81 570 42 570 c 0
 3 570 -19 598 -19 627 c 0xf8
190 627 m 0xfa
 190 656 211 683 250 683 c 0
 290 683 310 656 310 627 c 0
 310 598 290 570 250 570 c 0
 211 570 190 598 190 627 c 0xfa
EndSplineSet
Refer: 144 305 S 1 0 0 1 0 0 3
EndChar

StartChar: threesuperior
Encoding: 179 179 205
Width: 380
Flags: HW
HStem: 265 28<166 202 166 227> 468 19 468 33<168.5 192.5> 652 28<164.5 206.5>
VStem: 239 82<559 589.5> 253 86<350 421.5>
LayerCount: 2
Back
SplineSet
42 333 m 0xf5
 42 355 65 366 77 366 c 0
 86 366 93 360 97 349 c 0
 110 315 139 286 183 286 c 0
 230 286 269 311 269 382 c 0xf5
 269 434 238 481 181 481 c 0
 149 481 131 475 123 475 c 0
 114 475 111 482 111 492 c 0
 111 503 114 508 123 508 c 0
 131 508 149 502 181 502 c 0
 238 502 251 547 251 583 c 0
 251 617 239 659 186 659 c 0
 149 659 124 633 109 592 c 0
 106 584 101 580 92 580 c 0
 83 580 59 590 59 609 c 0
 59 635 103 680 191 680 c 0
 262 680 320 651 320 584 c 0xee
 320 525 262 500 226 495 c 1
 226 493 l 1
 263 490 339 465 339 385 c 0
 339 308 279 265 182 265 c 0
 88 265 42 307 42 333 c 0xf5
EndSplineSet
Fore
SplineSet
36 341 m 0
 36 365 60 385 81 385 c 0
 93 385 100 378 104 365 c 0
 120 315 149 293 183 293 c 0
 221 293 253 316 253 384 c 0xb4
 253 459 201 468 184 468 c 0xb4
 153 468 136 461 127 461 c 0
 114 461 110 472 110 484 c 0
 110 496 113 508 127 508 c 0
 136 508 153 501 184 501 c 0xb8
 225 501 239 541 239 577 c 0
 239 602 231 652 182 652 c 0
 147 652 129 624 117 577 c 0
 113 563 104 559 94 559 c 0
 76 559 53 573 53 596 c 0
 53 635 104 680 187 680 c 0
 248 680 321 657 321 581 c 0xd8
 321 518 265 496 233 489 c 1
 233 487 l 1xd4
 265 485 339 461 339 382 c 0
 339 306 279 265 175 265 c 0
 94 265 36 300 36 341 c 0
EndSplineSet
EndChar

StartChar: Eth
Encoding: 208 208 208
Width: 785
Flags: HW
HStem: 0 29<41 353 41 41> 0 35<290.5 353> 341 38<20 131 20 131 230 368> 657 35<292.5 346> 663 29<41 373>
VStem: 131 99<93 125 125 341 379 599 599 600> 625 112<283 408.5 283 438.5>
LayerCount: 2
Fore
SplineSet
20 341 m 1
 20 379 l 1
 131 379 l 1
 131 599 l 2
 131 655 129 657 41 663 c 1x6e
 41 692 l 1
 373 692 l 2
 493 691 582 666 647 605 c 0
 708 546 737 459 737 358 c 0
 737 208 681 115 607 64 c 0
 533 13 442 0 353 0 c 2
 41 0 l 1x76
 41 29 l 1
 129 35 131 37 131 93 c 2xb6
 131 341 l 1
 20 341 l 1
230 125 m 2
 230 46 247 35 334 35 c 0
 502 35 625 102 625 354 c 0
 625 523 561 653 346 657 c 0
 239 657 230 652 230 600 c 2
 230 379 l 1
 368 379 l 1
 368 341 l 1x76
 230 341 l 1
 230 125 l 2
EndSplineSet
EndChar

StartChar: plusminus
Encoding: 177 177 209
Width: 570
Flags: HMW
HStem: 0 58<43 527 43 527> 311 58<43 252 43 252 320 527>
VStem: 252 68<114 311 114 311 369 556>
LayerCount: 2
Fore
SplineSet
43 311 m 1
 43 369 l 1
 252 369 l 1
 252 556 l 1
 320 556 l 1
 320 369 l 1
 527 369 l 1
 527 311 l 1
 320 311 l 1
 320 114 l 1
 252 114 l 1
 252 311 l 1
 43 311 l 1
EndSplineSet
Refer: 150 8722 S 1 0 0 1 0 -221 2
EndChar

StartChar: copyright
Encoding: 169 169 217
Width: 818
Flags: HMW
HStem: -15 45<325 493 325 509.5> 149 28<381.5 455> 522 28<382 454 360.5 469.5> 662 45<325 493>
VStem: 45 64<257.5 434.5 257.5 446> 219 81<314.5 400.5 314.5 408.5> 543 20<421 421> 709 64<257.5 434.5>
LayerCount: 2
Fore
SplineSet
45 346 m 0
 45 546 208 707 409 707 c 0
 610 707 773 546 773 346 c 0
 773 146 610 -15 409 -15 c 0
 208 -15 45 146 45 346 c 0
109 346 m 0
 109 169 241 30 409 30 c 0
 577 30 709 169 709 346 c 0
 709 523 577 662 409 662 c 0
 241 662 109 523 109 346 c 0
219 348 m 0
 219 469 291 550 430 550 c 0
 478 550 532 539 563 519 c 1
 563 421 l 1
 543 421 l 1
 533 475 511 522 428 522 c 0
 336 522 300 444 300 357 c 0
 300 272 330 177 433 177 c 0
 498 177 532 209 551 280 c 1
 571 280 l 1
 560 180 l 1
 534 161 487 149 423 149 c 0
 276 149 219 235 219 348 c 0
EndSplineSet
EndChar

StartChar: Ccedilla
Encoding: 199 199 219
Width: 680
Flags: HW
HStem: -230 29<313 372.5> -15 35<413 454> -13 33<374 374> 648 20G<633 633> 672 35<411 462>
VStem: 48 112<283.5 397.5> 401 78<-165.5 -120.5> 603 30<512 668>
LayerCount: 2
Fore
SplineSet
48 341 m 0
 48 454 82 540 139 604 c 0
 199 671 298 707 421 707 c 0xaf
 512 707 588 689 633 668 c 1xd7
 633 512 l 1
 603 512 l 1
 584 630 513 672 411 672 c 0
 225 673 160 508 160 344 c 0
 160 223 203 20 409 20 c 0
 540 20 591 96 619 200 c 1
 649 200 l 1
 635 33 l 1
 587 7 495 -15 413 -15 c 1
 390 -55 l 1
 427 -60 479 -78 479 -142 c 0
 479 -219 388 -230 357 -230 c 0
 339 -230 327 -229 313 -227 c 1
 313 -201 l 1
 362 -201 401 -186 401 -145 c 0
 401 -96 357 -92 339 -91 c 1
 335 -84 l 1xcf
 374 -13 l 1
 279 -9 198 15 143 70 c 0
 83 130 48 224 48 341 c 0
EndSplineSet
EndChar

StartChar: Thorn
Encoding: 222 222 223
Width: 593
Flags: HMW
HStem: 0 29<35 322 35 35> 182 35<257 302 224 335> 518 35<269 305 305 338 224 344.5> 663 29<35 314 35 314>
VStem: 125 99<93 182 244 258 258 481 553 599> 449 107<312.5 406.5 300.5 416.5>
LayerCount: 2
Fore
SplineSet
35 0 m 1
 35 29 l 1
 123 35 125 37 125 93 c 2
 125 599 l 2
 125 655 123 657 35 663 c 1
 35 692 l 1
 314 692 l 1
 314 663 l 1
 227 657 224 655 224 599 c 2
 224 553 l 1
 305 553 l 2
 371 553 433 547 481 517 c 0
 526 489 556 438 556 375 c 0
 556 226 427 182 302 182 c 2
 224 182 l 1
 224 93 l 2
 224 37 227 35 322 29 c 1
 322 0 l 1
 35 0 l 1
224 258 m 2
 224 230 231 217 283 217 c 0
 387 217 449 256 449 369 c 0
 449 464 392 518 297 518 c 0
 241 518 224 515 224 481 c 2
 224 258 l 2
EndSplineSet
EndChar

StartChar: uni0237
Encoding: 567 567 227
Width: 280
Flags: W
HStem: -242 24<-31 5.58278> 452 25<36 74> 482 20G<67.4 200>
VStem: 106 94<-129.337 444.814>
LayerCount: 2
Fore
SplineSet
-33 -218 m 1
 28 -203 62 -182 80 -147 c 0
 101 -106 106 -36 106 36 c 2
 106 402 l 2
 106 436 100 443 74 447 c 2
 36 452 l 1
 36 477 l 1
 193 502 l 1
 200 496 l 1
 200 7 l 2
 200 -118 170 -205 43 -233 c 0
 15 -239 -13 -242 -31 -242 c 1
 -33 -218 l 1
EndSplineSet
EndChar

StartChar: uni00B5
Encoding: 181 181 228
Width: 606
Flags: HW
HStem: -12 54<262 291.5> 0 29<431 591> 476 20G<190 190 516 516> 482 20G<183 183 509 509>
VStem: 96 94<117 156 156 402 402 420> 422 94<177 402 402 420>
LayerCount: 2
Fore
SplineSet
26 452 m 1
 26 477 l 1
 183 502 l 1
 190 496 l 1
 190 156 l 2
 190 78 233 42 291 42 c 0
 343 42 391 71 414 117 c 0
 419 127 422 149 422 177 c 2
 422 402 l 2
 422 438 416 443 390 447 c 2
 352 452 l 1
 352 477 l 1
 509 502 l 1
 516 496 l 1xac
 516 87 l 2
 516 38 522 34 591 29 c 1
 591 0 l 1x5c
 431 0 l 1x5c
 421 60 l 1
 392 46 329 -12 254 -12 c 0
 203 -12 176 -1 151 21 c 1
 149 21 l 1
 149 -12 l 2
 149 -52 165 -95 178 -121 c 0
 191 -146 203 -170 204 -185 c 0
 206 -219 160 -246 132 -246 c 0
 112 -246 96 -238 96 -199 c 2
 96 402 l 2
 96 438 90 443 64 447 c 2
 26 452 l 1
EndSplineSet
EndChar

StartChar: grave.cap
Encoding: 63182 63182 229
Width: 400
Flags: W
HStem: 742 21G<209.286 280> 742 21G<209.286 280> 798 92<48.6528 100>
VStem: 39 242
LayerCount: 2
Fore
SplineSet
39 838 m 0xb0
 37 858 56 887 71 890 c 0
 87 893 101 887 136 863 c 2
 281 764 l 1
 270 742 l 1
 100 798 l 2
 55 812 41 819 39 838 c 0xb0
EndSplineSet
EndChar

StartChar: acute.cap
Encoding: 63177 63177 230
Width: 400
Flags: W
HStem: 742 21G<120 190.714> 798 92<300 351.347>
VStem: 119 242
LayerCount: 2
Fore
SplineSet
119 764 m 1
 264 863 l 2
 299 887 313 893 329 890 c 0
 344 887 363 858 361 838 c 0
 359 819 345 812 300 798 c 2
 130 742 l 1
 119 764 l 1
EndSplineSet
EndChar

StartChar: circumflex.cap
Encoding: 61431 61431 231
Width: 400
Flags: W
HStem: 792 84<165.459 234.623>
VStem: 47 306
LayerCount: 2
Fore
SplineSet
47 738 m 1
 163 852 l 2
 177 865 188 876 200 876 c 0
 212 876 224 864 237 852 c 2
 353 738 l 1
 340 717 l 1
 233 778 l 2
 220 785 209 792 200 792 c 0
 192 792 180 785 167 778 c 2
 60 717 l 1
 47 738 l 1
EndSplineSet
EndChar

StartChar: dieresis.cap
Encoding: 63179 63179 232
Width: 400
Flags: HW
HStem: 732 109<49.6399 142.683 257.64 350.683>
VStem: 38 116<743.625 829.736> 246 116<743.625 829.736>
LayerCount: 2
Fore
SplineSet
38 787 m 0
 38 815 59 841 96 841 c 0
 134 841 154 815 154 787 c 0
 154 759 134 732 96 732 c 0
 59 732 38 759 38 787 c 0
246 787 m 0
 246 815 267 841 304 841 c 0
 342 841 362 815 362 787 c 0
 362 759 342 732 304 732 c 0
 267 732 246 759 246 787 c 0
EndSplineSet
EndChar

StartChar: tilde.cap
Encoding: 61429 61429 233
Width: 400
Flags: W
HStem: 736 60<206.299 328.782> 774 60<75.8165 203.035>
LayerCount: 2
Fore
SplineSet
23 736 m 1x80
 43 776 71 834 135 834 c 0x40
 159 834 187 825 214 815 c 0
 242 806 269 796 290 796 c 0
 318 796 330 807 358 842 c 1
 378 831 l 1
 349 774 323 736 274 736 c 0x80
 252 736 223 746 194 755 c 0
 165 765 136 774 114 774 c 0x40
 81 774 64 758 42 723 c 1
 23 736 l 1x80
EndSplineSet
EndChar

StartChar: caron.cap
Encoding: 63178 63178 234
Width: 400
Flags: HW
HStem: 723 84<165.459 234.623>
VStem: 47 306
LayerCount: 2
Fore
SplineSet
47 861 m 1
 60 882 l 1
 167 821 l 2
 180 814 192 807 200 807 c 0
 209 807 220 814 233 821 c 2
 340 882 l 1
 353 861 l 1
 237 747 l 2
 224 735 212 723 200 723 c 0
 188 723 177 734 163 747 c 2
 47 861 l 1
EndSplineSet
EndChar

StartChar: perthousandzero
Encoding: 61698 61698 235
Width: 415
Flags: MW
HStem: -12 366<207 207> -12 32<165.12 249.4> 322 32<164.685 249.846>
VStem: 50 74<63.5144 278.817> 291 74<63.5144 278.817>
LayerCount: 2
Fore
SplineSet
50 171 m 0
 50 286 101 354 207 354 c 0
 314 354 365 286 365 171 c 0
 365 56 314 -12 207 -12 c 0
 101 -12 50 56 50 171 c 0
124 171 m 0
 124 75 155 20 207 20 c 0
 260 20 291 75 291 171 c 0
 291 275 258 322 207 322 c 0
 157 322 124 275 124 171 c 0
EndSplineSet
EndChar

StartChar: afii10071
Encoding: 1105 1105 260
Width: 514
Flags: HW
HStem: -12 51<223.856 377.18> 263 38<154 375.625> 467 35<217.391 328.674> 570 113<144.5 183.5 352.5 392>
VStem: 49 104<124.423 263 301 368.002> 104 120<612.5 641.5> 312 120<612.5 641.5> 377 104<284.5 403.397>
LayerCount: 2
Back
SplineSet
93 627 m 0
 93 656 114 683 153 683 c 0
 192 683 213 656 213 627 c 0
 213 598 192 570 153 570 c 0
 114 570 93 598 93 627 c 0
301 627 m 0
 301 656 322 683 361 683 c 0
 400 683 421 656 421 627 c 0
 421 598 400 570 361 570 c 0
 322 570 301 598 301 627 c 0
EndSplineSet
Refer: 69 101 N 1 0 0 1 0 0 2
Fore
Refer: 130 168 N 1 0 0 1 68 0 2
Refer: 69 101 N 1 0 0 1 0 0 3
EndChar

StartChar: afii10079
Encoding: 1085 1085 263
Width: 624
VWidth: 0
Flags: HMW
HStem: 0 29<32 99.0117 209.325 276 348 415.012 525.325 592> 235 35<191 441> 461 29<32 98.6748 208.988 276 348 414.675 524.988 592>
VStem: 107 94<35.6418 235 270 454.358> 423 94<35.6418 235 270 454.358>
CounterMasks: 1 e0
LayerCount: 2
Back
SplineSet
32 0 m 1
 32 29 l 1
 104 34 107 36 107 87 c 2
 107 402 l 2
 107 438 101 443 75 447 c 2
 37 452 l 1
 37 477 l 1
 186 502 l 1
 200 426 l 1
 262 466 308 502 382 502 c 0
 474 502 529 444 529 343 c 2
 529 87 l 2
 529 36 533 34 604 29 c 1
 604 0 l 1
 360 0 l 1
 360 29 l 1
 432 34 435 36 435 87 c 2
 435 323 l 2
 435 410 398 448 330 448 c 0
 277 448 232 415 211 376 c 0
 203 360 201 346 201 321 c 2
 201 87 l 2
 201 36 205 34 276 29 c 1
 276 0 l 1
 32 0 l 1
EndSplineSet
Fore
SplineSet
191 235 m 5
 191 270 l 5
 441 270 l 5
 441 235 l 5
 191 235 l 5
32 0 m 1
 32 29 l 1
 104 34 107 36 107 87 c 2
 107 403 l 2
 107 454 104 456 32 461 c 1
 32 490 l 1
 276 490 l 1
 276 461 l 1
 204 456 201 454 201 403 c 2
 201 87 l 2
 201 36 204 34 276 29 c 1
 276 0 l 1
 32 0 l 1
348 0 m 1
 348 29 l 1
 420 34 423 36 423 87 c 2
 423 403 l 2
 423 454 420 456 348 461 c 1
 348 490 l 1
 592 490 l 1
 592 461 l 1
 520 456 517 454 517 403 c 2
 517 87 l 2
 517 36 520 34 592 29 c 1
 592 0 l 1
 348 0 l 1
EndSplineSet
EndChar

StartChar: afii10081
Encoding: 1087 1087 264
Width: 618
VWidth: 0
Flags: MW
HStem: 0 29<32 99.0117 208.988 276 342 409.012 518.988 586> 455 35<32 104.107 192 442 513.893 586>
VStem: 107 94<35.6418 450.503> 417 94<35.6418 450.503>
LayerCount: 2
Fore
SplineSet
192 455 m 1
 192 490 l 1
 442 490 l 1
 442 455 l 1
 192 455 l 1
32 0 m 1
 32 29 l 1
 104 34 107 36 107 87 c 2
 107 403 l 2
 107 454 104 456 32 461 c 1
 32 490 l 1
 276 490 l 1
 276 455 l 1
 201 452 201 451 201 400 c 2
 201 87 l 2
 201 36 204 34 276 29 c 1
 276 0 l 1
 32 0 l 1
342 0 m 1
 342 29 l 1
 414 34 417 36 417 87 c 2
 417 400 l 2
 417 451 417 452 342 455 c 1
 342 490 l 1
 586 490 l 1
 586 461 l 1
 514 456 511 454 511 403 c 2
 511 87 l 2
 511 36 514 34 586 29 c 1
 586 0 l 1
 342 0 l 1
EndSplineSet
EndChar

StartChar: afii10090
Encoding: 1096 1096 265
Width: 904
VWidth: 0
Flags: MW
HStem: 0 35<32 104.107 204.481 699.519 799.893 872> 461 29<32 99.0117 208.988 276 330 397.012 506.988 574 628 695.012 804.988 872>
VStem: 107 94<39.4969 454.358> 405 94<39.4969 90 90 454.358> 703 94<39.4969 90 90 454.358>
CounterMasks: 1 38
LayerCount: 2
Fore
SplineSet
872 490 m 1
 872 461 l 1
 800 456 797 454 797 403 c 2
 797 87 l 2
 797 36 800 34 872 29 c 1
 872 0 l 1
 628 0 l 1
 628 35 l 1
 703 38 703 39 703 90 c 2
 703 403 l 2
 703 454 700 456 628 461 c 1
 628 490 l 1
 872 490 l 1
686 35 m 1
 686 0 l 1
 216 0 l 1
 216 35 l 1
 686 35 l 1
574 490 m 1
 574 461 l 1
 502 456 499 454 499 403 c 2
 499 90 l 2
 499 39 499 38 574 35 c 1
 574 0 l 1
 330 0 l 1
 330 35 l 1
 405 38 405 39 405 90 c 2
 405 403 l 2
 405 454 402 456 330 461 c 1
 330 490 l 1
 574 490 l 1
276 490 m 1
 276 461 l 1
 204 456 201 454 201 403 c 2
 201 90 l 2
 201 39 201 38 276 35 c 1
 276 0 l 1
 32 0 l 1
 32 29 l 1
 104 34 107 36 107 87 c 2
 107 403 l 2
 107 454 104 456 32 461 c 1
 32 490 l 1
 276 490 l 1
EndSplineSet
EndChar

StartChar: afii10088
Encoding: 1094 1094 266
Width: 616
VWidth: 0
Flags: MW
HStem: -168 20 0 35<32 104.107 204.481 406 406 586> 461 29<32 99.0117 208.988 276 342 409.012 518.988 586>
VStem: 107 94<39.4969 454.358> 415 94<39.4969 454.358> 571 28<-168 -88.9206>
CounterMasks: 1 0c
LayerCount: 2
Fore
SplineSet
584 490 m 1
 584 461 l 1
 512 456 509 454 509 403 c 2
 509 90 l 2
 509 39 509 38 584 35 c 1
 584 0 l 1
 340 0 l 1
 340 35 l 1
 415 38 415 39 415 90 c 2
 415 403 l 2
 415 454 412 456 340 461 c 1
 340 490 l 1
 584 490 l 1
404 35 m 25
 586 35 l 17
 599 -168 l 1
 571 -168 l 1
 556 -22 524 0 404 0 c 9
 404 35 l 25
384 35 m 1
 384 0 l 1
 216 0 l 1
 216 35 l 1
 384 35 l 1
276 490 m 1
 276 461 l 1
 204 456 201 454 201 403 c 2
 201 90 l 2
 201 39 201 38 276 35 c 1
 276 0 l 1
 32 0 l 1
 32 29 l 1
 104 34 107 36 107 87 c 2
 107 403 l 2
 107 454 104 456 32 461 c 1
 32 490 l 1
 276 490 l 1
EndSplineSet
EndChar

StartChar: afii10091
Encoding: 1097 1097 267
Width: 904
VWidth: 0
Flags: MW
HStem: -168 20 0 35<32 104.107 204.481 692 692 872> 461 29<32 99.0117 208.988 276 330 397.012 506.988 574 628 695.012 804.988 872>
VStem: 107 94<39.4969 454.358> 405 94<39.4969 454.358> 703 94<39.4969 454.358> 859 28<-168 -88.9206>
CounterMasks: 2 1c 06
LayerCount: 2
Back
SplineSet
872 490 m 1
 872 461 l 1
 800 456 797 454 797 403 c 2
 797 87 l 2
 797 36 800 34 872 29 c 1
 872 0 l 1
 628 0 l 1
 628 35 l 1
 703 38 703 39 703 90 c 2
 703 403 l 2
 703 454 700 456 628 461 c 1
 628 490 l 1
 872 490 l 1
686 35 m 1
 686 0 l 1
 216 0 l 1
 216 35 l 1
 686 35 l 1
574 490 m 1
 574 461 l 1
 502 456 499 454 499 403 c 2
 499 90 l 2
 499 39 499 38 574 35 c 1
 574 0 l 1
 330 0 l 1
 330 35 l 1
 405 38 405 39 405 90 c 2
 405 403 l 2
 405 454 402 456 330 461 c 1
 330 490 l 1
 574 490 l 1
276 490 m 1
 276 461 l 1
 204 456 201 454 201 403 c 2
 201 90 l 2
 201 39 201 38 276 35 c 1
 276 0 l 1
 32 0 l 1
 32 29 l 1
 104 34 107 36 107 87 c 2
 107 403 l 2
 107 454 104 456 32 461 c 1
 32 490 l 1
 276 490 l 1
EndSplineSet
Fore
SplineSet
872 490 m 1
 872 461 l 1
 800 456 797 454 797 403 c 2
 797 90 l 2
 797 39 797 38 872 35 c 1
 872 0 l 1
 628 0 l 1
 628 35 l 1
 703 38 703 39 703 90 c 2
 703 403 l 2
 703 454 700 456 628 461 c 1
 628 490 l 1
 872 490 l 1
692 35 m 25
 874 35 l 17
 887 -168 l 1
 859 -168 l 1
 844 -22 812 0 692 0 c 9
 692 35 l 25
686 35 m 1
 686 0 l 1
 216 0 l 1
 216 35 l 1
 686 35 l 1
574 490 m 1
 574 461 l 1
 502 456 499 454 499 403 c 2
 499 90 l 2
 499 39 499 38 574 35 c 1
 574 0 l 1
 330 0 l 1
 330 35 l 1
 405 38 405 39 405 90 c 2
 405 403 l 2
 405 454 402 456 330 461 c 1
 330 490 l 1
 574 490 l 1
276 490 m 1
 276 461 l 1
 204 456 201 454 201 403 c 2
 201 90 l 2
 201 39 201 38 276 35 c 1
 276 0 l 1
 32 0 l 1
 32 29 l 1
 104 34 107 36 107 87 c 2
 107 403 l 2
 107 454 104 456 32 461 c 1
 32 490 l 1
 276 490 l 1
EndSplineSet
EndChar

StartChar: afii10096
Encoding: 1102 1102 268
Width: 828
VWidth: 0
Flags: HMW
HStem: -12 35<476.854 603.146> 0 29<32 99.0117 208.988 276> 235 35<201 362> 461 29<32 99.0117 208.988 276> 467 35<476.854 603.146>
VStem: 107 94<35.6418 235 270 454.358> 300 104<118.85 371.15> 676 104<118.85 371.15>
LayerCount: 2
Fore
SplineSet
201 235 m 1x27
 201 270 l 1
 362 270 l 1
 362 235 l 1
 201 235 l 1x27
32 0 m 1x77
 32 29 l 1
 104 34 107 36 107 87 c 2
 107 403 l 2
 107 454 104 456 32 461 c 1
 32 490 l 1
 276 490 l 1
 276 461 l 1
 204 456 201 454 201 403 c 2
 201 87 l 2
 201 36 204 34 276 29 c 1
 276 0 l 1
 32 0 l 1x77
EndSplineSet
Refer: 79 111 N 1 0 0 1 251 0 2
EndChar

StartChar: afii10074
Encoding: 1080 1080 269
Width: 632
VWidth: 0
Flags: W
HStem: 0 29<32 99.0117 208.988 276 356 423.012 532.988 600> 461 29<32 99.0117 208.988 276 356 423.012 532.988 600>
VStem: 107 94<35.6418 87 102.73 454.358> 431 94<35.6418 393.27 403 454.358>
LayerCount: 2
Fore
SplineSet
193.224 77.8008 m 1
 164.544 102.73 l 1
 438.777 418.199 l 1
 467.456 393.27 l 1
 193.224 77.8008 l 1
32 0 m 1
 32 29 l 1
 104 34 107 36 107 87 c 2
 107 403 l 2
 107 454 104 456 32 461 c 1
 32 490 l 1
 276 490 l 1
 276 461 l 1
 204 456 201 454 201 403 c 2
 201 87 l 2
 201 36 204 34 276 29 c 1
 276 0 l 1
 32 0 l 1
356 0 m 1
 356 29 l 1
 428 34 431 36 431 87 c 2
 431 403 l 2
 431 454 428 456 356 461 c 1
 356 490 l 1
 600 490 l 1
 600 461 l 1
 528 456 525 454 525 403 c 2
 525 87 l 2
 525 36 528 34 600 29 c 1
 600 0 l 1
 356 0 l 1
EndSplineSet
EndChar

StartChar: afii10077
Encoding: 1083 1083 270
Width: 616
VWidth: 0
Flags: HMW
HStem: -12 35<81.5593 151.098> 0 29<340 407.012 516.988 584> 455 35<143 208.388 209 440 511.893 584>
VStem: 16 94<73.839 141.327> 218 40<204.271 449.936> 415 94<35.6418 450.503>
CounterMasks: 1 0c
LayerCount: 2
Back
SplineSet
56.4355 -0.939453 m 0
 5.0127 60.3438 8.65723 118.229 33.9375 139.442 c 0
 56.9189 158.726 88.582 147.438 101.438 132.116 c 0
 111.079 120.626 110.217 110.764 105.77 100.506 c 0
 77.4102 44.0732 83.8896 20.793 97.3887 4.70508 c 0
EndSplineSet
Fore
SplineSet
16 91 m 0xbc
 16 134 43 150 64 150 c 0
 88 150 110 132 110 111 c 0
 110 91 85 73 85 47 c 0
 85 26 104 23 114 23 c 0
 218 23 218 316 218 403 c 0
 218 454 215 456 143 461 c 1
 143 490 l 1
 333 490 l 1
 333 455 l 1
 258 452 258 451 258 400 c 0
 258 203 236 -12 126 -12 c 0
 31 -12 16 59 16 91 c 0xbc
209 455 m 1
 209 490 l 1
 440 490 l 1
 440 455 l 1
 209 455 l 1
340 0 m 1x7c
 340 29 l 1
 412 34 415 36 415 87 c 2
 415 400 l 2
 415 451 415 452 340 455 c 1
 340 490 l 1
 584 490 l 1
 584 461 l 1
 512 456 509 454 509 403 c 2
 509 87 l 2
 509 36 512 34 584 29 c 1
 584 0 l 1
 340 0 l 1x7c
EndSplineSet
EndChar

StartChar: afii10094
Encoding: 1100 1100 271
Width: 549
VWidth: 0
Flags: HMW
HStem: 0 35<32 104.107 201 361.222> 244 37<202.182 358.221> 461 29<32 99.0117 208.988 276>
VStem: 107 94<39.4969 454.358> 403 104<68.943 207.128>
LayerCount: 2
Back
SplineSet
191 235 m 1xea
 191 270 l 1
 441 270 l 1
 441 235 l 1
 191 235 l 1xea
32 0 m 1
 32 29 l 1
 104 34 107 36 107 87 c 2
 107 403 l 2
 107 454 104 456 32 461 c 1
 32 490 l 1
 276 490 l 1
 276 461 l 1
 204 456 201 454 201 403 c 2
 201 87 l 2xf0
 201 36 204 34 276 29 c 1
 276 0 l 1
 32 0 l 1
348 0 m 1
 348 29 l 1
 420 34 423 36 423 87 c 2
 423 403 l 2
 423 454 420 456 348 461 c 1
 348 490 l 1
 592 490 l 1
 592 461 l 1
 520 456 517 454 517 403 c 2
 517 87 l 2xe4
 517 36 520 34 592 29 c 1
 592 0 l 1
 348 0 l 1
EndSplineSet
Fore
SplineSet
286 490 m 1
 286 461 l 1
 204 456 201 454 201 403 c 2
 201 90 l 2
 201 39 201 38 276 35 c 1
 276 0 l 1
 32 0 l 1
 32 29 l 1
 104 34 107 36 107 87 c 2
 107 403 l 2
 107 454 104 456 32 461 c 1
 32 490 l 1
 286 490 l 1
201 0 m 9
 201 35 l 17
 283 35 l 2
 368 35 403 70 403 140 c 0
 403 193 374 244 287 244 c 0
 265 244 222 239 201 235 c 9
 201 270 l 17
 230 275 265 281 295 281 c 0
 396 281 507 242 507 139 c 0
 507 34 418 0 321 0 c 2
 201 0 l 9
EndSplineSet
EndChar

StartChar: afii10093
Encoding: 1099 1099 272
Width: 808
VWidth: 0
Flags: HW
HStem: 0 29<532 599.012 708.988 776> 0 35<32 104.107 201 361.222> 244 37<202.182 358.221> 461 29<32 99.0117 208.988 276 532 599.012 708.988 776>
VStem: 107 94<39.4969 454.358> 403 104<68.943 207.128> 607 94<35.6418 454.358>
LayerCount: 2
Fore
SplineSet
532 0 m 1xbe
 532 29 l 1
 604 34 607 36 607 87 c 2
 607 403 l 2
 607 454 604 456 532 461 c 1
 532 490 l 1
 776 490 l 1
 776 461 l 1
 704 456 701 454 701 403 c 2
 701 87 l 2
 701 36 704 34 776 29 c 1
 776 0 l 1
 532 0 l 1xbe
EndSplineSet
Refer: 271 1100 N 1 0 0 1 0 0 2
EndChar

StartChar: .notdef
Encoding: 0 0 273
Width: 608
VWidth: 2048
Flags: W
HStem: 0 43<153 455> 649 43<153 454>
VStem: 90 43<93 600> 475 43<93 600>
LayerCount: 2
Fore
SplineSet
90 0 m 1
 90 692 l 1
 518 692 l 1
 518 0 l 1
 90 0 l 1
133 93 m 1
 280 346 l 1
 133 600 l 1
 133 93 l 1
153 43 m 1
 455 43 l 1
 304 304 l 1
 153 43 l 1
153 649 m 1
 304 389 l 1
 454 649 l 1
 153 649 l 1
328 346 m 1
 475 93 l 1
 475 600 l 1
 328 346 l 1
EndSplineSet
EndChar

StartChar: cyrbreve
Encoding: 63188 63188 276
Width: 632
VWidth: 0
Flags: HMW
HStem: 568 35<243.587 388.413>
VStem: 155 100<648.157 730.905> 377 100<648.157 730.905>
LayerCount: 2
Back
SplineSet
188.367 591.313 m 0
 142.481 656.846 151.157 714.193 178.189 733.122 c 0
 202.765 750.329 233.323 736.324 244.795 719.94 c 0
 253.397 707.654 251.68 697.904 246.354 688.073 c 0
 213.186 634.327 217.611 610.57 229.656 593.367 c 0
338.64 550.317 m 0
 184.031 574.843 163.357 622.984 156.412 662.376 c 0
 149.119 703.738 171.831 736.175 195.467 740.343 c 0
 224.026 745.378 254.958 725.447 258.256 706.735 c 0
 260.341 694.917 256.805 686.171 249.679 674.76 c 0
 235.077 653.907 233.686 644.523 235.422 634.676 c 0
 237.333 623.843 249.321 607.679 284.425 598.638 c 0
EndSplineSet
Fore
SplineSet
155 667 m 0
 155 716 176 741 203 741 c 0
 239 741 255 714 255 698 c 0
 255 678 232 662 232 638 c 0
 232 617 271 603 316 603 c 0
 361 603 400 617 400 638 c 0
 400 662 377 678 377 698 c 0
 377 714 393 741 429 741 c 0
 456 741 477 716 477 667 c 0
 477 630 437 568 316 568 c 0
 195 568 155 630 155 667 c 0
EndSplineSet
EndChar

StartChar: afii10092
Encoding: 1098 1098 277
Width: 668
VWidth: 0
Flags: HMW
HStem: 0 35<151 223.107 320 480.222> 244 37<321.182 477.221> 455 35<94.5 291 322.893 395>
VStem: 18 31<342 388.35> 226 94<39.4969 454.358 39.4969 449.936> 522 104<68.943 207.128>
LayerCount: 2
Back
SplineSet
171 455 m 1
 171 490 l 1
 395 490 l 1
 395 461 l 1
 323 456 320 454 320 403 c 2
 320 90 l 2
 320 39 320 38 395 35 c 1
 395 0 l 1
 151 0 l 1
 151 29 l 1
 223 34 226 36 226 87 c 2
 226 400 l 2
 226 448 224 450 171 455 c 1
320 0 m 9
 320 35 l 17
 402 35 l 2
 487 35 522 78 522 135 c 0
 522 188 489 241 406 241 c 0
 384 241 341 239 320 235 c 9
 320 270 l 17
 349 275 384 278 414 278 c 0
 524 278 626 226 626 135 c 0
 626 40 537 0 440 0 c 2
 320 0 l 9
291 455 m 1
 164 455 l 2
 105 455 76 448 49 342 c 1
 18 342 l 1
 18 490 l 1
 291 490 l 1
 291 455 l 1
EndSplineSet
Fore
SplineSet
18 342 m 1
 18 490 l 1
 405 490 l 1
 405 461 l 1
 323 456 320 454 320 403 c 2
 320 270 l 1
 349 275 384 281 414 281 c 0
 515 281 626 242 626 139 c 0
 626 34 537 0 440 0 c 2
 141 0 l 1
 141 29 l 1
 223 34 226 36 226 87 c 2
 226 400 l 2
 226 448 224 450 171 455 c 1
 164 455 l 2
 105 455 76 448 49 342 c 1
 18 342 l 1
320 90 m 2
 320 39 320 38 395 35 c 1
 402 35 l 2
 487 35 522 70 522 140 c 0
 522 193 493 244 406 244 c 0
 384 244 341 239 320 235 c 1
 320 90 l 2
EndSplineSet
EndChar

StartChar: afii10066
Encoding: 1073 1073 278
Width: 578
Flags: W
HStem: -12 35<228.587 352.146> 467 35<227.103 352.146>
VStem: 52 38<372 489.381> 425 104<118.85 371.15>
LayerCount: 2
Back
SplineSet
49 242 m 17xd8
 49 259 49 324 49 343 c 0
 49 422 57 481 78 550 c 0
 92 598 132 688 285 709 c 0
 389 723 458 714 474 750 c 9
 500 750 l 17
 461 632 379.984 634.106 312 624 c 0
 164 602 156 588 113 510 c 0
 100.448 487.231 88 452 84 408 c 9
 88 406 l 25xe8
 49 242 l 17xd8
EndSplineSet
Refer: 79 111 N 1 0 0 1 0 0 2
Fore
SplineSet
153 245 m 0
 153 107 197 23 289 23 c 0
 381 23 425 107 425 245 c 0
 425 383 381 467 289 467 c 0
 197 467 153 383 153 245 c 0
52 318 m 0
 52 414 64 483 81 534 c 0
 94 573 150 677 281 701 c 0
 380 719 458 714 474 750 c 1
 500 750 l 1
 461 632 380 634 312 622 c 0
 184 600 147 572 116 510 c 0
 104 487 90 412 90 372 c 1
 94 370 l 1
 127 442 178 502 289 502 c 0
 450 502 529 407 529 245 c 0
 529 83 450 -12 289 -12 c 0
 65 -12 52 172 52 318 c 0
EndSplineSet
EndChar

StartChar: afii10046
Encoding: 1068 1068 279
Width: 638
Flags: W
HStem: 0 35<35 120.879 239.491 412.127> 355 35<225.02 395.766> 663 29<35 114.046 237.135 330>
VStem: 125 99<48.1836 347.947 380 653.187> 488 107<99.8693 276.936>
LayerCount: 2
Back
SplineSet
35 0 m 1
 35 29 l 1
 123 35 125 37 125 93 c 2
 125 599 l 2
 125 655 123 657 35 663 c 1
 35 692 l 1
 324 692 l 2
 404 692 462 682 501 656 c 0
 541 629 563 588 563 533 c 0xf8
 563 456 508 398 414 379 c 1
 414 377 l 1
 511 364 595 312 595 194 c 0
 595 55 497 0 345 0 c 2xf4
 35 0 l 1
224 112 m 2
 224 50 240 35 320 35 c 0
 406 35 488 67 488 187 c 0xf4
 488 293 420 355 296 355 c 2
 224 355 l 1
 224 112 l 2
224 390 m 1
 291 390 l 2
 395 390 458 429 458 527 c 0xf8
 458 630 378 657 305 657 c 0
 227 657 224 650 224 607 c 2
 224 390 l 1
EndSplineSet
Fore
SplineSet
35 0 m 1
 35 29 l 1
 123 35 125 37 125 93 c 2
 125 599 l 2
 125 655 123 657 35 663 c 1
 35 692 l 1
 330 692 l 1
 330 663 l 1
 227 657 224 655 224 599 c 2
 224 380 l 1
 253 389 287 390 331 390 c 0
 472 390 595 327 595 198 c 0
 595 53 497 0 345 0 c 2
 35 0 l 1
224 112 m 2
 224 50 240 35 320 35 c 0
 406 35 488 64 488 191 c 0
 488 297 412 355 309 355 c 0
 281 355 238 348 224 342 c 1
 224 112 l 2
EndSplineSet
EndChar

StartChar: afii10069
Encoding: 1076 1076 280
Width: 572
VWidth: 0
Flags: MW
HStem: -168 20 0 35<70 151.336 151.336 360 360 540> 455 35<99 164.388 165 396 467.893 540>
VStem: 9 28<-168 -88.9206> 174 40<198.524 449.936> 371 94<39.4969 450.503> 525 28<-168 -88.9206>
CounterMasks: 2 0c 06
LayerCount: 2
Back
SplineSet
-28 91 m 0xbc
 -28 134 -1 150 20 150 c 0
 44 150 66 133 66 112 c 0
 66 83 36 80 36 50 c 0
 36 29 54 23 70 23 c 0
 174 23 174 316 174 403 c 0
 174 454 171 456 99 461 c 1
 99 490 l 1
 289 490 l 1
 289 455 l 1
 214 452 214 451 214 400 c 0
 214 203 192 -12 82 -12 c 0
 49 -12 24 -8 0 19 c 0
 -22 44 -28 66 -28 91 c 0xbc
165 455 m 1
 165 490 l 1
 396 490 l 1
 396 455 l 1
 165 455 l 1
296 0 m 1x7c
 296 29 l 1
 368 34 371 36 371 87 c 2
 371 400 l 2
 371 451 371 452 296 455 c 1
 296 490 l 1
 540 490 l 1
 540 461 l 1
 468 456 465 454 465 403 c 2
 465 87 l 2
 465 36 468 34 540 29 c 1
 540 0 l 1
 296 0 l 1x7c
EndSplineSet
Fore
SplineSet
540 35 m 1
 540 0 l 1
 296 0 l 1
 296 35 l 1
 371 38 371 39 371 90 c 2
 371 400 l 2
 371 451 371 452 296 455 c 1
 296 490 l 1
 540 490 l 1
 540 461 l 1
 468 456 465 454 465 403 c 2
 465 90 l 2
 465 39 465 38 540 35 c 1
204 35 m 25
 204 0 l 17
 84 0 52 -22 37 -168 c 1
 9 -168 l 1
 22 35 l 9
 204 35 l 25
358 35 m 25
 540 35 l 17
 553 -168 l 1
 525 -168 l 1
 510 -22 478 0 358 0 c 9
 358 35 l 25
340 35 m 1
 340 0 l 1
 162 0 l 1
 162 35 l 1
 340 35 l 1
70 0 m 1
 56 35 l 1
 166 35 174 308 174 403 c 0
 174 454 171 456 99 461 c 1
 99 490 l 1
 289 490 l 1
 289 455 l 1
 214 452 214 451 214 400 c 0
 214 182 177 0 70 0 c 1
165 455 m 1
 165 490 l 1
 396 490 l 1
 396 455 l 1
 165 455 l 1
EndSplineSet
EndChar

StartChar: afii10068
Encoding: 1075 1075 281
Width: 472
VWidth: 0
Flags: HMW
HStem: 0 29<32 99.0117 208.988 276> 455 35<32 104.107 201 375.408>
VStem: 107 94<35.6418 450.503> 419 31<342 403.889>
LayerCount: 2
Fore
SplineSet
207 455 m 1
 206 490 l 1
 450 490 l 1
 450 342 l 1
 419 342 l 1
 406 434 385 455 277 455 c 2
 207 455 l 1
32 0 m 1
 32 29 l 1
 104 34 107 36 107 87 c 2
 107 403 l 2
 107 454 104 456 32 461 c 1
 32 490 l 1
 276 490 l 1
 276 455 l 1
 201 452 201 451 201 400 c 2
 201 86 l 2
 201 35 205 33 296 29 c 1
 296 0 l 1
 32 0 l 1
EndSplineSet
EndChar

StartChar: afii10076
Encoding: 1082 1082 282
Width: 594
VWidth: 0
Flags: HMW
HStem: -12 33<510.331 567> 0 29<32 99.0117 208.988 276> 228 35<201 281.684> 461 29<32 99.0117 208.988 276> 467 35<423.552 473.01>
VStem: 107 94<35.6418 228 263 454.358> 466 88<369.14 465.684>
LayerCount: 2
Back
SplineSet
487.399 511.182 m 0
 552.932 465.296 564.393 408.438 545.464 381.405 c 0
 528.258 356.832 494.75 359.54 478.367 371.012 c 0
 466.081 379.616 464.361 389.364 466.002 400.424 c 0
 478.789 462.273 466.505 483.084 449.302 495.129 c 0
EndSplineSet
Fore
SplineSet
201 228 m 1xae
 201 263 l 1
 218 263 l 2
 303 263 326 322 342 382 c 0
 358 442 398 502 458 502 c 0
 533 502 554 441 554 409 c 0
 554 393 544 363 509 363 c 0
 496 363 466 366 466 395 c 0
 466 409 472 426 472 447 c 0
 472 460 465 467 453 467 c 0
 432 467 397 426 388 390 c 0
 368 310 332 260 307 254 c 1
 307 252 l 17
 398 241 455 185 469 121 c 0
 487 36 517 21 567 21 c 1
 567 -12 l 1
 547 -12 l 18
 476 -12 401 4 380 86 c 0
 354 190 344 228 239 228 c 2
 201 228 l 1xae
32 0 m 1x76
 32 29 l 1
 104 34 107 36 107 87 c 2
 107 403 l 2
 107 454 104 456 32 461 c 1
 32 490 l 1
 276 490 l 1
 276 461 l 1
 204 456 201 454 201 403 c 2
 201 87 l 2
 201 36 204 34 276 29 c 1
 276 0 l 1
 32 0 l 1x76
EndSplineSet
EndChar

StartChar: afii10033
Encoding: 1055 1055 283
Width: 788
Flags: MW
HStem: 0 29<35 114.046 234.954 314 474 553.046 673.954 753> 657 35<224 564>
VStem: 125 99<37.6573 648.958> 564 99<37.6573 648.958>
LayerCount: 2
Back
SplineSet
35 0 m 1
 35 29 l 1
 123 35 125 37 125 93 c 2
 125 599 l 2
 125 655 123 657 35 663 c 1
 35 692 l 1
 314 692 l 1
 314 663 l 1
 227 657 224 655 224 599 c 2
 224 379 l 1
 574 379 l 1
 574 599 l 2
 574 655 572 657 484 663 c 1
 484 692 l 1
 763 692 l 1
 763 663 l 1
 676 657 673 655 673 599 c 2
 673 93 l 2
 673 37 676 35 763 29 c 1
 763 0 l 1
 484 0 l 1
 484 29 l 1
 572 35 574 37 574 93 c 2
 574 341 l 1
 224 341 l 1
 224 93 l 2
 224 37 227 35 314 29 c 1
 314 0 l 1
 35 0 l 1
EndSplineSet
Fore
SplineSet
564 657 m 1
 224 657 l 1
 224 692 l 1
 564 692 l 1
 564 657 l 1
753 0 m 1
 474 0 l 1
 474 29 l 1
 562 35 564 37 564 93 c 2
 564 602 l 2
 564 654 554 657 484 657 c 1
 484 692 l 1
 753 692 l 1
 753 663 l 1
 665 657 663 655 663 599 c 2
 663 93 l 2
 663 37 665 35 753 29 c 1
 753 0 l 1
35 0 m 1
 35 29 l 1
 123 35 125 37 125 93 c 2
 125 599 l 2
 125 655 123 657 35 663 c 1
 35 692 l 1
 304 692 l 1
 304 657 l 1
 234 657 224 654 224 602 c 2
 224 93 l 2
 224 37 226 35 314 29 c 1
 314 0 l 1
 35 0 l 1
EndSplineSet
EndChar

StartChar: afii10020
Encoding: 1043 1043 285
Width: 554
Flags: W
HStem: 0 29<35 114.046 237.135 330> 657 35<35 120.879 224.981 453.683>
VStem: 125 99<38.8129 654.343> 507 30<528 594.306>
LayerCount: 2
Fore
SplineSet
35 0 m 1
 35 29 l 1
 123 35 125 37 125 93 c 2
 125 599 l 2
 125 655 123 657 35 663 c 1
 35 692 l 1
 537 692 l 1
 537 528 l 1
 507 528 l 1
 493 630 468 657 352 657 c 2
 261 657 l 2
 228 657 224 654 224 621 c 2
 224 93 l 2
 224 37 227 35 330 29 c 1
 330 0 l 1
 35 0 l 1
EndSplineSet
EndChar

StartChar: afii10018
Encoding: 1041 1041 286
Width: 642
Flags: MW
HStem: 0 35<35 120.879 239.491 410.949> 361 35<225.02 395.766> 528 20 657 35<35 120.879 224.981 452.993>
VStem: 125 99<48.1836 354.857 389 654.343> 488 107<100.951 281.776> 517 30<528 578.895>
CounterMasks: 1 d0
LayerCount: 2
Back
SplineSet
35 0 m 1xf4
 35 29 l 1
 123 35 125 37 125 93 c 2
 125 599 l 2
 125 655 123 657 35 663 c 1
 35 692 l 1
 324 692 l 2
 404 692 462 682 501 656 c 0
 541 629 563 588 563 533 c 0xf8
 563 456 508 398 414 379 c 1
 414 377 l 1
 511 364 595 312 595 194 c 0
 595 55 497 0 345 0 c 2
 35 0 l 1xf4
224 112 m 2
 224 50 240 35 320 35 c 0
 406 35 488 67 488 187 c 0xf4
 488 293 420 355 296 355 c 2
 224 355 l 1
 224 112 l 2
224 390 m 1
 291 390 l 2
 395 390 458 429 458 527 c 0xf8
 458 630 378 657 305 657 c 0
 227 657 224 650 224 607 c 2
 224 390 l 1
EndSplineSet
Fore
SplineSet
224 112 m 2
 224 50 240 35 320 35 c 0
 406 35 488 64 488 194 c 0
 488 303 412 361 309 361 c 0
 281 361 238 354 224 351 c 1
 224 112 l 2
35 0 m 1
 35 29 l 1
 123 35 125 37 125 93 c 2
 125 599 l 2
 125 655 123 657 35 663 c 1
 35 692 l 1
 547 692 l 1
 547 528 l 1
 517 528 l 1
 495 633 453 657 361 657 c 2
 261 657 l 2
 228 657 224 654 224 621 c 2
 224 389 l 1
 253 395 287 396 331 396 c 0
 472 396 595 333 595 201 c 0
 595 53 497 0 345 0 c 2
 35 0 l 1
EndSplineSet
EndChar

StartChar: afii10048
Encoding: 1070 1070 287
Width: 1065
Flags: HMW
HStem: -15 35<597.647 770.353> 0 29<35 114.046 234.954 314> 341 38<224 384> 663 29<35 114.046 234.954 314> 672 35<597.647 770.353>
VStem: 125 99<37.6573 341 379 654.343> 351 112<198.553 493.447> 905 112<198.553 493.447>
LayerCount: 2
Fore
SplineSet
224 379 m 1
 384 379 l 1
 384 341 l 1
 224 341 l 1
 224 379 l 1
351 346 m 0
 351 458 382 550 436 610 c 0
 492 673 574 707 684 707 c 0
 794 707 876 673 932 610 c 0
 986 550 1017 458 1017 346 c 0
 1017 234 986 142 932 82 c 0
 876 19 794 -15 684 -15 c 0
 574 -15 492 19 436 82 c 0
 382 142 351 234 351 346 c 0
463 346 m 0
 463 199 506 20 684 20 c 0
 862 20 905 199 905 346 c 0
 905 493 862 672 684 672 c 0
 506 672 463 493 463 346 c 0
35 0 m 1
 35 29 l 1
 123 35 125 37 125 93 c 2
 125 599 l 2
 125 655 123 657 35 663 c 1
 35 692 l 1
 314 692 l 1
 314 663 l 1
 226 657 224 655 224 599 c 2
 224 93 l 2
 224 37 226 35 314 29 c 1
 314 0 l 1
 35 0 l 1
EndSplineSet
EndChar

StartChar: afii10026
Encoding: 1048 1048 288
Width: 804
Flags: W
HStem: 0 29<35 114.046 234.954 314 490 569.046 689.954 769> 663 29<35 114.046 234.954 314 490 569.046 689.954 769>
VStem: 125 99<37.6573 654.343> 580 99<37.6573 654.343>
LayerCount: 2
Back
SplineSet
35 0 m 1
 35 29 l 1
 123 35 125 37 125 93 c 2
 125 599 l 2
 125 655 123 657 35 663 c 1
 35 692 l 1
 314 692 l 1
 314 663 l 1
 227 657 224 655 224 599 c 2
 224 379 l 1
 574 379 l 1
 574 599 l 2
 574 655 572 657 484 663 c 1
 484 692 l 1
 763 692 l 1
 763 663 l 1
 676 657 673 655 673 599 c 2
 673 93 l 2
 673 37 676 35 763 29 c 1
 763 0 l 1
 484 0 l 1
 484 29 l 1
 572 35 574 37 574 93 c 2
 574 341 l 1
 224 341 l 1
 224 93 l 2
 224 37 227 35 314 29 c 1
 314 0 l 1
 35 0 l 1
EndSplineSet
Fore
SplineSet
183.37 123.9 m 1
 594.754 614.169 l 1
 624.63 589.1 l 1
 213.246 98.8311 l 1
 183.37 123.9 l 1
490 0 m 1
 490 29 l 1
 578 35 580 37 580 93 c 2
 580 599 l 2
 580 655 578 657 490 663 c 1
 490 692 l 1
 769 692 l 1
 769 663 l 1
 681 657 679 655 679 599 c 2
 679 93 l 2
 679 37 681 35 769 29 c 1
 769 0 l 1
 490 0 l 1
35 0 m 1
 35 29 l 1
 123 35 125 37 125 93 c 2
 125 599 l 2
 125 655 123 657 35 663 c 1
 35 692 l 1
 314 692 l 1
 314 663 l 1
 226 657 224 655 224 599 c 2
 224 93 l 2
 224 37 226 35 314 29 c 1
 314 0 l 1
 35 0 l 1
EndSplineSet
EndChar

StartChar: afii10038
Encoding: 1060 1060 289
Width: 891
Flags: W
HStem: 0 29<290 382.865 508.135 601> 123 38<279.728 396 495 611.272> 545 38<279.728 396 495 611.272> 667 29<290 382.865 508.135 601>
VStem: 48 110<257.885 448.115> 396 99<38.8129 123 161 545 583 657.187> 733 110<257.885 448.115>
CounterMasks: 1 0e
LayerCount: 2
Fore
SplineSet
158 353 m 0
 158 228 241 161 396 161 c 9
 396 123 l 17
 116 123 48 238 48 353 c 0
 48 468 116 583 396 583 c 9
 396 545 l 17
 241 545 158 478 158 353 c 0
733 353 m 0
 733 478 650 545 495 545 c 9
 495 583 l 17
 775 583 843 468 843 353 c 0
 843 238 775 123 495 123 c 9
 495 161 l 17
 650 161 733 228 733 353 c 0
290 0 m 1
 290 29 l 1
 393 35 396 37 396 93 c 2
 396 603 l 2
 396 659 393 661 290 667 c 1
 290 696 l 1
 601 696 l 1
 601 667 l 1
 498 661 495 659 495 603 c 2
 495 93 l 2
 495 37 498 35 601 29 c 1
 601 0 l 1
 290 0 l 1
EndSplineSet
EndChar

StartChar: afii10086
Encoding: 1092 1092 290
Width: 812
Flags: MW
HStem: -230 29<268 348.176 463.824 544> -12 35<218.894 310.493 501.507 593.106> 467 35<218.894 310.493 501.507 593.106> 692 50<289 446>
VStem: 49 104<124.3 365.7> 359 94<-192.369 41 145 345 449 686.329> 659 104<124.3 365.7>
CounterMasks: 1 0e
LayerCount: 2
Fore
SplineSet
49 245 m 0
 49 395 136 502 251 502 c 0
 301 502 333 482 358 449 c 1
 359 449 l 1
 359 345 l 1
 359 405 319 467 264 467 c 0
 184 467 153 350 153 245 c 0
 153 140 184 23 264 23 c 0
 319 23 359 85 359 145 c 1
 359 41 l 1
 358 41 l 1
 333 8 301 -12 251 -12 c 0
 136 -12 49 95 49 245 c 0
763 245 m 0
 763 95 676 -12 561 -12 c 0
 511 -12 479 8 454 41 c 1
 453 41 l 1
 453 145 l 1
 453 85 493 23 548 23 c 0
 628 23 659 140 659 245 c 0
 659 350 628 467 548 467 c 0
 493 467 453 405 453 345 c 1
 453 449 l 1
 454 449 l 1
 479 482 511 502 561 502 c 0
 676 502 763 395 763 245 c 0
268 -230 m 1
 268 -201 l 1
 352 -196 359 -194 359 -143 c 2
 359 642 l 2
 359 680 353 685 327 688 c 2
 289 692 l 1
 289 717 l 1
 446 742 l 1
 453 736 l 1
 453 -143 l 2
 453 -194 460 -196 544 -201 c 1
 544 -230 l 1
 268 -230 l 1
EndSplineSet
EndChar

StartChar: afii10078
Encoding: 1084 1084 291
Width: 718
VWidth: 0
Flags: MW
HStem: 0 29<32 99.0117 154.988 222 442 509.012 618.988 686> 461 29<32 99.0117 618.988 686>
VStem: 107 40<36.1016 400 403 453.898> 517 94<35.6418 400 403 454.358>
DStem2: 210 490 151 400 0.403292 -0.915071<58.5622 370.594> 364 152 346 12 0.397342 0.917671<0 287.184>
LayerCount: 2
Back
SplineSet
470.5 -91.25 m 1
 197.5 528.25 l 1
526.75 529.5 m 1
 258.25 -91.5 l 1
322 12 m 1
 140 425 l 1
525 426 m 1
 346 12 l 1
EndSplineSet
Fore
SplineSet
524 400 m 1
 514 400 l 1
 346 12 l 1
 322 12 l 1
 151 400 l 1
 142 400 l 1
 134 490 l 1
 210 490 l 1
 238 435 280 340 304 284 c 2
 362 152 l 1
 364 152 l 1
 422 286 l 2
 441 330 480 420 513 490 c 1
 534 490 l 1
 524 400 l 1
32 0 m 1
 32 29 l 1
 104 34 107 36 107 87 c 2
 107 403 l 2
 107 454 104 456 32 461 c 1
 32 490 l 1
 147 490 l 1
 147 87 l 2
 147 36 150 34 222 29 c 1
 222 0 l 1
 32 0 l 1
442 0 m 1
 442 29 l 1
 514 34 517 36 517 87 c 2
 517 490 l 1
 686 490 l 1
 686 461 l 1
 614 456 611 454 611 403 c 2
 611 87 l 2
 611 36 614 34 686 29 c 1
 686 0 l 1
 442 0 l 1
EndSplineSet
EndChar

StartChar: afii10084
Encoding: 1090 1090 293
Width: 500
VWidth: 0
Flags: HMW
HStem: 0 29<128 195.012 304.988 372> 330 160<22 58.5825 441.417 478> 455 35<104.499 198.491 301.509 395.501>
VStem: 22 31<330 375.17> 203 94<35.6418 453.189> 447 31<330 375.17>
CounterMasks: 1 1c
LayerCount: 2
Fore
SplineSet
112 0 m 5xbc
 112 29 l 5
 196 34 203 36 203 87 c 6
 203 400 l 6
 203 453 192 455 155 455 c 1
 155 490 l 1
 345 490 l 1
 345 455 l 1
 308 455 297 453 297 400 c 6
 297 87 l 6
 297 36 304 34 388 29 c 5
 388 0 l 5
 112 0 l 5xbc
22 330 m 1xdc
 22 490 l 1xdc
 192 490 l 1
 191 455 l 1
 149 455 l 2xbc
 99 455 83 430 53 330 c 1
 22 330 l 1xdc
309 455 m 1xbc
 308 490 l 1xbc
 478 490 l 1
 478 330 l 1
 447 330 l 1xdc
 417 430 401 455 351 455 c 2
 309 455 l 1xbc
EndSplineSet
EndChar

StartChar: afii10067
Encoding: 1074 1074 294
Width: 557
VWidth: 0
Flags: W
HStem: 0 35<32 104.107 204.481 360.615> 237 35<201 341.838> 455 35<32 104.107 204.046 343.737>
VStem: 107 94<39.4969 237 272 451.806> 383 99<306.071 423.855> 403 104<68.6231 197.61>
LayerCount: 2
Back
SplineSet
321 0 m 2
 32 0 l 1
 32 29 l 1
 104 34 107 36 107 87 c 2
 107 403 l 2
 107 454 104 456 32 461 c 1
 32 490 l 1
 276 490 l 2
 371 490 472 458 472 364 c 0
 472 312 441 279 398 259 c 1
 454 242 507 204 507 136 c 0
 507 35 418 0 321 0 c 2
276 35 m 2
 283 35 l 2
 368 35 403 72 403 136 c 0
 403 200 360 237 275 237 c 2
 201 237 l 1
 201 90 l 2
 201 39 201 38 276 35 c 2
276 455 m 2
 201 452 201 451 201 400 c 2
 201 272 l 1
 271 272 l 2
 341 272 373 319 373 364 c 0
 373 408 343 455 278 455 c 2
 276 455 l 2
EndSplineSet
Fore
SplineSet
32 0 m 1xf4
 32 29 l 1
 104 34 107 36 107 87 c 2
 107 403 l 2
 107 454 104 456 32 461 c 1
 32 490 l 1
 286 490 l 2
 381 490 482 458 482 364 c 0xf8
 482 304 440 279 379 262 c 1
 379 259 l 1
 455 240 507 204 507 136 c 0
 507 35 418 0 321 0 c 2
 32 0 l 1xf4
201 90 m 2
 201 39 201 38 276 35 c 2
 283 35 l 2
 368 35 403 72 403 136 c 0xf4
 403 199 354 237 275 237 c 2
 201 237 l 1
 201 90 l 2
201 272 m 1
 281 272 l 2
 346 272 383 318 383 364 c 0xf8
 383 408 353 455 288 455 c 2
 276 455 l 2
 201 455 201 451 201 400 c 2
 201 272 l 1
EndSplineSet
EndChar

StartChar: afii10040
Encoding: 1062 1062 295
Width: 786
Flags: MW
HStem: -190 21 0 35<35 120.879 224 520 521 743> 663 29<35 114.046 234.954 314 474 553.046 673.954 753>
VStem: 125 99<39.5695 93 93 654.343> 562 99<39.5695 654.343> 745 28<-190 -122.049>
CounterMasks: 1 0c
LayerCount: 2
Back
SplineSet
521 0 m 17
 675 0 722 -18 740 -143 c 1
 772 -143 l 1
 762 35 l 1
 520 35 l 1
 521 0 l 17
EndSplineSet
Fore
SplineSet
519 0 m 9
 518 35 l 1
 760 35 l 1
 773 -190 l 1
 745 -190 l 1
 721 -40 702 0 519 0 c 9
741 0 m 1
 482 0 l 1
 482 35 l 1
 552 35 562 38 562 90 c 2
 562 599 l 2
 562 655 560 657 472 663 c 1
 472 692 l 1
 751 692 l 1
 751 663 l 1
 663 657 661 655 661 599 c 2
 661 90 l 2
 661 38 671 35 741 35 c 1
 741 0 l 1
224 35 m 1
 562 35 l 1
 562 0 l 1
 224 0 l 1
 224 35 l 1
35 692 m 1
 314 692 l 1
 314 663 l 1
 226 657 224 655 224 599 c 2
 224 90 l 2
 224 38 234 35 304 35 c 1
 304 0 l 1
 35 0 l 1
 35 29 l 1
 123 35 125 37 125 93 c 2
 125 599 l 2
 125 655 123 657 35 663 c 1
 35 692 l 1
EndSplineSet
EndChar

StartChar: afii10042
Encoding: 1064 1064 296
Width: 1087
Flags: MW
HStem: 0 35<35 120.879 224 863 966.121 1052> 663 29<35 114.046 234.954 314 404 483.046 603.954 683 773 852.046 972.954 1052>
VStem: 125 99<39.5695 93 93 654.343> 494 99<39.5695 654.343> 863 99<39.5695 654.343>
CounterMasks: 1 38
LayerCount: 2
Fore
SplineSet
673 0 m 1
 414 0 l 1
 414 35 l 1
 484 35 494 38 494 90 c 2
 494 599 l 2
 494 655 492 657 404 663 c 1
 404 692 l 1
 683 692 l 1
 683 663 l 1
 595 657 593 655 593 599 c 2
 593 90 l 2
 593 38 603 35 673 35 c 1
 673 0 l 1
224 35 m 1
 863 35 l 1
 863 0 l 1
 224 0 l 1
 224 35 l 1
35 692 m 1
 314 692 l 1
 314 663 l 1
 226 657 224 655 224 599 c 2
 224 90 l 2
 224 38 234 35 304 35 c 1
 304 0 l 1
 35 0 l 1
 35 29 l 1
 123 35 125 37 125 93 c 2
 125 599 l 2
 125 655 123 657 35 663 c 1
 35 692 l 1
1052 692 m 1
 1052 663 l 1
 964 657 962 655 962 599 c 2
 962 93 l 2
 962 37 964 35 1052 29 c 1
 1052 0 l 1
 783 0 l 1
 783 35 l 1
 853 35 863 38 863 90 c 2
 863 599 l 2
 863 655 861 657 773 663 c 1
 773 692 l 1
 1052 692 l 1
EndSplineSet
EndChar

StartChar: afii10089
Encoding: 1095 1095 297
Width: 582
VWidth: 0
Flags: HW
HStem: 0 29<306 373.012 482.988 550> 192 54<206.261 321.962> 461 29<22 89.0117 199.725 255 317 372.275 482.988 550>
VStem: 97 94<259.826 454.358> 381 94<35.6418 454.358> 381 0
LayerCount: 2
Fore
SplineSet
22 461 m 1xf8
 22 490 l 1
 255 490 l 1
 255 461 l 1
 195 457 191 449 191 403 c 2
 191 327 l 2
 191 256 224 246 258 246 c 0
 333 246 372 258 381 309 c 9
 381 240 l 1
 344 220 279 192 211 192 c 0
 132 192 97 242 97 309 c 2
 97 403 l 2
 97 454 94 456 22 461 c 1xf8
296 0 m 1
 296 29 l 1
 378 34 381 36 381 87 c 2
 381 403 l 2
 381 449 377 457 317 461 c 1
 317 490 l 1
 550 490 l 1
 550 461 l 1
 478 456 475 454 475 403 c 2
 475 87 l 2
 475 36 478 34 550 29 c 1
 550 0 l 1
 296 0 l 1
EndSplineSet
EndChar

StartChar: afii10095
Encoding: 1101 1101 298
Width: 494
Flags: MW
HStem: -12 42<146.492 274.322> 238 35<153 153> 467 35<144.52 274.854>
VStem: 42 101<82.2122 176.397> 64 33<338 384.312> 341 104<115.364 372.499>
LayerCount: 2
Back
SplineSet
82.4355 34.0605 m 4
 31.0127 95.3438 34.6572 153.229 59.9375 174.442 c 4
 82.9189 193.726 114.582 182.438 127.438 167.116 c 4
 137.079 155.626 136.217 145.764 131.77 135.506 c 4
 103.41 79.0732 109.89 55.793 123.389 39.7051 c 4
235.709 6.31738 m 4
 79.5518 17.2744 54.7607 63.4307 44.4082 102.067 c 4
 33.5381 142.637 53.3369 176.93 76.5195 183.142 c 4
 104.531 190.646 137.082 173.487 141.999 155.135 c 4
 145.105 143.543 142.346 134.521 136.241 122.533 c 4
 123.513 100.487 122.944 91.0176 125.532 81.3584 c 4
 128.38 70.7334 141.731 55.6758 177.489 49.7285 c 4
EndSplineSet
Fore
SplineSet
153 238 m 1xe4
 153 273 l 1
 341 273 l 1
 341 238 l 1
 153 238 l 1xe4
227 -12 m 0
 122 -12 42 52 42 128 c 0
 42 161 60 185 92 185 c 0
 111 185 143 173 143 146 c 0xf4
 143 124 128 107 128 81 c 0
 128 44 189 30 214 30 c 0
 313 30 341 142 341 258 c 0
 341 414 302 467 222 467 c 0
 150 467 112 400 97 338 c 1
 64 338 l 1
 64 454 l 1xec
 112 491 166 502 221 502 c 0
 368 502 445 411 445 249 c 0
 445 82 376 -12 227 -12 c 0
EndSplineSet
EndChar

StartChar: afii10097
Encoding: 1103 1103 299
Width: 596
VWidth: 0
Flags: MW
HStem: -12 33<27 74.2647> 0 29<320 387.012 496.988 564> 214 35<232.678 395> 249 206<308 308> 455 35<232.244 395 491.893 564>
VStem: 84 104<292.958 421.141> 395 94<35.6418 214 249 450.503>
LayerCount: 2
Back
SplineSet
287 254 m 1
 287 252 l 17
 196 241 139 185 125 121 c 0
 107 36 77 21 27 21 c 1
 27 -12 l 1
 47 -12 l 18
 118 -12 193 4 214 86 c 0
 240 190 250 228 355 228 c 1
 376 263 l 17
320 0 m 1
 320 29 l 1
 392 34 395 36 395 87 c 2
 395 400 l 2
 395 451 395 452 320 455 c 1
 320 490 l 1
 564 490 l 1
 564 461 l 1
 492 456 489 454 489 403 c 2
 489 87 l 2
 489 36 492 34 564 29 c 1
 564 0 l 1
 320 0 l 1
395 490 m 9
 395 455 l 17
 313 455 l 2
 228 455 193 420 193 350 c 0
 193 297 222 246 309 246 c 0
 331 246 374 251 395 255 c 9
 395 220 l 17
 366 215 331 209 301 209 c 0
 200 209 89 248 89 351 c 0
 89 456 178 490 275 490 c 2
 395 490 l 9
EndSplineSet
Fore
SplineSet
208 232 m 9xbe
 342 214 l 1
 237 214 220 171 202 78 c 0
 189 11 116 -12 44 -12 c 10
 27 -12 l 1
 27 21 l 1
 64 21 99 39 113 113 c 0
 125 175 149 198 208 223 c 9
 208 232 l 9xbe
320 0 m 1x7e
 320 29 l 1
 392 34 395 36 395 87 c 2
 395 400 l 2
 395 451 395 452 320 455 c 1
 320 490 l 1
 564 490 l 1
 564 461 l 1
 492 456 489 454 489 403 c 2
 489 87 l 2
 489 36 492 34 564 29 c 1
 564 0 l 1
 320 0 l 1x7e
395 490 m 9
 395 455 l 17
 308 455 l 2
 223 455 188 419 188 352 c 0
 188 291 223 249 308 249 c 2
 395 249 l 9
 395 214 l 17
 296 214 l 2
 213 214 84 259 84 357 c 0
 84 451 171 490 268 490 c 2
 395 490 l 9
EndSplineSet
EndChar

StartChar: afii10073
Encoding: 1079 1079 300
Width: 512
VWidth: 0
Flags: HMW
HStem: -12 35<166.952 309.267> 241 35<179 301.252> 467 35<169.064 296.261>
VStem: 50 101<76.6246 180.328> 75 33<342 387.108> 339 99<315.697 431.872> 358 104<63.2644 192.119>
LayerCount: 2
Back
SplineSet
235 -8 m 0
 130 -8 50 56 50 132 c 0
 50 165 68 189 100 189 c 0
 119 189 151 177 151 150 c 0
 151 128 136 111 136 85 c 0
 136 48 197 34 222 34 c 0
243.709 10.3174 m 0
 87.5518 21.2744 62.7607 67.4307 52.4082 106.067 c 0
 41.5381 146.637 61.3369 180.93 84.5195 187.142 c 0
 112.531 194.646 145.082 177.487 149.999 159.135 c 0
 153.105 147.543 150.346 138.521 144.241 126.533 c 0
 131.513 104.487 130.944 95.0176 133.532 85.3584 c 0
 136.38 74.7334 149.731 59.6758 185.489 53.7285 c 0
EndSplineSet
Fore
SplineSet
50 131 m 0xf2
 50 168 72 189 99 189 c 0
 124 189 151 176 151 149 c 0
 151 123 135 108 135 78 c 0
 135 54 188 23 242 23 c 0
 311 23 358 64 358 130 c 0xf2
 358 186 315 241 242 241 c 2
 179 241 l 25
 179 276 l 25
 238 276 l 2
 307 276 339 318 339 370 c 0
 339 424 302 467 235 467 c 0
 165 467 130 424 108 342 c 1
 75 342 l 1
 75 455 l 1
 144 496 186 502 248 502 c 0
 352 502 438 454 438 377 c 0xec
 438 320 393 284 334 266 c 1
 334 263 l 1
 417 242 462 181 462 123 c 0
 462 32 353 -12 244 -12 c 0
 123 -12 50 53 50 131 c 0xf2
EndSplineSet
EndChar

StartChar: afii10072
Encoding: 1078 1078 301
Width: 850
VWidth: 0
Flags: MW
HStem: -12 33<763 819 23 79> 0 29<476 543 299 366> 228 35<468 538 304 374> 461 29<476 543 299 366> 467 35<676 725 117 166>
VStem: 40 88<369.14 465.684> 378 94<35.6418 228 263 454.358> 722 88<369.14 465.684>
CounterMasks: 1 07
LayerCount: 2
Back
SplineSet
714 502 m 0
 789 502 810 441 810 409 c 0
 810 393 800 363 765 363 c 0
 752 363 722 366 722 395 c 0
 722 409 728 426 728 447 c 0
 728 460 721 467 709 467 c 0
EndSplineSet
Fore
SplineSet
378 228 m 1xaf
 350 228 l 2
 247 228 237 190 211 86 c 0
 190 4 118 -12 47 -12 c 10
 27 -12 l 1
 27 21 l 1
 77 21 104 36 122 121 c 0
 136 185 191 241 282 252 c 9
 282 254 l 1
 257 260 223 310 203 390 c 0
 194 426 162 467 141 467 c 0
 126 467 122 457 122 447 c 0
 122 427 128 407 128 395 c 0
 128 374 111 363 85 363 c 0
 50 363 40 393 40 409 c 0
 40 441 61 502 136 502 c 0
 196 502 233 442 249 382 c 0
 265 322 288 263 371 263 c 2
 378 263 l 1
 378 228 l 1xaf
472 228 m 1
 472 263 l 1
 479 263 l 2
 562 263 585 322 601 382 c 0
 617 442 654 502 714 502 c 0
 789 502 810 441 810 409 c 0
 810 393 800 363 765 363 c 0
 739 363 722 374 722 395 c 0
 722 407 728 427 728 447 c 0
 728 457 724 467 709 467 c 0
 688 467 656 426 647 390 c 0
 627 310 593 260 568 254 c 1
 568 252 l 17
 659 241 714 185 728 121 c 0
 746 36 773 21 823 21 c 1
 823 -12 l 1
 803 -12 l 18
 732 -12 660 4 639 86 c 0
 613 190 603 228 500 228 c 2
 472 228 l 1
303 0 m 1x77
 303 29 l 1
 375 34 378 36 378 87 c 2
 378 403 l 2
 378 454 375 456 303 461 c 1
 303 490 l 1
 547 490 l 1
 547 461 l 1
 475 456 472 454 472 403 c 2
 472 87 l 2
 472 36 475 34 547 29 c 1
 547 0 l 1
 303 0 l 1x77
EndSplineSet
EndChar

StartChar: afii10043
Encoding: 1065 1065 302
Width: 1087
Flags: MW
HStem: -190 20 0 35<35 120.879 224 863 966.121 1052> 663 29<35 114.046 234.954 314 404 483.046 603.954 683 773 852.046 972.954 1052>
VStem: 125 99<39.5695 93 93 654.343> 494 99<39.5695 654.343> 863 99<39.5695 654.343> 1046 28<-190 -122.049>
CounterMasks: 2 1c 06
LayerCount: 2
Back
SplineSet
820 0 m 9
 819 35 l 1
 1061 35 l 1
 1074 -190 l 1
 1046 -190 l 1
 1022 -40 1003 0 820 0 c 9
673 0 m 1
 414 0 l 1
 414 35 l 1
 484 35 494 38 494 90 c 2
 494 599 l 2
 494 655 492 657 404 663 c 1
 404 692 l 1
 683 692 l 1
 683 663 l 1
 595 657 593 655 593 599 c 2
 593 90 l 2
 593 38 603 35 673 35 c 1
 673 0 l 1
224 35 m 1
 863 35 l 1
 863 0 l 1
 224 0 l 1
 224 35 l 1
35 692 m 1
 314 692 l 1
 314 663 l 1
 226 657 224 655 224 599 c 2
 224 90 l 2
 224 38 234 35 304 35 c 1
 304 0 l 1
 35 0 l 1
 35 29 l 1
 123 35 125 37 125 93 c 2
 125 599 l 2
 125 655 123 657 35 663 c 1
 35 692 l 1
1052 692 m 1
 1052 663 l 1
 964 657 962 655 962 599 c 2
 962 93 l 2
 962 37 964 35 1052 29 c 1
 1052 0 l 1
 783 0 l 1
 783 35 l 1
 853 35 863 38 863 90 c 2
 863 599 l 2
 863 655 861 657 773 663 c 1
 773 692 l 1
 1052 692 l 1
EndSplineSet
Fore
SplineSet
1042 0 m 1
 783 0 l 1
 783 35 l 1
 853 35 863 38 863 90 c 2
 863 599 l 2
 863 655 861 657 773 663 c 1
 773 692 l 1
 1052 692 l 1
 1052 663 l 1
 964 657 962 655 962 599 c 2
 962 90 l 2
 962 38 972 35 1042 35 c 1
 1042 0 l 1
820 0 m 9
 819 35 l 1
 1061 35 l 1
 1074 -190 l 1
 1046 -190 l 1
 1022 -40 1003 0 820 0 c 9
673 0 m 1
 414 0 l 1
 414 35 l 1
 484 35 494 38 494 90 c 2
 494 599 l 2
 494 655 492 657 404 663 c 1
 404 692 l 1
 683 692 l 1
 683 663 l 1
 595 657 593 655 593 599 c 2
 593 90 l 2
 593 38 603 35 673 35 c 1
 673 0 l 1
224 35 m 1
 863 35 l 1
 863 0 l 1
 224 0 l 1
 224 35 l 1
35 692 m 1
 314 692 l 1
 314 663 l 1
 226 657 224 655 224 599 c 2
 224 90 l 2
 224 38 234 35 304 35 c 1
 304 0 l 1
 35 0 l 1
 35 29 l 1
 123 35 125 37 125 93 c 2
 125 599 l 2
 125 655 123 657 35 663 c 1
 35 692 l 1
EndSplineSet
EndChar

StartChar: afii10029
Encoding: 1051 1051 303
Width: 762
Flags: MW
HStem: -12 35<94.8369 172.132> 0 29<448 527.046 647.954 727> 657 35<189 274.879 325 538 641.121 727>
VStem: 16 98<85.7139 162.205> 279 46<404.229 652.43> 538 99<37.6573 652.43>
CounterMasks: 1 0c
LayerCount: 2
Back
SplineSet
131.634 -65.6572 m 4
 16.1338 15.2168 0.335938 112.954 25 148.178 c 4
 45.6484 177.667 85.2168 173.155 99.9619 162.831 c 4
 111.43 154.801 114.459 141.693 108.477 122.688 c 4
 91.9199 65.917 98.4648 0.295898 152.528 -37.5605 c 4
EndSplineSet
Fore
SplineSet
538 657 m 1x3c
 325 657 l 1
 325 692 l 1
 538 692 l 1
 538 657 l 1x3c
727 0 m 1x7c
 448 0 l 1
 448 29 l 1
 536 35 538 37 538 93 c 2
 538 602 l 2
 538 654 528 657 458 657 c 1
 458 692 l 1
 727 692 l 1
 727 663 l 1
 639 657 637 655 637 599 c 2
 637 93 l 2
 637 37 639 35 727 29 c 1
 727 0 l 1x7c
16 109 m 0
 16 150 36 170 68 170 c 0
 96 170 114 150 114 132 c 0
 114 108 96 76 96 54 c 0
 96 30 115 23 133 23 c 0
 222 23 279 249 279 599 c 0
 279 655 277 657 189 663 c 1
 189 692 l 1
 405 692 l 1
 405 657 l 1
 335 657 325 654 325 602 c 0
 325 222 249 -12 143 -12 c 0xbc
 57 -12 16 35 16 109 c 0
EndSplineSet
EndChar

StartChar: afii10028
Encoding: 1050 1050 304
Width: 732
VWidth: 0
Flags: HMW
HStem: -15 35<630.168 697> 0 29<35 114.046 234.954 314> 341 39<224 317.47> 663 29<35 114.046 234.954 314> 672 35<500.907 575.808>
VStem: 125 99<37.6573 654.343> 570 96<546.141 638.8>
LayerCount: 2
Back
SplineSet
513.789 760.93 m 0
 643.581 705.836 679.352 613.52 662.552 573.938 c 0
 648.486 540.799 608.842 536.986 592.274 544.019 c 0
 579.386 549.488 573.699 561.681 575.601 581.515 c 0
 579.992 640.487 559.946 703.314 499.192 729.103 c 0
35 0 m 1
 35 29 l 1
 123 35 125 37 125 93 c 2
 125 599 l 2
 125 655 123 657 35 663 c 1
 35 692 l 1
 314 692 l 1
 314 663 l 1
 227 657 224 655 224 599 c 2
 224 379 l 1
 574 379 l 1
 574 599 l 2
 574 655 572 657 484 663 c 1
 484 692 l 1
 763 692 l 1
 763 663 l 1
 676 657 673 655 673 599 c 2
 673 93 l 2
 673 37 676 35 763 29 c 1
 763 0 l 1
 484 0 l 1
 484 29 l 1
 572 35 574 37 574 93 c 2
 574 341 l 1
 224 341 l 1
 224 93 l 2
 224 37 227 35 314 29 c 1
 314 0 l 1
 35 0 l 1
EndSplineSet
Fore
SplineSet
35 0 m 1x76
 35 29 l 1
 123 35 125 37 125 93 c 2
 125 599 l 2
 125 655 123 657 35 663 c 1
 35 692 l 1
 314 692 l 1
 314 663 l 1
 226 657 224 655 224 599 c 2
 224 93 l 2
 224 37 226 35 314 29 c 1
 314 0 l 1
 35 0 l 1x76
224 341 m 1
 224 380 l 1
 250 380 l 2
 365 380 392 453 414 537 c 0
 440 636 488 707 548 707 c 0
 653 707 666 636 666 591 c 0
 666 572 653 541 612 541 c 0
 588 541 570 552 570 577 c 0
 570 607 576 621 576 642 c 0
 576 658 566 672 547 672 c 0
 518 672 482 618 464 548 c 0
 435 437 410 388 356 371 c 1
 356 368 l 17
 447 354 542 274 563 171 c 0
 587 51 627 20 697 20 c 1
 697 -15 l 1
 639 -15 l 18xae
 539 -15 488 7 465 122 c 0
 432 290 388 341 273 341 c 2
 224 341 l 1
EndSplineSet
EndChar

StartChar: afii10021
Encoding: 1044 1044 305
Width: 702
Flags: MW
HStem: -190 21 0 35<86 141.5 141.5 275 276 444 445 667> 657 35<139 224.879 275 488 591.121 677>
VStem: 11 28<-190 -122.049> 229 46<390.531 652.43> 488 99<39.5695 652.43> 652 28<-190 -122.049>
CounterMasks: 2 0c 06
LayerCount: 2
Back
SplineSet
488 657 m 1
 275 657 l 1
 275 692 l 1
 488 692 l 1
 488 657 l 1
677 0 m 1
 398 0 l 1
 398 29 l 1
 486 35 488 37 488 93 c 2
 488 602 l 2
 488 654 478 657 408 657 c 1
 408 692 l 1
 677 692 l 1
 677 663 l 1
 589 657 587 655 587 599 c 2
 587 93 l 2
 587 37 589 35 677 29 c 1
 677 0 l 1
-34 109 m 0
 -34 150 -18 170 22 170 c 0
 46 170 64 149 64 128 c 0
 64 93 36 90 36 66 c 0
 36 40 53 23 83 23 c 0
 172 23 229 249 229 599 c 0
 229 655 227 657 139 663 c 1
 139 692 l 1
 355 692 l 1
 355 657 l 1
 285 657 275 654 275 602 c 0
 275 222 199 -12 93 -12 c 0
 7 -12 -34 35 -34 109 c 0
EndSplineSet
Fore
SplineSet
265 0 m 17
 82 0 63 -40 39 -190 c 1
 11 -190 l 1
 24 35 l 1
 266 35 l 1
 265 0 l 17
426 0 m 9
 425 35 l 1
 667 35 l 1
 680 -190 l 1
 652 -190 l 1
 628 -40 609 0 426 0 c 9
118 35 m 1
 488 35 l 1
 488 0 l 1
 118 0 l 1
 118 35 l 1
488 657 m 1
 275 657 l 1
 275 692 l 1
 488 692 l 1
 488 657 l 1
587 90 m 2
 587 38 597 35 667 35 c 1
 667 0 l 1
 408 0 l 1
 408 35 l 1
 478 35 488 38 488 90 c 2
 488 602 l 2
 488 654 478 657 408 657 c 1
 408 692 l 1
 677 692 l 1
 677 663 l 1
 589 657 587 655 587 599 c 2
 587 90 l 2
76 0 m 1
 66 35 l 1
 154 35 229 249 229 599 c 0
 229 655 227 657 139 663 c 1
 139 692 l 1
 355 692 l 1
 355 657 l 1
 285 657 275 654 275 602 c 0
 275 222 181 0 76 0 c 1
EndSplineSet
EndChar

StartChar: afii10044
Encoding: 1066 1066 306
Width: 774
Flags: HW
HStem: 0 35<171 256.879 375.491 548.127> 355 35<361.02 531.766> 657 35<104.591 255.501 365.004 466>
VStem: 22 30<528 592.705> 261 99<48.1836 347.947 380 651.911> 624 107<99.8693 276.936>
LayerCount: 2
Fore
SplineSet
22 528 m 1
 22 692 l 1
 466 692 l 1
 466 663 l 1
 363 657 360 655 360 599 c 2
 360 380 l 1
 389 389 423 390 467 390 c 0
 608 390 731 327 731 198 c 0
 731 53 633 0 481 0 c 2
 155 0 l 1
 155 29 l 1
 258 35 261 37 261 93 c 2
 261 605 l 2
 261 650 251 656 196 657 c 1
 89 655 66 627 52 528 c 1
 22 528 l 1
360 112 m 2
 360 50 376 35 456 35 c 0
 542 35 624 64 624 191 c 0
 624 297 548 355 445 355 c 0
 417 355 374 348 360 342 c 1
 360 112 l 2
EndSplineSet
EndChar

StartChar: afii10037
Encoding: 1059 1059 307
Width: 762
Flags: MW
HStem: -12 35<248.033 342.176> 663 29<28 57 244 286 519 573 678.74 740>
VStem: 162 103<87.3499 165.075>
DStem2: 320 440 136 576 0.499395 -0.866374<-219.64 250.295> 389 95 432 85 0.393286 0.919416<-65.8375 25.4727 137.344 577.809>
LayerCount: 2
Back
SplineSet
239.083 -68.3184 m 0
 144.735 36.4648 151.329 135.252 183.285 164.023 c 0
 210.037 188.112 247.576 174.815 259.621 161.439 c 0
 268.989 151.034 268.992 137.582 258.888 120.408 c 0
 229.984 68.8174 221.601 3.40625 265.763 -45.6416 c 0
511 110 m 1
 234 592 l 17
605 596 m 9
 401 110 l 1
298 477 m 9
 441 220 l 1
 443 218 l 1
 557 505 l 17
653 596 m 9
 449 110 l 1
 401 110 l 1
 124 592 l 17
EndSplineSet
Fore
SplineSet
28 663 m 1
 28 692 l 1
 286 692 l 1
 286 663 l 1
 244 659 l 2
 231 658 219 651 219 636 c 0
 219 622 250 564 320 440 c 2
 443 222 l 1
 446 220 l 1
 536 440 l 2
 563 506 599 607 599 635 c 0
 599 649 591 656 573 658 c 2
 519 663 l 1
 519 692 l 1
 740 692 l 1
 740 663 l 1
 686 660 677 659 657 611 c 2
 432 85 l 18
 392 -9 320 -12 289 -12 c 0
 203 -12 162 44 162 108 c 0
 162 150 184 178 217 178 c 0
 242 178 265 164 265 143 c 0
 265 120 239 92 239 67 c 0
 239 44 252 23 298 23 c 0
 330 23 370 56 389 95 c 10
 400 118 l 1
 136 576 l 2
 96 644 94 658 57 661 c 2
 28 663 l 1
EndSplineSet
EndChar

StartChar: afii10041
Encoding: 1063 1063 308
Width: 748
Flags: W
HStem: 0 29<418 510.865 633.954 713> 257 62<249.572 408.036> 663 29<29 108.046 228.954 308 434 513.046 633.954 713>
VStem: 119 99<355.07 654.343> 524 99<38.8129 343 371.818 654.343>
LayerCount: 2
Fore
SplineSet
29 663 m 1
 29 692 l 1
 308 692 l 1
 308 663 l 1
 220 657 218 655 218 599 c 2
 218 453 l 2
 218 366 236 319 325 319 c 0
 360 319 406 321 437 333 c 0
 462 343 524 372 524 411 c 2
 524 599 l 2
 524 655 522 657 434 663 c 1
 434 692 l 1
 713 692 l 1
 713 663 l 1
 625 657 623 655 623 599 c 2
 623 93 l 2
 623 37 625 35 713 29 c 1
 713 0 l 1
 418 0 l 1
 418 29 l 1
 521 35 524 37 524 93 c 2
 524 343 l 1
 477 306 391 257 291 257 c 0
 152 257 119 334 119 483 c 2
 119 599 l 2
 119 655 117 657 29 663 c 1
EndSplineSet
EndChar

StartChar: afii10047
Encoding: 1069 1069 309
Width: 641
Flags: HMW
HStem: -15 35<176.226 350.668> 345 38<183 481> 672 35<187.296 350.189>
VStem: 45 105<111.878 189.864> 63 32<496 562.498> 481 112<186.94 503.524>
LayerCount: 2
Back
SplineSet
146.514 -34.959 m 0
 38.502 55.6738 31.2822 154.416 58.9229 187.356 c 0
 82.0625 214.934 121.087 206.99 134.876 195.42 c 0
 145.601 186.421 147.476 173.1 139.859 154.688 c 0
 118.418 99.5762 119.219 33.6338 169.777 -8.79004 c 0
-73 346 m 0
 -73 458 -42 550 12 610 c 0
 68 673 150 707 260 707 c 0
 370 707 452 673 508 610 c 0
 562 550 593 458 593 346 c 0
 593 234 562 142 508 82 c 0
 452 19 370 -15 260 -15 c 0
 150 -15 68 19 12 82 c 0
 -42 142 -73 234 -73 346 c 0
39 346 m 0
 39 199 82 20 260 20 c 0
 438 20 481 199 481 346 c 0
 481 493 438 672 260 672 c 0
 82 672 39 493 39 346 c 0
EndSplineSet
Fore
SplineSet
183 383 m 1
 481 383 l 1
 481 345 l 1
 183 345 l 1
 183 383 l 1
45 139 m 0
 45 184 70 206 92 206 c 0
 138 206 150 184 150 157 c 0
 150 128 137 112 137 84 c 0
 137 54 180 20 266 20 c 0
 431 20 481 154 481 344 c 0
 481 534 431 672 266 672 c 0
 192 672 117 645 95 496 c 1
 63 496 l 1
 63 666 l 1
 108 687 162 707 260 707 c 0
 515 707 593 546 593 346 c 0
 593 146 516 -15 261 -15 c 0
 141 -15 45 38 45 139 c 0
EndSplineSet
EndChar

StartChar: afii10025
Encoding: 1047 1047 310
Width: 616
Flags: MW
HStem: -15 35<177.411 344.801> 349 38<194 338.122> 673 34<187.404 348.98>
VStem: 45 104<84.9887 196.139> 73 32<496 567.664> 431 105<461.954 603.081> 458 107<109.028 254.194>
LayerCount: 2
Back
SplineSet
261 -15 m 0
 141 -15 45 38 45 139 c 0
 45 184 70 206 92 206 c 0
 138 206 150 184 150 157 c 0
 150 128 137 112 137 84 c 0
 137 54 180 20 266 20 c 0
EndSplineSet
Fore
SplineSet
45 139 m 0xf2
 45 182 64 206 97 206 c 0
 142 206 149 178 149 155 c 0
 149 132 136 105 136 84 c 0
 136 46 198 20 266 20 c 0
 356 20 458 86 458 177 c 0xf2
 458 280 356 349 266 349 c 2
 194 349 l 1
 194 387 l 1
 261 387 l 2
 326 387 431 435 431 533 c 0
 431 618 352 673 277 673 c 0
 181 673 127 645 105 496 c 1
 73 496 l 1
 73 666 l 1
 118 687 192 707 270 707 c 0
 400 707 536 658 536 539 c 0xec
 536 454 478 399 384 369 c 1
 384 367 l 1
 486 337 565 282 565 184 c 0
 565 74 502 -15 261 -15 c 0
 142 -15 45 38 45 139 c 0xf2
EndSplineSet
EndChar

StartChar: afii10049
Encoding: 1071 1071 311
Width: 705
Flags: W
HStem: -15 35<31 92.1514> 0 29<375 467.865 590.954 670> 304 35<293.383 477.734> 657 35<292.861 476.966 584.121 670>
VStem: 101 108<417.892 586.31> 481 99<38.8129 304 342.203 378 378 651.911>
LayerCount: 2
Back
SplineSet
356 371 m 1
 439 341 l 17
 324 341 280 290 247 122 c 0
 224 7 173 -15 73 -15 c 10
 15 -15 l 1
 15 20 l 1
 85 20 125 51 149 171 c 0
 170 274 265 354 356 368 c 9
 356 371 l 1
101 506 m 0
 101 646 226.438 692 361 692 c 2
 700 692 l 1
 700 663 l 1
 612 657 610 655 610 599 c 2
 610 93 l 2
 610 37 612 35 700 29 c 1
 700 0 l 1
 405 0 l 1
 405 29 l 1
 508 35 511 37 511 93 c 2
 511 304 l 1
 394 304 l 2
 348 304 303 308 266 317 c 0
 189 337 101 381 101 506 c 0
511 378 m 2
 511 620 l 2
 511 648 500 657 435 657 c 2
 373 657 l 2
 271 657 209 600 209 499 c 0
 209 378 289 339 374 339 c 2
 437 339 l 2
 496 339 511 341 511 378 c 2
EndSplineSet
Fore
SplineSet
31 -15 m 1xbc
 31 20 l 1
 98 20 122 50 149 171 c 0
 167 253 224 298 262 316 c 9
 262 319 l 1
 404 304 l 17
 293 302 278 261 247 122 c 0
 222 8 168 -15 80 -15 c 10
 31 -15 l 1xbc
101 510 m 0
 101 643 226 692 361 692 c 2
 670 692 l 1
 670 663 l 1
 582 657 580 655 580 599 c 2
 580 93 l 2
 580 37 582 35 670 29 c 1
 670 0 l 1
 375 0 l 1
 375 29 l 1x7c
 478 35 481 37 481 93 c 2
 481 304 l 1
 394 304 l 2
 348 304 302 306 266 318 c 0
 188 344 101 383 101 510 c 0
209 499 m 0
 209 383 294 339 374 339 c 2
 407 339 l 2
 466 339 481 341 481 378 c 2
 481 620 l 2
 481 648 470 657 405 657 c 2
 373 657 l 2
 271 657 209 600 209 499 c 0
EndSplineSet
EndChar

StartChar: afii10024
Encoding: 1046 1046 312
Width: 1075
VWidth: 0
Flags: MW
HStem: -15 35<35 99.8809 975.119 1040> 0 29<398 477.046 597.954 677> 341 39<397.631 488 587 677.369> 663 29<398 477.046 597.954 677> 672 35<153.334 212.14 862.86 921.666>
VStem: 64 96<546.141 638.8> 488 99<37.6573 654.343> 915 96<546.141 638.8>
CounterMasks: 1 07
LayerCount: 2
Back
SplineSet
871 707 m 0
 976 707 989 636 989 591 c 0
 989 572 976 541 935 541 c 0
 911 541 893 552 893 577 c 0
 893 607 899 621 899 642 c 0
 899 658 889 672 870 672 c 0
EndSplineSet
Fore
SplineSet
488 341 m 1xaf
 453 341 l 2
 343 341 298 290 265 122 c 0
 242 7 191 -15 91 -15 c 10
 35 -15 l 1
 35 20 l 1
 102 20 143 51 167 171 c 0
 188 274 279 354 370 368 c 9
 370 371 l 1
 316 388 293 437 264 548 c 0
 246 618 210 672 183 672 c 0
 158 672 154 650 154 642 c 0
 154 618 160 607 160 577 c 0
 160 559 150 541 118 541 c 0
 77 541 64 572 64 591 c 0
 64 636 78 707 182 707 c 0
 238 707 288 636 314 537 c 0
 336 453 366 380 476 380 c 2
 488 380 l 1
 488 341 l 1xaf
398 0 m 1x77
 398 29 l 1
 486 35 488 37 488 93 c 2
 488 599 l 2
 488 655 486 657 398 663 c 1
 398 692 l 1
 677 692 l 1
 677 663 l 1
 589 657 587 655 587 599 c 2
 587 93 l 2
 587 37 589 35 677 29 c 1
 677 0 l 1
 398 0 l 1x77
587 341 m 1
 587 380 l 1
 599 380 l 2
 709 380 739 453 761 537 c 0
 787 636 837 707 893 707 c 0
 997 707 1011 636 1011 591 c 0
 1011 572 998 541 957 541 c 0
 925 541 915 559 915 577 c 0
 915 607 921 618 921 642 c 0
 921 650 917 672 892 672 c 0
 865 672 829 618 811 548 c 0
 782 437 759 388 705 371 c 1
 705 368 l 17
 796 354 887 274 908 171 c 0
 932 51 973 20 1040 20 c 1
 1040 -15 l 1
 984 -15 l 18xaf
 884 -15 833 7 810 122 c 0
 777 290 732 341 622 341 c 2
 587 341 l 1
EndSplineSet
EndChar

StartChar: cyrBreve
Encoding: 63185 63185 314
Width: 804
Flags: MW
HStem: 748 35<329.142 474.858>
VStem: 226 105<822.844 915.88> 473 105<822.844 915.88>
LayerCount: 2
Fore
SplineSet
226 847 m 0
 226 900 245 926 274 926 c 0
 317 926 331 899 331 883 c 0
 331 858 313 840 313 822 c 0
 313 798 362 783 402 783 c 0
 442 783 491 798 491 822 c 0
 491 840 473 858 473 883 c 0
 473 899 487 926 530 926 c 0
 559 926 578 900 578 847 c 0
 578 810 542 748 402 748 c 0
 262 748 226 810 226 847 c 0
EndSplineSet
EndChar

StartChar: afii10194
Encoding: 1123 1123 317
Width: 668
VWidth: 0
Flags: HMW
HStem: 0 35<320 480.222> 244 37<321.182 477.221> 352 20 455 35<90.8924 164 171 224 322 375 382 455.108> 692 50<156 313>
VStem: 18 31<352 399.784> 226 94<36 403 490 686.329> 497 31<352 399.784> 522 104<68.943 207.128>
CounterMasks: 1 07
LayerCount: 2
Fore
SplineSet
18 352 m 5
 18 490 l 1
 226 490 l 1
 226 642 l 2
 226 680 220 685 194 688 c 2
 156 692 l 1
 156 717 l 1
 313 742 l 1
 320 736 l 1
 320 490 l 1
 528 490 l 1
 528 352 l 1
 497 352 l 1
 475 447 441 455 382 455 c 2
 375 455 l 1
 322 450 320 448 320 400 c 2
 320 270 l 1
 349 275 384 281 414 281 c 0
 515 281 626 242 626 139 c 0
 626 34 537 0 440 0 c 2
 395 0 l 1
 320 1.10745e-13 l 1
 141 0 l 1
 141 29 l 1
 223 34 226 36 226 87 c 2
 226 400 l 2
 226 448 224 450 171 455 c 1
 164 455 l 2
 105 455 71 447 49 352 c 1
 18 352 l 5
320 90 m 2
 320 39 320 38 395 35 c 1
 402 35 l 2
 487 35 522 70 522 140 c 0
 522 193 493 244 406 244 c 0
 384 244 341 239 320 235 c 1
 320 90 l 2
EndSplineSet
EndChar

StartChar: afii10146
Encoding: 1122 1122 318
Width: 790
Flags: HMW
HStem: 0 35<187 272.879 391.491 564.127> 355 35<377.02 547.766> 572 35<100.817 271.424 381.576 552.183> 663 29<187 266.046 387.317 466>
VStem: 22 255<572 607> 277 99<48.1836 342 380 654.343> 376 255<572 607> 640 107<99.8693 276.936>
LayerCount: 2
Fore
SplineSet
22 453 m 1
 22 607 l 1
 277 607 l 1
 277 655 271 657 187 663 c 1
 187 692 l 1
 466 692 l 1
 466 663 l 1
 378 657 377 655 376 607 c 1
 631 607 l 1
 631 453 l 1
 601 453 l 1
 582 553 555 572 456 572 c 0
 386 572 376 569 376 517 c 2
 376 380 l 1
 405 389 439 390 483 390 c 0
 624 390 747 327 747 198 c 0
 747 53 649 0 497 0 c 2
 171 0 l 1
 171 29 l 1
 274 35 277 37 277 93 c 2
 277 517 l 2
 277 569 267 572 197 572 c 0
 98 572 71 553 52 453 c 1
 22 453 l 1
376 112 m 2
 376 50 392 35 472 35 c 0
 558 35 640 64 640 191 c 0
 640 297 564 355 461 355 c 0
 433 355 390 348 376 342 c 1
 376 112 l 2
EndSplineSet
EndChar

StartChar: afii10060
Encoding: 1035 1035 319
Width: 864
Flags: HMW
HStem: 0 29<131 227.41 350.954 430 556 635.046 755.954 835> 373 62<455.964 614.428> 526 166<22 54.3767 566.623 599> 657 35<98.6473 241 340 522.353>
VStem: 22 30<526 598.769> 241 99<39.4351 657> 569 30<526 598.769> 646 99<37.6573 336.93>
LayerCount: 2
Fore
SplineSet
22 526 m 1
 22 692 l 1
 599 692 l 1
 599 526 l 1
 569 526 l 1
 557 635 536 657 419 657 c 2
 340 657 l 1
 340 93 l 2
 340 37 342 35 430 29 c 1
 430 0 l 1
 131 0 l 1
 131 29 l 1
 238 35 241 37 241 93 c 2
 241 657 l 1
 202 657 l 2
 85 657 64 635 52 526 c 1
 22 526 l 1
835 29 m 1
 835 0 l 1
 556 0 l 1
 556 29 l 1
 644 35 646 37 646 93 c 2
 646 239 l 2
 646 326 628 373 539 373 c 0
 504 373 458 371 427 359 c 0
 402 349 340 320 340 281 c 1
 340 349 l 1
 387 386 473 435 573 435 c 0
 712 435 745 358 745 209 c 2
 745 93 l 2
 745 37 747 35 835 29 c 1
EndSplineSet
EndChar

StartChar: afii10195
Encoding: 1139 1139 320
Width: 577
Flags: HW
HStem: -12 35<225.854 352.146> 235 35<153 425> 467 35<225.854 352.146>
VStem: 49 104<118.85 371.15> 425 104<118.85 371.15>
LayerCount: 2
Fore
SplineSet
153 235 m 1
 153 270 l 1
 425 270 l 1
 425 235 l 1
 153 235 l 1
EndSplineSet
Refer: 79 111 N 1 0 0 1 0 0 3
EndChar

StartChar: afii10147
Encoding: 1138 1138 321
Width: 762
Flags: HW
HStem: -15 35<294.647 467.353> 341 38<160 602> 672 35<294.647 467.353>
VStem: 48 112<198.553 493.447> 602 112<198.553 493.447>
LayerCount: 2
Fore
SplineSet
160 379 m 1
 602 379 l 1
 602 341 l 1
 160 341 l 1
 160 379 l 1
EndSplineSet
Refer: 47 79 N 1 0 0 1 0 0 3
EndChar

StartChar: afii10051
Encoding: 1026 1026 322
Width: 802
Flags: HMW
HStem: -12 35<504.971 603.057> 0 29<131 227.41> 374 62<450.375 587.048> 526 166<22 54.3767 566.623 599> 657 35<98.6473 241 340 522.353>
VStem: 22 30<526 598.769> 241 99<39.4351 93 93 282 350 657> 428 98<81.9805 157.794> 569 30<526 598.769> 644 107<91.5375 305.186>
LayerCount: 2
Back
SplineSet
835 30 m 1x6780
 835 1 l 1
 556 1 l 1
 556 30 l 1
 644 36 646 38 646 94 c 2
 646 240 l 2
 646 327 628 374 539 374 c 0
 504 374 458 372 427 360 c 0
 402 350 340 321 340 282 c 1
 340 350 l 1
 387 387 473 436 573 436 c 0
 712 436 745 359 745 210 c 2
 745 94 l 2
 745 38 747 36 835 30 c 1x6780
EndSplineSet
Refer: 52 84 N 1 0 0 1 0 0 2
Fore
SplineSet
751 190 m 0
 751 62 661 -12 555 -12 c 0
 469 -12 428 40 428 106 c 0
 428 146 448 165 471 165 c 0
 501 165 526 150 526 130 c 0
 526 100 513 80 513 59 c 0
 513 32 530 23 545 23 c 0
 634 23 644 98 644 200 c 0
 644 282 612 374 523 374 c 0
 486 374 458 372 427 360 c 0
 402 350 340 321 340 282 c 1
 340 350 l 1
 387 387 476 436 541 436 c 0
 688 436 751 322 751 190 c 0
22 526 m 1
 22 692 l 1
 599 692 l 1
 599 526 l 1
 569 526 l 1
 557 635 536 657 419 657 c 2
 340 657 l 1
 340 0 l 1
 131 0 l 1
 131 29 l 1
 238 35 241 37 241 93 c 2
 241 657 l 1
 202 657 l 2
 85 657 64 635 52 526 c 1
 22 526 l 1
EndSplineSet
EndChar

StartChar: afii10145
Encoding: 1039 1039 323
Width: 788
Flags: MW
HStem: -190 21 0 35<667.121 753 268 564 45 267> 663 29<673.954 753 474 553.046 234.954 314 35 114.046>
VStem: 380 28<-190 35> 564 99<39.5695 93 93 654.343> 125 99<39.5695 654.343>
LayerCount: 2
Fore
SplineSet
621 0 m 17
 426 0 422 -28 408 -190 c 1
 380 -190 l 1
 380 35 l 1
 622 35 l 1
 621 0 l 17
167 0 m 9
 166 35 l 1
 408 35 l 1
 408 -190 l 1
 380 -190 l 1
 366 -28 362 0 167 0 c 9
743 0 m 1
 484 0 l 1
 484 35 l 1
 554 35 564 38 564 90 c 2
 564 599 l 2
 564 655 562 657 474 663 c 1
 474 692 l 1
 753 692 l 1
 753 663 l 1
 665 657 663 655 663 599 c 2
 663 90 l 2
 663 38 673 35 743 35 c 1
 743 0 l 1
224 35 m 1
 564 35 l 1
 564 0 l 1
 224 0 l 1
 224 35 l 1
35 692 m 1
 314 692 l 1
 314 663 l 1
 226 657 224 655 224 599 c 2
 224 90 l 2
 224 38 234 35 304 35 c 1
 304 0 l 1
 35 0 l 1
 35 29 l 1
 123 35 125 37 125 93 c 2
 125 599 l 2
 125 655 123 657 35 663 c 1
 35 692 l 1
EndSplineSet
EndChar

StartChar: afii10193
Encoding: 1119 1119 324
Width: 618
VWidth: 0
Flags: MW
HStem: -168 20 0 35<32 104.107 139 479 514.481 586> 461 29<32 99.0117 208.988 276 342 409.012 518.988 586>
VStem: 107 94<39.4969 454.358> 293 32<-168 35> 417 94<39.4969 454.358>
LayerCount: 2
Fore
SplineSet
479 35 m 29
 479 0 l 21
 353 0 335 -10 325 -168 c 5
 297 -168 l 5
 297 35 l 13
 479 35 l 29
586 490 m 1
 586 461 l 1
 514 456 511 454 511 403 c 2
 511 90 l 2
 511 39 511 38 586 35 c 1
 586 0 l 1
 342 0 l 1
 342 35 l 1
 417 38 417 39 417 90 c 2
 417 403 l 2
 417 454 414 456 342 461 c 1
 342 490 l 1
 586 490 l 1
139 35 m 29
 321 35 l 21
 321 -168 l 5
 293 -168 l 5
 283 -10 265 0 139 0 c 13
 139 35 l 29
386 35 m 1
 386 0 l 1
 216 0 l 1
 216 35 l 1
 386 35 l 1
276 490 m 1
 276 461 l 1
 204 456 201 454 201 403 c 2
 201 90 l 2
 201 39 201 38 276 35 c 1
 276 0 l 1
 32 0 l 1
 32 29 l 1
 104 34 107 36 107 87 c 2
 107 403 l 2
 107 454 104 456 32 461 c 1
 32 490 l 1
 276 490 l 1
EndSplineSet
EndChar

StartChar: afii10106
Encoding: 1113 1113 325
Width: 857
VWidth: 0
Flags: HMW
HStem: -12 35<81.5593 151.098> 0 35<340 412.107 509 669.222> 244 37<510.182 666.221> 455 35<143 208.388 209 440 511.893 584>
VStem: 16 94<73.839 141.327> 218 40<204.271 449.936> 415 94<35.6418 450.503 39.4969 454.358> 711 104<68.943 207.128>
CounterMasks: 1 06
LayerCount: 2
Fore
SplineSet
16 91 m 0
 16 134 43 150 64 150 c 0
 88 150 110 133 110 112 c 0
 110 92 85 73 85 47 c 0
 85 26 104 23 114 23 c 0
 218 23 218 316 218 403 c 0
 218 454 215 456 143 461 c 1
 143 490 l 1
 333 490 l 1
 333 455 l 1
 258 452 258 451 258 400 c 0
 258 203 236 -12 126 -12 c 0
 31 -12 16 59 16 91 c 0
209 455 m 1
 209 490 l 1
 440 490 l 1
 440 455 l 1
 209 455 l 1
333 490 m 1
 594 490 l 1
 594 461 l 5
 512 456 509 454 509 403 c 2
 509 270 l 1
 538 275 573 281 603 281 c 0
 704 281 815 242 815 139 c 0
 815 34 726 0 629 0 c 2
 340 0 l 1
 340 29 l 1
 412 34 415 36 415 87 c 2
 415 423 l 2
 413 451 402 453 340 455 c 9
 333 490 l 1
509 90 m 2
 509 39 509 38 584 35 c 2
 591 35 l 2
 676 35 711 70 711 140 c 0
 711 193 682 244 595 244 c 0
 573 244 530 239 509 235 c 1
 509 90 l 2
EndSplineSet
EndChar

StartChar: afii10108
Encoding: 1115 1115 329
Width: 594
Flags: HMW
HStem: 0 29<20 85.1741 197.725 253 339 394.275 506.826 572> 305 54<271.605 374.303> 455 35<20 409> 692 50<25 181>
VStem: 95 93<36.6289 250.138 283 684.937> 403 94<36.6289 273.25>
LayerCount: 2
Fore
SplineSet
20 455 m 1
 20 490 l 1
 409 490 l 1
 409 455 l 1
 20 455 l 1
20 0 m 1
 20 29 l 1
 89 34 95 38 95 87 c 10
 95 642 l 2
 95 678 89 683 63 687 c 2
 25 692 l 1
 25 717 l 1
 181 742 l 1
 188 736 l 1
 188 283 l 1
 242 326 298 359 359 359 c 0
 444 359 497 306 497 200 c 2
 497 87 l 2
 497 38 503 34 572 29 c 1
 572 0 l 1
 339 0 l 1
 339 29 l 1
 399 33 403 41 403 87 c 2
 403 180 l 2
 403 274 374 305 308 305 c 0
 262 305 219 272 198 232 c 0
 190 217 189 203 189 178 c 2
 189 87 l 2
 189 41 193 33 253 29 c 1
 253 0 l 1
 20 0 l 1
EndSplineSet
EndChar

StartChar: afii10099
Encoding: 1106 1106 330
Width: 563
Flags: MW
HStem: -242 21G<216.4 297.773> 0 29<20 85.1741 197.725 253> 305 54<268.09 380.397> 455 35<20 409> 692 50<25 181>
VStem: 95 93<36.6289 250.138 283 684.937> 411 104<44.8139 269.154>
LayerCount: 2
Back
SplineSet
20 455 m 1
 20 490 l 1
 409 490 l 1
 409 455 l 1
 20 455 l 1
20 0 m 1
 20 29 l 1
 89 34 95 38 95 87 c 10
 95 642 l 2
 95 678 89 683 63 687 c 2
 25 692 l 1
 25 717 l 1
 181 742 l 1
 188 736 l 1
 188 283 l 1
 242 326 298 359 359 359 c 0
 444 359 497 306 497 200 c 2
 497 87 l 2
 497 38 503 34 572 29 c 1
 572 0 l 1
 339 0 l 1
 339 29 l 1
 399 33 403 41 403 87 c 2
 403 180 l 2
 403 274 374 305 308 305 c 0
 262 305 219 272 198 232 c 0
 190 217 189 203 189 178 c 2
 189 87 l 2
 189 41 193 33 253 29 c 1
 253 0 l 1
 20 0 l 1
EndSplineSet
Fore
SplineSet
20 455 m 1
 20 490 l 1
 409 490 l 1
 409 455 l 1
 20 455 l 1
20 0 m 1
 20 29 l 1
 89 34 95 38 95 87 c 10
 95 642 l 2
 95 678 89 683 63 687 c 2
 25 692 l 1
 25 717 l 1
 181 742 l 1
 188 736 l 1
 188 283 l 1
 242 326 296 359 342 359 c 0
 438 359 515 310 515 146 c 0
 515 -9.61759 365.545 -153.444 230 -242 c 1
 213 -217 l 1
 364 -110 411 -38 411 154 c 0
 411 286 382 305 291 305 c 0
 268 305 219 272 198 232 c 0
 190 217 189 203 189 178 c 2
 189 87 l 2
 189 41 193 33 253 29 c 1
 253 0 l 1
 20 0 l 1
EndSplineSet
EndChar

StartChar: afii10196
Encoding: 1141 1141 331
Width: 590
Flags: MW
HStem: 0 21G<216.87 303.025> 461 29<1 53.7394> 467 35<466.181 505.644>
VStem: 494 87<368.127 445.344>
DStem2: 223 258 147 216 0.335451 -0.942058<-201.807 178.728> 286 90 296 0 0.322361 0.946617<0 378.394>
LayerCount: 2
Back
SplineSet
485 502 m 0
 560 502 581 441 581 409 c 0
 581 393 571 363 536 363 c 0
 523 363 493 366 493 395 c 0
 493 409 499 426 499 447 c 0
 499 460 492 467 480 467 c 0
1 461 m 1
 1 490 l 1
 225 490 l 1
 225 461 l 1
 180 456 l 2
 161 454 157 446 164 427 c 0
 183 373 203 315 223 258 c 2
 284 90 l 1
 286 90 l 1
 353 275 l 2
 376 339 395 397 403 429 c 0
 407 443 404 454 388 456 c 2
 339 461 l 1
 339 490 l 1xfc
 529 490 l 1
 529 461 l 1
 483 459 472 453 457 418 c 0
 443 386 414 320 385 242 c 2
 296 0 l 1
 224 0 l 1
 147 216 l 2
 122 285 99 350 72 416 c 0
 57 453 48 457 1 461 c 1
EndSplineSet
Fore
SplineSet
1 461 m 1
 1 490 l 1
 225 490 l 1
 225 461 l 1
 180 456 l 2
 161 454 157 446 164 427 c 2
 223 258 l 1
 284 90 l 1
 286 90 l 1
 349 275 l 2
 403 433 428 502 488 502 c 0
 563 502 581 441 581 409 c 0
 581 398 577 363 536 363 c 0
 510 363 494 372 494 400 c 0
 494 418 501 432 501 446 c 0
 501 463 494 467 485 467 c 0
 464 467 437 400 381 242 c 2
 296 0 l 1
 224 0 l 1
 147 216 l 2
 122 285 99 350 72 416 c 0
 57 453 48 457 1 461 c 1
EndSplineSet
EndChar

StartChar: afii10148
Encoding: 1140 1140 332
Width: 772
Flags: MW
HStem: 0 21G<279.938 365.188> 663 29<-18 43.9893> 672 35<612.607 678.77>
VStem: 667 93<549.132 644.655>
DStem2: 169 622 70 604 0.338112 -0.941106<-29.2588 543.044> 352 108 358 0 0.329031 0.944319<0 473.228>
LayerCount: 2
Back
SplineSet
644 707 m 0
 749 707 762 636 762 591 c 0
 762 572 749 541 708 541 c 0
 684 541 666 552 666 577 c 0
 666 607 672 621 672 642 c 0
 672 658 662 672 643 672 c 0
-18 663 m 1
 -18 692 l 1xb8
 240 692 l 1
 240 663 l 1xa8
 188 658 l 2
 164 656 161 647 169 622 c 0
 195 542 226 454 257 367 c 2
 350 110 l 1
 352 108 l 1
 456 395 l 2
 492 495 523 583 534 627 c 0
 539 646 538 656 512 658 c 2xd0
 457 663 l 1
 457 692 l 1
 678 692 l 1
 678 663 l 1
 624 660 612 658 591 611 c 0
 567 558 527 456 486 345 c 2
 358 0 l 1
 287 0 l 1
 174 320 l 2
 139 420 102 520 70 604 c 0
 50 657 38 661 -18 663 c 1
EndSplineSet
Fore
SplineSet
-18 663 m 1
 -18 692 l 1
 240 692 l 1
 240 663 l 1
 188 658 l 2
 164 656 161 647 169 622 c 0
 195 542 226 454 257 367 c 2
 350 110 l 1
 352 108 l 1
 452 395 l 2
 525 605 551 707 657 707 c 0
 752 707 760 622 760 596 c 0
 760 577 751 541 711 541 c 0
 676 541 667 556 667 578 c 0
 667 608 674 617 674 646 c 0
 674 656 672 672 653 672 c 0
 588 672 562 567 482 345 c 2
 358 0 l 1
 287 0 l 1
 174 320 l 1
 70 604 l 2
 50 657 38 661 -18 663 c 1
EndSplineSet
EndChar

StartChar: uni2116
Encoding: 8470 8470 333
Width: 1114
Flags: MW
HStem: -12 35<106.598 179.259> 0 35<797 1057> 107 32<887.626 966.374> 361 32<887.626 966.374> 663 29<115 194.046> 672 35<720.741 793.402>
VStem: 20 93<63.0752 156.389> 205 46<47.6755 580> 649 46<164 647.325> 787 93<538.611 631.925> 790 74<167.211 332.789> 990 74<167.211 332.789>
DStem2: 292 692 253 580 0.558982 -0.82918<71.0679 634.857>
LayerCount: 2
Back
SplineSet
134.634 -71.6572 m 0
 19.1338 9.2168 3.33594 106.954 28 142.178 c 0
 48.6484 171.667 88.2168 167.155 102.962 156.831 c 0
 114.43 148.801 117.459 135.693 111.477 116.688 c 0
 94.9199 59.917 101.465 -5.7041 155.528 -43.5605 c 0
774.75 -145 m 1
 188.25 725 l 1
563 0 m 1
 172 580 l 1
EndSplineSet
Fore
SplineSet
763 672 m 0
 712 672 695 632 695 512 c 2
 695 0 l 1
 644 0 l 1
 253 580 l 1
 251 580 l 1
 251 183 l 2
 251 40 215 -12 151 -12 c 0
 59 -12 20 29 20 104 c 0
 20 139 37 165 69 165 c 0
 99 165 113 151 113 129 c 0
 113 104 101 85 101 62 c 0
 101 40 109 23 137 23 c 0
 188 23 205 63 205 183 c 2
 205 599 l 2
 205 655 203 657 115 663 c 1
 115 692 l 1
 292 692 l 1
 646 165 l 1
 649 164 l 1
 649 512 l 2
 649 655 685 707 749 707 c 0
 841 707 880 666 880 591 c 0
 880 556 863 530 831 530 c 0
 801 530 787 544 787 566 c 0
 787 591 799 610 799 633 c 0
 799 655 791 672 763 672 c 0
797 0 m 1
 797 35 l 1
 1057 35 l 1
 1057 0 l 1
 797 0 l 1
790 250 m 0
 790 340 847 393 927 393 c 0
 1007 393 1064 340 1064 250 c 0
 1064 160 1007 107 927 107 c 0
 847 107 790 160 790 250 c 0
864 250 m 0
 864 175 882 139 927 139 c 0
 972 139 990 175 990 250 c 0
 990 325 972 361 927 361 c 0
 882 361 864 325 864 250 c 0
EndSplineSet
EndChar

StartChar: afii10053
Encoding: 1028 1028 334
Width: 684
Flags: W
HStem: -15 35<315.695 504.337> 345 38<159 496> 672 35<319.033 504.757>
VStem: 48 112<199.435 480.436> 159 1<345 383> 603 30<512 566.281> 616 32<143.072 186>
LayerCount: 2
Back
SplineSet
159 383 m 1
 496 383 l 1
 496 345 l 1
 159 345 l 1
 159 383 l 1
48 341 m 0xe8
 48 454 82 540 139 604 c 0
 199 671 298 707 421 707 c 0
 512 707 588 689 633 668 c 1
 633 512 l 1
 603 512 l 1xf0
 584 630 513 672 411 672 c 0
 225 672 160 508 160 344 c 0
 160 223 203 20 409 20 c 0
 540 20 591 96 619 200 c 1
 649 200 l 1
 635 33 l 1
 587 7 495 -15 415 -15 c 0
 303 -15 205 8 143 70 c 0
 83 130 48 224 48 341 c 0xe8
159 383 m 1
 496 383 l 1
 496 345 l 1
 159 345 l 1
 159 383 l 1
48 341 m 0xe8
 48 454 82 540 139 604 c 0
 199 671 298 707 421 707 c 0
 512 707 588 689 633 668 c 1
 633 512 l 1
 603 512 l 1xf0
 584 630 513 672 411 672 c 0
 225 672 160 508 160 344 c 0
 160 223 203 20 409 20 c 0
 540 20 591 96 619 200 c 1
 649 200 l 1
 635 33 l 1
 587 7 495 -15 415 -15 c 0
 303 -15 205 8 143 70 c 0
 83 130 48 224 48 341 c 0xe8
EndSplineSet
Fore
SplineSet
159 383 m 1xe8
 496 383 l 1
 496 345 l 1
 159 345 l 1
 159 383 l 1xe8
48 341 m 0xf2
 48 502.917 122.6 707 421 707 c 0
 512 707 588 689 633 668 c 1
 633 512 l 1
 603 512 l 1xf4
 584 630 513 672 411 672 c 0
 225 672 160 508 160 344 c 0
 160 223 203 20 409 20 c 0
 540 20 588 90 616 186 c 1
 648 186 l 1
 635 33 l 1
 587 7 495 -15 415 -15 c 0
 303 -15 205 8 143 70 c 0
 83 130 48 224 48 341 c 0xf2
EndSplineSet
EndChar

StartChar: afii10101
Encoding: 1108 1108 335
Width: 496
Flags: W
HStem: -12 52<227.396 374.315> 238 35<153 359> 467 35<222.852 330.613>
LayerCount: 2
Back
SplineSet
153 238 m 1
 153 273 l 1
 359 273 l 1
 359 238 l 1
 153 238 l 1
49 240 m 0
 49 373 110 502 292 502 c 0
 400 502 466 451 466 405 c 0
 466 367 427 354 407 354 c 0
 388 354 382 364 376 380 c 0
 356 434 327 467 281 467 c 0
 212 467 153 407 153 258 c 0
 153 164 181 40 300 40 c 0
 373 40 413 76 444 146 c 1
 473 132 l 1
 445 25 351 -12 281 -12 c 0
 131 -12 49 73 49 240 c 0
EndSplineSet
Fore
SplineSet
153 238 m 1
 153 273 l 1
 359 273 l 1
 359 238 l 1
 153 238 l 1
49 240 m 0
 49 373 110 502 292 502 c 0
 400 502 466 451 466 405 c 0
 466 367 427 354 407 354 c 0
 388 354 382 364 376 380 c 0
 356 434 327 467 281 467 c 0
 212 467 153 407 153 258 c 0
 153 164 181 40 300 40 c 0
 367 40 404 65 441 136 c 1
 470 122 l 1
 434 17 346 -12 281 -12 c 0
 131 -12 49 73 49 240 c 0
EndSplineSet
EndChar

StartChar: afii10050
Encoding: 1168 1168 336
Width: 536
Flags: HW
HStem: 0 29<35 114.046 236.816 324> 657 35<35 120.879 224.981 432.459>
VStem: 125 99<39.4351 654.343> 497 30<766.672 835>
LayerCount: 2
Fore
SplineSet
35 0 m 1
 35 29 l 1
 123 35 125 37 125 93 c 2
 125 599 l 2
 125 655 123 657 35 663 c 1
 35 692 l 1
 332 692 l 2
 449 692 485 726 497 835 c 1
 527 835 l 1
 527 618 l 1
 497 618 l 1
 485 649 481 657 392 657 c 2
 261 657 l 2
 228 657 224 654 224 621 c 2
 224 93 l 2
 224 37 228 36 324 29 c 1
 324 0 l 1
 35 0 l 1
EndSplineSet
EndChar

StartChar: afii10098
Encoding: 1169 1169 337
Width: 448
VWidth: 0
Flags: HW
HStem: 0 29<32 99.0117 208.988 276> 455 35<32 104.107 204.744 356.339>
VStem: 107 94<35.6418 451.213> 412 28<563.032 623>
LayerCount: 2
Fore
SplineSet
32 0 m 1
 32 29 l 1
 104 34 107 36 107 87 c 2
 107 403 l 2
 107 454 104 456 32 461 c 1
 32 490 l 1
 257 490 l 2
 367 490 394 514 412 623 c 1
 440 623 l 1
 440 415 l 1
 409 415 l 1
 394 446 386 455 317 455 c 2
 276 455 l 2
 204 455 201 451 201 400 c 2
 201 86 l 2
 201 35 205 33 296 29 c 1
 296 0 l 1
 32 0 l 1
EndSplineSet
EndChar

StartChar: ring.cap
Encoding: 61427 61427 342
Width: 400
Flags: W
HStem: 715 33<164.397 235.603> 884 33<164.397 235.603>
VStem: 92 58<756.495 875.505> 250 58<756.495 875.505>
LayerCount: 2
Fore
SplineSet
92 816 m 0
 92 891 146 917 200 917 c 0
 254 917 308 891 308 816 c 0
 308 741 254 715 200 715 c 0
 146 715 92 741 92 816 c 0
150 816 m 0
 150 764 172 748 200 748 c 0
 228 748 250 764 250 816 c 0
 250 868 228 884 200 884 c 0
 172 884 150 868 150 816 c 0
EndSplineSet
EndChar

StartChar: dotaccent.cap
Encoding: 61421 61421 343
Width: 400
Flags: W
HStem: 732 109<153.64 246.683>
VStem: 142 116<743.625 829.736>
LayerCount: 2
Fore
SplineSet
142 787 m 0
 142 815 163 841 200 841 c 0
 238 841 258 815 258 787 c 0
 258 759 238 732 200 732 c 0
 163 732 142 759 142 787 c 0
EndSplineSet
EndChar

StartChar: macron.cap
Encoding: 63184 63184 344
Width: 400
Flags: W
HStem: 759 59<42 358>
VStem: 42 316<759 818>
LayerCount: 2
Fore
SplineSet
42 759 m 1
 42 818 l 1
 358 818 l 1
 358 759 l 1
 42 759 l 1
EndSplineSet
EndChar

StartChar: breve.cap
Encoding: 61422 61422 345
Width: 400
Flags: W
HStem: 749 62<105.771 294.229>
VStem: 50 28<846.047 870> 322 28<846.047 870>
LayerCount: 2
Back
SplineSet
63 885 m 1
 87 885 l 1
 89 864 107 814 200 814 c 0
 293 814 311 864 313 885 c 1
 337 885 l 1
 337 822 325 749 200 749 c 0
 75 749 63 822 63 885 c 1
EndSplineSet
Fore
SplineSet
50 870 m 1
 78 870 l 1
 80 851 106 811 200 811 c 0
 294 811 320 851 322 870 c 1
 350 870 l 1
 350 814 321 749 200 749 c 0
 79 749 50 814 50 870 c 1
EndSplineSet
EndChar

StartChar: hungarumlaut.cap
Encoding: 63183 63183 347
Width: 400
Flags: MW
HStem: 744 150
VStem: 54 167<766 846> 224 167<766 846>
LayerCount: 2
Fore
SplineSet
224 766 m 1
 294 855 l 2
 309 874 326 894 347 894 c 0
 367 894 391 867 391 846 c 0
 391 830 380 821 344 800 c 2
 243 744 l 1
 224 766 l 1
54 766 m 1
 124 855 l 2
 139 874 156 894 177 894 c 0
 197 894 221 867 221 846 c 0
 221 830 210 821 174 800 c 2
 73 744 l 1
 54 766 l 1
EndSplineSet
EndChar

StartChar: tcaron
Encoding: 357 357 349
Width: 350
VWidth: 0
Flags: W
HStem: -12 52<196.5 275.5> 450 40<31 103 31 107 197 326> 548 242
VStem: 103 94<102 140 140 450> 283 73<629.253 726>
LayerCount: 2
Back
SplineSet
31 450 m 1
 31 490 l 1
 107 490 l 1
 168 616 l 1
 197 616 l 1
 197 490 l 1
 326 490 l 1
 326 450 l 1
 197 450 l 1
 197 140 l 2
 197 64 229 40 263 40 c 0
 288 40 310 43 334 53 c 1
 342 32 l 1
 313 14 265 -12 214 -12 c 0
 179 -12 103 0 103 102 c 2
 103 450 l 1
 31 450 l 1
242 547 m 1
 273 583 297 621 297 659 c 0
 297 696 264 717 264 753 c 0
 264 780 282 801 312 801 c 0
 345 801 377 769 377 715 c 0
 377 644 309 577 259 531 c 1
 242 547 l 1
EndSplineSet
Fore
Refer: 84 116 N 1 0 0 1 0 0 2
Refer: 350 57480 N 1 0 0 1 184 0 2
EndChar

StartChar: caron.alt
Encoding: 57480 57480 350
Width: 226
VWidth: 0
Flags: W
HStem: 548 242
VStem: 99 73<629.253 726>
LayerCount: 2
Fore
SplineSet
63 564 m 1
 85 595 99 627 99 656 c 0
 99 697 53 702 53 744 c 0
 53 769 73 790 104 790 c 0
 145 790 172 751 172 701 c 0
 172 639 124 590 80 548 c 1
 63 564 l 1
EndSplineSet
EndChar

StartChar: dcaron
Encoding: 271 271 353
Width: 648
Flags: W
HStem: -12 54<223.317 342.912> 0 29<516.325 583> 467 35<235.578 365.633> 548 242 692 25<344 382> 722 20<375.4 508 375.4 508>
VStem: 49 104<127.962 357.262> 414 94<35.6418 56 88.0459 425.039 478 686.329> 591 73<629.253 726>
LayerCount: 2
Back
SplineSet
339 0 m 1
 339 29 l 1
 411 34 414 36 414 87 c 2
 414 642 l 2
 414 680 408 685 382 688 c 2
 344 692 l 1
 344 717 l 1
 501 742 l 1xb8
 508 736 l 1
 508 87 l 2
 508 36 512 34 583 29 c 1
 583 0 l 1
 339 0 l 1
555 564 m 1xd8
 577 595 591 627 591 656 c 0
 591 697 545 702 545 744 c 0
 545 769 565 790 596 790 c 0
 637 790 664 751 664 701 c 0
 664 639 616 590 572 548 c 1
 555 564 l 1xd8
EndSplineSet
Fore
Refer: 350 57480 N 1 0 0 1 492 0 2
Refer: 68 100 N 1 0 0 1 0 0 2
EndChar

StartChar: uni04A4
Encoding: 1188 1188 354
Width: 1003
Flags: W
HStem: 0 29<35 114.046 235.317 314 484 563.046 686.135 779> 341 38<224 574> 663 29<35 114.046 235.317 314 484 563.046 677.013 882.345>
VStem: 125 99<37.6573 341 379 654.343> 574 99<38.8129 341 379 654.343> 956 30<528 594.306>
LayerCount: 2
Fore
SplineSet
35 0 m 1
 35 29 l 1
 123 35 125 37 125 93 c 2
 125 599 l 2
 125 655 123 657 35 663 c 1
 35 692 l 1
 314 692 l 1
 314 663 l 1
 227 657 224 655 224 599 c 2
 224 379 l 1
 574 379 l 1
 574 599 l 2
 574 655 572 657 484 663 c 1
 484 692 l 1
 986 692 l 1
 986 528 l 1
 956 528 l 1
 942 630 917 657 801 657 c 2
 710 657 l 2
 677 657 673 654 673 621 c 2
 673 93 l 2
 673 37 676 35 779 29 c 1
 779 0 l 1
 484 0 l 1
 484 29 l 1
 572 35 574 37 574 93 c 2
 574 341 l 1
 224 341 l 1
 224 93 l 2
 224 37 227 35 314 29 c 1
 314 0 l 1
 35 0 l 1
EndSplineSet
EndChar

StartChar: uni04A5
Encoding: 1189 1189 355
Width: 788
VWidth: 0
Flags: W
HStem: 0 29<32 99.0117 208.988 276 348 415.012 526.247 612> 235 35<201 423> 342 21G<728.5 766> 461 29<32 99.0117 208.988 276 348 415.012 529.039 671.173>
VStem: 107 94<35.6418 235 270 454.358> 423 94<36.5855 235 270 450.266> 735 31<342 403.889>
LayerCount: 2
Fore
SplineSet
32 0 m 1
 32 29 l 1
 104 34 107 36 107 87 c 2
 107 403 l 2
 107 454 104 456 32 461 c 1
 32 490 l 1
 276 490 l 1
 276 461 l 1
 204 456 201 454 201 403 c 2
 201 270 l 1
 423 270 l 1
 423 403 l 2
 423 454 420 456 348 461 c 1
 348 490 l 1
 766 490 l 1
 766 342 l 1
 735 342 l 1
 722 434 701 455 593 455 c 2
 592 455 l 1
 519 452 517 451 517 403 c 2
 517 86 l 2
 517 35 521 33 612 29 c 1
 612 0 l 1
 348 0 l 1
 348 29 l 1
 420 34 423 36 423 87 c 2
 423 235 l 1
 201 235 l 1
 201 87 l 2
 201 36 204 34 276 29 c 1
 276 0 l 1
 32 0 l 1
EndSplineSet
EndChar

StartChar: uni04AF
Encoding: 1199 1199 358
Width: 506
Flags: MW
HStem: -230 29<115 195.176 310.824 391> 461 29<-8 44.7394 171 216 334 383 470.072 524>
VStem: 206 94<-192.369 41>
DStem2: 212 258 137 216 0.319394 -0.947622<-201.242 200.489> 278 68 289 -20 0.332582 0.943074<0 400.921>
LayerCount: 2
Back
SplineSet
214 41 m 1
 214 -143 l 2
 214 -194 207 -196 123 -201 c 1
 123 -230 l 1
 399 -230 l 1
 399 -201 l 1
 315 -196 308 -194 308 -143 c 2
 308 41 l 1
 214 41 l 1
1 461 m 1
 1 490 l 1
 225 490 l 1
 225 461 l 1
 180 456 l 2
 161 454 157 446 164 427 c 0
 183 373 203 315 223 258 c 2
 284 90 l 1
 286 90 l 1
 353 275 l 2
 376 339 395 397 403 429 c 0
 407 443 404 454 388 456 c 2
 339 461 l 1
 339 490 l 1xfc
 529 490 l 1
 529 461 l 1
 483 459 472 453 457 418 c 0
 443 386 414 320 385 242 c 2
 296 0 l 1
 224 0 l 1
 147 216 l 2
 122 285 99 350 72 416 c 0
 57 453 48 457 1 461 c 1
EndSplineSet
Fore
SplineSet
206 41 m 1
 300 41 l 1
 300 -143 l 2
 300 -194 307 -196 391 -201 c 1
 391 -230 l 1
 115 -230 l 1
 115 -201 l 1
 199 -196 206 -194 206 -143 c 2
 206 41 l 1
-8 461 m 1
 -8 490 l 1
 216 490 l 1
 216 461 l 1
 171 456 l 2
 152 454 148 446 155 427 c 0
 174 373 197 303 212 258 c 2
 276 68 l 1
 278 68 l 1
 351 275 l 2
 374 339 390 397 398 429 c 0
 402 443 399 454 383 456 c 2
 334 461 l 1
 334 490 l 1
 524 490 l 1
 524 461 l 1
 478 459 467 453 452 418 c 0
 438 386 411 320 383 242 c 2
 289 -20 l 1
 217 -20 l 1
 137 216 l 2
 114 285 90 350 63 416 c 0
 48 453 39 457 -8 461 c 1
EndSplineSet
EndChar

StartChar: uni04B0
Encoding: 1200 1200 359
Width: 588
Flags: W
HStem: 0 29<150 242.865 368.135 461> 190 38<132 256 355 479> 663 29<-12 50.9972 188 247 413 467 564.812 632>
VStem: 256 99<39.1216 190 228 309.809>
DStem2: 177 627 77 613 0.434523 -0.900661<-22.6471 338.916> 333 325 368 305 0.448119 0.893974<0 357.966>
LayerCount: 2
Back
SplineSet
132 228 m 1
 479 228 l 1
 479 190 l 1
 132 190 l 1
 132 228 l 1
-12 663 m 1
 -12 692 l 1
 247 692 l 1
 247 663 l 1
 188 657 l 2
 173 655 169 645 177 627 c 0
 221 531 273 430 331 325 c 1
 333 325 l 1
 386 429 454 566 479 626 c 0
 487 645 485 656 467 658 c 2
 413 663 l 1
 413 692 l 1
 632 692 l 1
 632 663 l 1
 565 660 559 652 525 597 c 0
 494 547 419 407 368 305 c 0
 358 285 355 270 355 246 c 2
 355 93 l 2
 355 38 358 35 461 29 c 1
 461 0 l 1
 150 0 l 1
 150 29 l 1
 253 35 256 38 256 93 c 2
 256 242 l 2
 256 262 252 279 241 300 c 0
 192 399 133 510 77 613 c 0
 55 655 41 661 -12 663 c 1
EndSplineSet
Fore
SplineSet
-12 663 m 1
 -12 692 l 1
 247 692 l 1
 247 663 l 1
 188 657 l 2
 173 655 169 645 177 627 c 0
 221 531 273 430 331 325 c 1
 333 325 l 1
 386 429 454 566 479 626 c 0
 487 645 485 656 467 658 c 2
 413 663 l 1
 413 692 l 1
 632 692 l 1
 632 663 l 1
 565 660 559 652 525 597 c 0
 494 547 419 407 368 305 c 0
 358 285 355 270 355 246 c 2
 355 228 l 1
 479 228 l 1
 479 190 l 1
 355 190 l 1
 355 93 l 2
 355 38 358 35 461 29 c 1
 461 0 l 1
 150 0 l 1
 150 29 l 1
 253 35 256 38 256 93 c 2
 256 190 l 1
 132 190 l 1
 132 228 l 1
 256 228 l 1
 256 242 l 2
 256 262 252 279 241 300 c 0
 192 399 133 510 77 613 c 0
 55 655 41 661 -12 663 c 1
EndSplineSet
EndChar

StartChar: uni04B1
Encoding: 1201 1201 360
Width: 506
Flags: MW
HStem: -235 29<115 195.176 310.824 391> -60 40<85 421> 461 29<-8 44.7394 171 216 334 383 470.072 524>
VStem: 206 94<-197.369 41>
DStem2: 276 68 137 216 0.319394 -0.947622<-401.731 0> 278 68 289 -20 0.332582 0.943074<0 400.921>
LayerCount: 2
Fore
SplineSet
421 -20 m 1
 421 -60 l 1
 85 -60 l 1
 85 -20 l 1
 421 -20 l 1
206 41 m 1
 300 41 l 1
 300 -148 l 2
 300 -199 307 -201 391 -206 c 1
 391 -235 l 1
 115 -235 l 1
 115 -206 l 1
 199 -201 206 -199 206 -148 c 2
 206 41 l 1
-8 461 m 1
 -8 490 l 1
 216 490 l 1
 216 461 l 1
 171 456 l 2
 152 454 148 446 155 427 c 2
 276 68 l 1
 278 68 l 1
 351 275 l 2
 374 339 390 397 398 429 c 0
 402 443 399 454 383 456 c 2
 334 461 l 1
 334 490 l 1
 524 490 l 1
 524 461 l 1
 478 459 467 453 452 418 c 0
 438 386 411 320 383 242 c 2
 289 -20 l 1
 217 -20 l 1
 137 216 l 2
 114 285 90 350 63 416 c 0
 48 453 39 457 -8 461 c 1
EndSplineSet
EndChar

StartChar: uni0493
Encoding: 1171 1171 361
Width: 476
VWidth: 0
Flags: W
HStem: 0 29<36 103.012 212.988 280> 235 40<37 376> 455 35<36 108.107 205 379.408>
VStem: 111 94<35.6418 450.503> 423 31<342 403.889>
LayerCount: 2
Fore
SplineSet
37 235 m 1
 37 275 l 1
 376 275 l 1
 376 235 l 1
 37 235 l 1
EndSplineSet
Refer: 281 1075 N 1 0 0 1 4 0 2
EndChar

StartChar: uni0492
Encoding: 1170 1170 362
Width: 558
Flags: W
HStem: 0 29<39 118.046 241.135 334> 390 38<39 129 228 451> 657 35<39 124.879 228.981 457.683>
VStem: 129 99<38.8129 390 428 654.343> 511 30<528 594.306>
LayerCount: 2
Fore
SplineSet
39 0 m 1
 39 29 l 1
 127 35 129 37 129 93 c 2
 129 390 l 1
 39 390 l 1
 39 428 l 1
 129 428 l 1
 129 599 l 2
 129 655 127 657 39 663 c 1
 39 692 l 1
 541 692 l 1
 541 528 l 1
 511 528 l 1
 497 630 472 657 356 657 c 2
 265 657 l 2
 232 657 228 654 228 621 c 2
 228 428 l 1
 451 428 l 1
 451 390 l 1
 228 390 l 1
 228 93 l 2
 228 37 231 35 334 29 c 1
 334 0 l 1
 39 0 l 1
EndSplineSet
EndChar

